<?xml version="1.0" standalone="no"?>
<!DOCTYPE svg PUBLIC "-//W3C//DTD SVG 1.1//EN" "http://www.w3.org/Graphics/SVG/1.1/DTD/svg11.dtd" >
<svg>
<metadata>
Created by FontForge 20090622 at Fri Apr  7 15:49:05 2017
 By deploy user
Copyright (c) 2012 by Henrik Kubel, A2/SW/HK + A2-TYPE. All rights reserved.
</metadata>
<defs>
<font id="Regular-Light" horiz-adv-x="430" >
  <font-face 
    font-family="Regular Light"
    font-weight="600"
    font-stretch="normal"
    units-per-em="1000"
    panose-1="2 0 5 3 4 0 0 2 0 3"
    ascent="750"
    descent="-250"
    x-height="434"
    cap-height="700"
    bbox="-241 -278 1154 953"
    underline-thickness="36"
    underline-position="-120"
    unicode-range="U+0020-U+FB06"
  />
<missing-glyph horiz-adv-x="500" 
d="M292 141v61h17q14 0 14 -18v-26q0 -17 -14 -17h-17zM460 373v20q0 24 -23 24h-9q-24 0 -24 -24v-20q0 -24 24 -24h9q23 0 23 24zM65 202v-160h28v160h30v26h-88v-26h30zM205 107l32 121h-29l-17 -77l-20 77h-30l33 -121v-65h31v65zM380 228v-186h85v27h-55v54h32v27h-32
v52h55v26h-85zM264 228v-186h28v71h24q16 0 26 11.5t10 29.5v33q0 19 -10 30t-26 11h-52zM355 365l79 105q26 33 26 81v16q0 40 -25.5 66t-61.5 26h-17q-36 0 -62 -26t-26 -66v-50h62v42q0 40 33 40h3q31 0 31 -40v-7q-1 -30 -21 -57l-78 -104q-29 -38 -29 -78v-43h192v61
h-122v4q0 9 16 30zM170 347l8 -77h66l-43 387h-118l-43 -387h65l7 77h58zM415 374v18q0 15 14 15h6q14 0 14 -15v-4h-11v1q0 8 -6 8t-6 -8v-12q0 -8 6 -8t6 8v1h11v-4q0 -15 -14 -15h-6q-14 0 -14 15zM0 29v641q0 12 8 20.5t20 8.5h445q11 0 19 -8.5t8 -20.5v-641
q0 -12 -8 -20.5t-19 -8.5h-445q-12 0 -20 8.5t-8 20.5zM146 604l18 -196h-46l18 196h10z" />
    <glyph glyph-name="f_j" unicode="fj" horiz-adv-x="446" 
d="M332 -92v490h-193v-398h-43v398h-75v36h75v169q0 55 26.5 79t65.5 24l50 -4v-37q-30 5 -42 5q-57 0 -57 -68v-168h236v-525q0 -83 -88 -83h-45v36h38q52 0 52 46zM306 591q0 18 13 31t31 13t31 -13t13 -31t-13 -31t-31 -13t-31 13t-13 31z" />
    <glyph glyph-name="f_i" unicode="fi" horiz-adv-x="446" 
d="M375 434v-434h-43v398h-193v-398h-43v398h-75v36h75v169q0 55 26.5 79t65.5 24l50 -4v-37q-30 5 -42 5q-57 0 -57 -68v-168h236zM306 591q0 18 13 31t31 13t31 -13t13 -31t-13 -31t-31 -13t-31 13t-13 31z" />
    <glyph glyph-name="f_f_f" unicode="fff" horiz-adv-x="727" 
d="M568 434v169q0 55 26.5 79t65.5 24l50 -4v-37q-30 5 -42 5q-57 0 -57 -68v-168h87v-36h-87v-398h-43v398h-193v-398h-43v398h-193v-398h-43v398h-75v36h75v169q0 55 26.5 79t65.5 24l50 -4v-37q-30 5 -42 5q-57 0 -57 -68v-168h193v169q0 55 26.5 79t65.5 24l50 -4v-37
q-30 5 -42 5q-57 0 -57 -68v-168h193z" />
    <glyph glyph-name="f_f" unicode="ff" horiz-adv-x="491" 
d="M332 434v169q0 55 26.5 79t65.5 24l50 -4v-37q-30 5 -42 5q-57 0 -57 -68v-168h87v-36h-87v-398h-43v398h-193v-398h-43v398h-75v36h75v169q0 55 26.5 79t65.5 24l50 -4v-37q-30 5 -42 5q-57 0 -57 -68v-168h193z" />
    <glyph glyph-name=".notdef" horiz-adv-x="500" 
d="M292 141v61h17q14 0 14 -18v-26q0 -17 -14 -17h-17zM460 373v20q0 24 -23 24h-9q-24 0 -24 -24v-20q0 -24 24 -24h9q23 0 23 24zM65 202v-160h28v160h30v26h-88v-26h30zM205 107l32 121h-29l-17 -77l-20 77h-30l33 -121v-65h31v65zM380 228v-186h85v27h-55v54h32v27h-32
v52h55v26h-85zM264 228v-186h28v71h24q16 0 26 11.5t10 29.5v33q0 19 -10 30t-26 11h-52zM355 365l79 105q26 33 26 81v16q0 40 -25.5 66t-61.5 26h-17q-36 0 -62 -26t-26 -66v-50h62v42q0 40 33 40h3q31 0 31 -40v-7q-1 -30 -21 -57l-78 -104q-29 -38 -29 -78v-43h192v61
h-122v4q0 9 16 30zM170 347l8 -77h66l-43 387h-118l-43 -387h65l7 77h58zM415 374v18q0 15 14 15h6q14 0 14 -15v-4h-11v1q0 8 -6 8t-6 -8v-12q0 -8 6 -8t6 8v1h11v-4q0 -15 -14 -15h-6q-14 0 -14 15zM0 29v641q0 12 8 20.5t20 8.5h445q11 0 19 -8.5t8 -20.5v-641
q0 -12 -8 -20.5t-19 -8.5h-445q-12 0 -20 8.5t-8 20.5zM146 604l18 -196h-46l18 196h10z" />
    <glyph glyph-name=".null" horiz-adv-x="0" 
 />
    <glyph glyph-name="nonmarkingreturn" horiz-adv-x="333" 
 />
    <glyph glyph-name="space" unicode=" " horiz-adv-x="200" 
 />
    <glyph glyph-name="exclam" unicode="!" horiz-adv-x="241" 
d="M140 223h-40l-7 477h53zM69 44q0 21 14.5 35.5t35.5 14.5t35.5 -14.5t14.5 -35.5t-14.5 -35.5t-35.5 -14.5t-35.5 14.5t-14.5 35.5z" />
    <glyph glyph-name="quotedbl" unicode="&#x22;" horiz-adv-x="338" 
d="M71 451v249h44v-249h-44zM223 451v249h44v-249h-44z" />
    <glyph glyph-name="numbersign" unicode="#" horiz-adv-x="522" 
d="M59 444v44h88v146h44v-146h139v146h44v-146h89v-44h-89v-149h89v-44h-89v-146h-44v146h-139v-146h-44v146h-88v44h88v149h-88zM191 444v-149h139v149h-139z" />
    <glyph glyph-name="dollar" unicode="$" horiz-adv-x="499" 
d="M446 650l-24 -35q-48 41 -116 54l-28 -292l14 -7q87 -45 124 -90t37 -109q0 -73 -57.5 -127.5t-155.5 -55.5l-8 -81h-39l8 83q-95 10 -164 72l24 35q59 -56 144 -68l31 322l-34 18q-70 36 -104.5 78t-34.5 97q0 77 58 122.5t143 45.5h7l7 68h39l-7 -72q76 -11 136 -58z
M408 167q0 55 -30.5 90.5t-104.5 74.5l-29 -305q73 0 118.5 41.5t45.5 98.5zM108 546q0 -81 108 -137l25 -13l26 277q-66 0 -112.5 -32.5t-46.5 -94.5z" />
    <glyph glyph-name="percent" unicode="%" horiz-adv-x="700" 
d="M74 572q0 58 40.5 99t98.5 41q57 0 98 -41t41 -99q0 -57 -41 -98t-98 -41q-58 0 -98.5 41t-40.5 98zM116 572q0 -41 28.5 -71t68.5 -30q39 0 68 30t29 71q0 42 -29 72t-68 30q-40 0 -68.5 -30t-28.5 -72zM638 127q0 -57 -41 -98t-99 -41q-57 0 -98 41t-41 98q0 58 41 99
t98 41q58 0 99 -41t41 -99zM595 127q0 42 -28.5 72t-68.5 30t-68 -30t-28 -72q0 -41 28 -71t68 -30t68.5 30t28.5 71zM652 549l-585 -449l-25 34l585 449z" />
    <glyph glyph-name="ampersand" unicode="&#x26;" horiz-adv-x="630" 
d="M544 0l-92 98q-87 -110 -210 -110q-79 0 -137 50t-58 133q0 59 33.5 112.5t103.5 110.5q-71 84 -71 161q0 62 44 109.5t121 47.5q68 0 111.5 -40t43.5 -101q0 -40 -19 -81l-40 14q14 35 14 65q0 51 -32.5 77.5t-77.5 26.5q-48 0 -83.5 -31.5t-35.5 -87.5q0 -37 20 -73.5
t63 -84.5l207 -231q55 90 77 202h48q-28 -133 -95 -232l123 -133v-2h-58zM243 27q108 0 181 101l-216 237q-61 -57 -88.5 -100.5t-27.5 -94.5q0 -66 46 -104.5t105 -38.5z" />
    <glyph glyph-name="quotesingle" unicode="'" horiz-adv-x="186" 
d="M71 451v249h44v-249h-44z" />
    <glyph glyph-name="parenleft" unicode="(" horiz-adv-x="292" 
d="M90 274q0 -107 48.5 -219t125.5 -200v-8h-45q-84 104 -128.5 206t-44.5 221t44.5 220.5t128.5 205.5h45v-8q-78 -88 -126 -199.5t-48 -218.5z" />
    <glyph glyph-name="parenright" unicode=")" horiz-adv-x="292" 
d="M202 274q0 107 -48 218.5t-126 199.5v8h45q84 -104 128.5 -205.5t44.5 -220.5t-44.5 -221t-128.5 -206h-45v8q77 88 125.5 200t48.5 219z" />
    <glyph glyph-name="asterisk" unicode="*" horiz-adv-x="471" 
d="M245 558h-19q-25 96 -25 118q0 14 10 24t25 10q14 0 24 -10t10 -24q0 -22 -25 -118zM359 620q13 7 26 3t20 -17q6 -13 1.5 -27t-15.5 -20q-10 -5 -32 -11t-51 -12.5t-33 -7.5l-9 17q78 67 93 75zM112 620q15 -8 93 -75l-9 -17q-4 1 -33 7.5t-51 12.5t-32 11
q-11 6 -15.5 20t1.5 27q7 13 20 17t26 -3zM226 477h19q25 -96 25 -118q0 -14 -10 -24t-24 -10q-15 0 -25 10t-10 24q0 22 25 118zM359 415q-15 8 -93 75l9 17q4 -1 33 -7.5t51 -12.5t32 -11q11 -6 15.5 -20t-1.5 -27q-7 -13 -20 -17t-26 3zM112 415q-13 -7 -26 -3t-20 17
q-6 13 -1.5 27t15.5 20q10 5 32 11t51 12.5t33 7.5l9 -17q-78 -67 -93 -75z" />
    <glyph glyph-name="plus" unicode="+" horiz-adv-x="480" 
d="M261 559v-182h182v-42h-182v-183h-44v183h-181v42h181v182h44z" />
    <glyph glyph-name="comma" unicode="," horiz-adv-x="233" 
d="M67 43q0 21 14.5 36t35.5 15q20 0 34.5 -14.5t14.5 -36.5q0 -19 -8 -32l-56 -103h-41l39 87q-14 5 -23.5 18t-9.5 30z" />
    <glyph glyph-name="hyphen" unicode="-" horiz-adv-x="250" 
d="M21 252v36h207v-36h-207z" />
    <glyph glyph-name="period" unicode="." horiz-adv-x="228" 
d="M64 44q0 21 14.5 35.5t35.5 14.5t35.5 -14.5t14.5 -35.5t-14.5 -35.5t-35.5 -14.5t-35.5 14.5t-14.5 35.5z" />
    <glyph glyph-name="slash" unicode="/" horiz-adv-x="365" 
d="M42 0l236 700h45l-234 -700h-47z" />
    <glyph glyph-name="zero" unicode="0" horiz-adv-x="480" 
d="M240 712q189 0 189 -361q0 -177 -45 -270t-144 -93t-144 93t-45 270q0 361 189 361zM97 351q0 -326 143 -326q144 0 144 326q0 324 -144 324q-143 0 -143 -324z" />
    <glyph glyph-name="one" unicode="1" horiz-adv-x="480" 
d="M87 659v41h186v-659h139v-41h-322v41h139v618h-142z" />
    <glyph glyph-name="two" unicode="2" horiz-adv-x="480" 
d="M45 0v39q101 107 220 248q113 135 113 240q0 68 -42.5 108t-110.5 40q-59 0 -101 -34.5t-42 -95.5q0 -38 19 -79l-39 -12q-23 46 -23 92q0 79 57.5 122.5t133.5 43.5q82 0 137.5 -50t55.5 -134q0 -117 -134 -274l-189 -213h343v-41h-398z" />
    <glyph glyph-name="three" unicode="3" horiz-adv-x="480" 
d="M238 -12q-91 0 -142.5 54t-51.5 147v29h44v-19q0 -77 37 -125t112 -48q71 0 110.5 51t39.5 124q0 95 -47 134.5t-133 39.5q-12 0 -39 -3v27l210 260h-317v41h363v-44l-195 -244q91 0 147 -53.5t56 -150.5q0 -96 -51 -158t-143 -62z" />
    <glyph glyph-name="four" unicode="4" horiz-adv-x="480" 
d="M23 231v41l253 428h73v-428h105v-41h-105v-231h-45v231h-281zM302 666l-233 -394h235v394h-2z" />
    <glyph glyph-name="five" unicode="5" horiz-adv-x="480" 
d="M435 218q0 -102 -52.5 -166t-145.5 -64q-90 0 -140 53.5t-50 147.5v29h44v-19q0 -77 36 -125t111 -48q72 0 112 53t40 132q0 89 -36 143t-112 54q-63 0 -120 -44h-42v336h328v-41h-287v-252h2q50 39 121 39q93 0 142 -62.5t49 -165.5z" />
    <glyph glyph-name="six" unicode="6" horiz-adv-x="480" 
d="M269 700h54l-23 -26q-136 -154 -189 -306l2 -1q50 63 146 63q79 0 135 -57.5t56 -163.5q0 -99 -57.5 -160t-146.5 -61q-90 0 -145.5 62.5t-55.5 167.5q0 229 200 455zM90 208q0 -80 40 -132t116 -52q77 0 118 52t41 132t-41 132.5t-118 52.5q-76 0 -116 -52t-40 -133z
" />
    <glyph glyph-name="seven" unicode="7" horiz-adv-x="480" 
d="M194 0h-51l240 659h-332v41h376v-42z" />
    <glyph glyph-name="eight" unicode="8" horiz-adv-x="480" 
d="M240 24q76 0 119 47t43 111t-43 110.5t-119 46.5t-119 -46.5t-43 -110.5t43 -111t119 -47zM240 712q81 0 135 -52t54 -135q0 -52 -28.5 -99t-79.5 -66q55 -19 90 -68t35 -109q0 -88 -57.5 -141.5t-148.5 -53.5t-148.5 53.5t-57.5 141.5q0 60 35 109t90 68
q-51 19 -79.5 66t-28.5 99q0 83 54 135t135 52zM240 377q69 0 108.5 42.5t39.5 106.5t-39.5 107t-108.5 43t-108.5 -43t-39.5 -107t39.5 -106.5t108.5 -42.5z" />
    <glyph glyph-name="nine" unicode="9" horiz-adv-x="480" 
d="M210 0h-54l23 26q136 154 189 306l-2 1q-50 -63 -146 -63q-79 0 -135 57.5t-56 163.5q0 99 57.5 160t146.5 61q90 0 145.5 -62.5t55.5 -167.5q0 -229 -200 -455zM389 492q0 80 -40 132t-116 52q-77 0 -118 -52t-41 -132t41 -132.5t118 -52.5q76 0 116 52t40 133z" />
    <glyph glyph-name="colon" unicode=":" horiz-adv-x="227" 
d="M64 43q0 21 14.5 35t35.5 14q20 0 34.5 -14t14.5 -35q0 -20 -14.5 -35t-34.5 -15t-35 15t-15 35zM64 385q0 21 14.5 35t35.5 14q20 0 34.5 -14t14.5 -35t-14.5 -35.5t-34.5 -14.5t-35 14.5t-15 35.5z" />
    <glyph glyph-name="semicolon" unicode=";" horiz-adv-x="244" 
d="M79 385q0 21 14.5 35t34.5 14q21 0 35.5 -14t14.5 -35t-14.5 -35.5t-35.5 -14.5q-20 0 -34.5 14.5t-14.5 35.5zM72 43q0 21 14.5 36t35.5 15q20 0 34.5 -14.5t14.5 -36.5q0 -19 -8 -32l-56 -103h-41l39 87q-14 5 -23.5 18t-9.5 30z" />
    <glyph glyph-name="less" unicode="&#x3c;" horiz-adv-x="562" 
d="M499 375v-43h-379l188 -182l-31 -32l-243 236l243 235l31 -31l-188 -183h379z" />
    <glyph glyph-name="equal" unicode="=" horiz-adv-x="480" 
d="M36 253v42h407v-42h-407zM36 417v42h407v-42h-407z" />
    <glyph glyph-name="greater" unicode="&#x3e;" horiz-adv-x="562" 
d="M63 332v43h378l-188 183l32 31l243 -235l-243 -236l-32 32l188 182h-378z" />
    <glyph glyph-name="question" unicode="?" horiz-adv-x="450" 
d="M414 526q0 -67 -44 -123.5t-132 -68.5l-5 -144h-37l-8 176l17 2q82 9 122.5 52.5t40.5 108.5q0 69 -42 106.5t-99 37.5q-64 0 -104 -42t-40 -119v-8h-45v4q0 100 52.5 152t138.5 52q75 0 130 -49.5t55 -136.5zM165 44q0 21 14.5 35.5t35.5 14.5t35.5 -14.5t14.5 -35.5
t-14.5 -35.5t-35.5 -14.5t-35.5 14.5t-14.5 35.5z" />
    <glyph glyph-name="at" unicode="@" horiz-adv-x="876" 
d="M608 305v-197q0 -40 13.5 -61.5t49.5 -21.5q54 0 89.5 69t35.5 159q0 145 -97.5 237.5t-246.5 92.5q-150 0 -255.5 -103t-105.5 -263q0 -158 109.5 -260.5t263.5 -102.5q128 0 212 59h63q-105 -96 -272 -96q-181 0 -299.5 114t-118.5 288q0 173 116 287t296 114
q156 0 266.5 -103t110.5 -267q0 -117 -49.5 -189.5t-121.5 -72.5q-41 0 -65 21t-32 54q-17 -31 -59.5 -53t-87.5 -22q-69 0 -113 35.5t-44 96.5q0 56 38 88t101 32h108q52 0 52 47v20q0 51 -34.5 76t-85.5 25q-74 0 -130 -48l-22 33q22 20 63 36.5t90 16.5q73 0 117.5 -37.5
t44.5 -103.5zM427 25q57 0 97.5 33.5t40.5 91.5v77q-15 -23 -63 -23h-95q-48 0 -72 -23.5t-24 -61.5q0 -35 28 -64.5t88 -29.5z" />
    <glyph glyph-name="A" unicode="A" horiz-adv-x="605" 
d="M439 255h-275l-86 -255h-47l243 700h57l244 -700h-48zM298 656l-122 -361h249l-121 361h-6z" />
    <glyph glyph-name="B" unicode="B" horiz-adv-x="526" 
d="M441 530q0 -60 -30 -99t-76 -57v-2q65 -15 106 -63t41 -115q0 -83 -58.5 -138.5t-166.5 -55.5h-163v700h145q96 0 149 -50.5t53 -119.5zM138 351v-310h126q69 0 120 40t51 114t-51 115t-121 41h-125zM241 659h-103v-270h103q68 0 110 35.5t42 100.5t-42 99.5t-110 34.5z
" />
    <glyph glyph-name="C" unicode="C" horiz-adv-x="774" 
d="M401 27q102 0 177.5 52t109.5 143h46q-34 -107 -125.5 -170.5t-207.5 -63.5q-149 0 -251.5 103t-102.5 259t103 259t251 103q116 0 207.5 -63.5t125.5 -170.5h-46q-34 91 -109.5 143t-177.5 52q-133 0 -221 -92.5t-88 -230.5t88 -230.5t221 -92.5z" />
    <glyph glyph-name="D" unicode="D" horiz-adv-x="678" 
d="M629 350q0 -160 -97.5 -255t-280.5 -95h-157v700h157q183 0 280.5 -95t97.5 -255zM584 350q0 148 -88 228.5t-232 80.5h-126v-618h126q145 0 232.5 80.5t87.5 228.5z" />
    <glyph glyph-name="E" unicode="E" horiz-adv-x="576" 
d="M541 700v-42h-403v-281h259v-42h-259v-293h403v-42h-447v700h447z" />
    <glyph glyph-name="F" unicode="F" horiz-adv-x="536" 
d="M417 326h-279v-326h-44v700h426v-42h-382v-290h279v-42z" />
    <glyph glyph-name="G" unicode="G" horiz-adv-x="779" 
d="M399 27q64 0 115.5 21t82.5 56t48 75t19 81h-212v42h256v-302h-44v139q-36 -72 -106.5 -111.5t-165.5 -39.5q-147 0 -246 102.5t-99 259.5q0 156 103 259t251 103q116 0 208 -63.5t125 -170.5h-45q-33 91 -109 143t-179 52q-133 0 -221 -92.5t-88 -230.5q0 -139 87 -231
t220 -92z" />
    <glyph glyph-name="H" unicode="H" horiz-adv-x="652" 
d="M558 0h-44v335h-376v-335h-44v700h44v-323h376v323h44v-700z" />
    <glyph glyph-name="I" unicode="I" horiz-adv-x="232" 
d="M94 0v700h44v-700h-44z" />
    <glyph glyph-name="J" unicode="J" horiz-adv-x="568" 
d="M481 700v-487q0 -104 -55 -164.5t-169 -60.5t-169 60.5t-55 164.5v59h44v-62q0 -85 45.5 -134t134.5 -49t134.5 49t45.5 134v490h44z" />
    <glyph glyph-name="K" unicode="K" horiz-adv-x="573" 
d="M138 700v-311h21l349 311h62l-376 -330l369 -370h-59l-345 347h-21v-347h-44v700h44z" />
    <glyph glyph-name="L" unicode="L" horiz-adv-x="467" 
d="M451 0h-357v700h44v-658h313v-42z" />
    <glyph glyph-name="M" unicode="M" horiz-adv-x="818" 
d="M409 192l257 508h58v-700h-44v635l-244 -484h-56l-244 484v-635h-42v700h59z" />
    <glyph glyph-name="N" unicode="N" horiz-adv-x="652" 
d="M136 663v-663h-42v700h70l351 -647v647h43v-700h-62z" />
    <glyph glyph-name="O" unicode="O" horiz-adv-x="800" 
d="M400 -12q-148 0 -250.5 103t-102.5 259t102.5 259t250.5 103t250.5 -103t102.5 -259t-102.5 -259t-250.5 -103zM400 673q-133 0 -220.5 -92.5t-87.5 -230.5t87.5 -230.5t220.5 -92.5t220.5 92.5t87.5 230.5t-87.5 230.5t-220.5 92.5z" />
    <glyph glyph-name="P" unicode="P" horiz-adv-x="536" 
d="M503 487q0 -94 -61.5 -153.5t-182.5 -59.5h-121v-274h-44v700h165q121 0 182.5 -59.5t61.5 -153.5zM138 659v-344h137q76 0 128.5 45t52.5 127t-52.5 127t-128.5 45h-137z" />
    <glyph glyph-name="Q" unicode="Q" horiz-adv-x="800" 
d="M400 -12q-148 0 -250.5 103t-102.5 259t102.5 259t250.5 103t250.5 -103t102.5 -259q0 -108 -52 -193.5t-139 -130.5l27 -40q13 -19 20.5 -29t27.5 -22.5t43 -12.5l47 3v-38q-17 -4 -50 -4q-40 0 -66 15.5t-52 54.5l-38 56q-61 -21 -121 -21zM400 673
q-133 0 -220.5 -92.5t-87.5 -230.5t87.5 -230.5t220.5 -92.5q52 0 99 15l-105 159l36 23l110 -165q77 39 122.5 116.5t45.5 174.5q0 138 -87.5 230.5t-220.5 92.5z" />
    <glyph glyph-name="R" unicode="R" horiz-adv-x="573" 
d="M500 0l-197 310h-165v-310h-44v700h182q109 0 171 -51t62 -141q0 -28 -7.5 -55.5t-24.5 -55t-50.5 -48.5t-79.5 -31l204 -318h-51zM462 505q0 69 -46.5 111.5t-130.5 42.5h-147v-308h147q84 0 130.5 42.5t46.5 111.5z" />
    <glyph glyph-name="S" unicode="S" horiz-adv-x="493" 
d="M442 650l-24 -35q-27 23 -70.5 40.5t-84.5 17.5q-66 0 -112.5 -32.5t-46.5 -94.5q0 -81 108 -137l76 -39q87 -45 124 -90t37 -109q0 -73 -58 -128t-157 -55q-118 0 -201 74l24 35q75 -70 182 -70q74 0 119.5 41.5t45.5 98.5t-32.5 93t-111.5 77l-62 32q-70 36 -104.5 78
t-34.5 97q0 77 58 122.5t143 45.5q105 0 182 -62z" />
    <glyph glyph-name="T" unicode="T" horiz-adv-x="512" 
d="M14 700h485v-42h-221v-658h-44v658h-220v42z" />
    <glyph glyph-name="U" unicode="U" horiz-adv-x="622" 
d="M311 -12q-114 0 -169 60.5t-55 164.5v487h44v-490q0 -85 45.5 -134t134.5 -49t135 49t46 134v490h43v-485q0 -104 -55 -165.5t-169 -61.5z" />
    <glyph glyph-name="V" unicode="V" horiz-adv-x="603" 
d="M273 0l-244 700h48l224 -657h4l222 657h46l-243 -700h-57z" />
    <glyph glyph-name="W" unicode="W" horiz-adv-x="919" 
d="M708 0h-73l-176 656l-175 -656h-73l-174 700h45l161 -656h11l176 656h59l177 -656h9l161 656h46z" />
    <glyph glyph-name="X" unicode="X" horiz-adv-x="565" 
d="M545 700l-237 -343l246 -357h-56l-215 321l-218 -321h-54l246 354l-236 346h54l207 -310l211 310h52z" />
    <glyph glyph-name="Y" unicode="Y" horiz-adv-x="611" 
d="M283 311l-269 389h58l232 -343h4l235 343h55l-270 -389v-311h-45v311z" />
    <glyph glyph-name="Z" unicode="Z" horiz-adv-x="553" 
d="M470 658h-431v42h481v-44l-440 -614h440v-42h-492v45z" />
    <glyph glyph-name="bracketleft" unicode="[" horiz-adv-x="315" 
d="M275 658h-146v-769h146v-42h-190v853h190v-42z" />
    <glyph glyph-name="backslash" unicode="\" horiz-adv-x="363" 
d="M85 700l235 -700h-44l-234 700h43z" />
    <glyph glyph-name="bracketright" unicode="]" horiz-adv-x="315" 
d="M186 658h-146v42h190v-853h-190v42h146v769z" />
    <glyph glyph-name="asciicircum" unicode="^" horiz-adv-x="480" 
d="M59 225l153 475h64l144 -475h-48l-128 439l-137 -439h-48z" />
    <glyph glyph-name="underscore" unicode="_" horiz-adv-x="500" 
d="M0 -174v36h500v-36h-500z" />
    <glyph glyph-name="grave" unicode="`" horiz-adv-x="181" 
d="M92 676l51 -153h-37l-68 153h54z" />
    <glyph glyph-name="a" unicode="a" horiz-adv-x="447" 
d="M197 25q57 0 97.5 33.5t40.5 91.5v77q-15 -23 -63 -23h-95q-48 0 -72 -23.5t-24 -61.5q0 -35 28 -64.5t88 -29.5zM335 287v20q0 51 -34.5 76t-85.5 25q-74 0 -130 -48l-22 33q22 20 63 36.5t90 16.5q73 0 117.5 -37.5t44.5 -103.5v-305h-43v60q-17 -33 -56.5 -52.5
t-85.5 -19.5q-69 0 -113 35.5t-44 96.5q0 56 38 88t101 32h108q52 0 52 47z" />
    <glyph glyph-name="b" unicode="b" horiz-adv-x="554" 
d="M293 446q92 0 155.5 -65.5t63.5 -163.5q0 -99 -63.5 -164t-155.5 -65q-59 0 -106.5 29.5t-70.5 77.5v-95h-43v700h43v-362q22 48 70 78t107 30zM292 26q77 0 127 55t50 136t-50 136t-127 55t-127 -55t-50 -136t50 -136t127 -55z" />
    <glyph glyph-name="c" unicode="c" horiz-adv-x="498" 
d="M263 -12q-93 0 -157 65t-64 164q0 98 64 163.5t157 65.5q66 0 119.5 -34.5t79.5 -93.5l-38 -19q-21 49 -63.5 79t-97.5 30q-78 0 -128 -55t-50 -136t50 -136t128 -55q55 0 97.5 30t63.5 79l38 -19q-26 -59 -79.5 -93.5t-119.5 -34.5z" />
    <glyph glyph-name="d" unicode="d" horiz-adv-x="554" 
d="M261 446q59 0 107 -30t70 -78v362h43v-700h-43v95q-23 -48 -70.5 -77.5t-106.5 -29.5q-92 0 -155.5 65t-63.5 164q0 98 63.5 163.5t155.5 65.5zM262 26q77 0 127 55t50 136t-50 136t-127 55t-127 -55t-50 -136t50 -136t127 -55z" />
    <glyph glyph-name="e" unicode="e" horiz-adv-x="515" 
d="M480 204h-395q5 -77 53.5 -127.5t123.5 -50.5q52 0 92.5 25.5t62.5 70.5h47q-26 -62 -80 -98t-122 -36q-93 0 -156.5 65t-63.5 164q0 98 64 163.5t156 65.5q91 0 154.5 -64t63.5 -175v-3zM262 408q-72 0 -120.5 -47.5t-55.5 -120.5h351q-8 73 -55.5 120.5t-119.5 47.5z
" />
    <glyph glyph-name="f" unicode="f" horiz-adv-x="255" 
d="M96 434v169q0 55 26.5 79t65.5 24l50 -4v-37q-30 5 -42 5q-57 0 -57 -68v-168h87v-36h-87v-398h-43v398h-75v36h75z" />
    <glyph glyph-name="g" unicode="g" horiz-adv-x="553" 
d="M480 434v-485q0 -123 -123 -123h-145v36h141q85 0 85 71v162q-23 -48 -70.5 -77.5t-106.5 -29.5q-92 0 -155.5 65t-63.5 164q0 98 63.5 163.5t155.5 65.5q59 0 107 -30t70 -78v96h42zM261 26q77 0 127 55t50 136t-50 136t-127 55t-127 -55t-50 -136t50 -136t127 -55z" />
    <glyph glyph-name="h" unicode="h" horiz-adv-x="500" 
d="M116 370q30 35 72.5 55.5t83.5 20.5q70 0 114.5 -40.5t44.5 -107.5v-298h-43v281q0 62 -34.5 94t-85.5 32q-85 0 -152 -79v-328h-43v700h43v-330z" />
    <glyph glyph-name="i" unicode="i" horiz-adv-x="203" 
d="M130 434v-434h-43v398h-70v36h113zM61 591q0 18 13 31t31 13t31 -13t13 -31t-13 -31t-31 -13t-31 13t-13 31z" />
    <glyph glyph-name="j" unicode="j" horiz-adv-x="203" 
d="M87 -92v490h-70v36h113v-525q0 -83 -88 -83h-45v36h38q52 0 52 46zM61 591q0 18 13 31t31 13t31 -13t13 -31t-13 -31t-31 -13t-31 13t-13 31z" />
    <glyph glyph-name="k" unicode="k" horiz-adv-x="443" 
d="M116 700v-440h71l171 174h58l-193 -190l206 -244h-56l-187 224h-70v-224h-43v700h43z" />
    <glyph glyph-name="l" unicode="l" horiz-adv-x="189" 
d="M116 700v-700h-43v700h43z" />
    <glyph glyph-name="m" unicode="m" horiz-adv-x="795" 
d="M419 327q2 -18 2 -29v-298h-43v281q0 63 -32.5 94.5t-82.5 31.5q-80 0 -147 -79v-328h-43v434h43v-64q65 76 151 76q102 0 139 -83q75 83 166 83q70 0 112 -40.5t42 -107.5v-298h-43v281q0 63 -32.5 94.5t-82.5 31.5q-79 0 -149 -80z" />
    <glyph glyph-name="n" unicode="n" horiz-adv-x="500" 
d="M116 434v-64q30 35 72.5 55.5t83.5 20.5q70 0 114.5 -40.5t44.5 -107.5v-298h-43v281q0 62 -34.5 94t-85.5 32q-85 0 -152 -79v-328h-43v434h43z" />
    <glyph glyph-name="o" unicode="o" horiz-adv-x="524" 
d="M262 446q92 0 156 -65.5t64 -163.5q0 -99 -63.5 -164t-156.5 -65t-156.5 65t-63.5 164q0 98 64 163.5t156 65.5zM262 26q78 0 127.5 55t49.5 136t-49.5 136t-127.5 55t-127.5 -55t-49.5 -136t49.5 -136t127.5 -55z" />
    <glyph glyph-name="p" unicode="p" horiz-adv-x="554" 
d="M293 446q92 0 155.5 -65.5t63.5 -163.5q0 -99 -63.5 -164t-155.5 -65q-59 0 -106.5 29.5t-70.5 77.5v-269h-43v608h43v-96q22 48 70 78t107 30zM292 26q77 0 127 55t50 136t-50 136t-127 55t-127 -55t-50 -136t50 -136t127 -55z" />
    <glyph glyph-name="q" unicode="q" horiz-adv-x="554" 
d="M261 446q59 0 107 -30t70 -78v96h43v-608h-43v269q-23 -48 -70.5 -77.5t-106.5 -29.5q-92 0 -155.5 65t-63.5 164q0 98 63.5 163.5t155.5 65.5zM262 26q77 0 127 55t50 136t-50 136t-127 55t-127 -55t-50 -136t50 -136t127 -55z" />
    <glyph glyph-name="r" unicode="r" horiz-adv-x="272" 
d="M250 437v-42h-26q-55 0 -82 -37.5t-27 -122.5v-235h-42v434h40v-79q22 83 115 83q14 0 22 -1z" />
    <glyph glyph-name="s" unicode="s" horiz-adv-x="372" 
d="M179 25q49 0 80 25t31 61q0 35 -24 56.5t-77 39.5l-42 14q-96 32 -96 110q0 51 39.5 83t100.5 32q78 0 133 -46l-21 -32q-50 41 -111 41q-42 0 -70 -20.5t-28 -53.5q0 -52 65 -75l61 -22q60 -22 86.5 -51.5t26.5 -75.5q0 -47 -40 -85t-115 -38q-38 0 -78.5 13.5
t-65.5 35.5l21 32q59 -44 124 -44z" />
    <glyph glyph-name="t" unicode="t" horiz-adv-x="264" 
d="M94 619h43v-185h109v-36h-109v-319q0 -24 16.5 -36t39.5 -12l53 4v-35q-25 -4 -61 -4q-91 0 -91 94v308h-75v36h75v185z" />
    <glyph glyph-name="u" unicode="u" horiz-adv-x="494" 
d="M248 -12q-87 0 -133.5 46.5t-46.5 118.5v281h43v-278q0 -61 37.5 -95t99.5 -34q61 0 98 34t37 95v278h43v-281q0 -72 -46 -118.5t-132 -46.5z" />
    <glyph glyph-name="v" unicode="v" horiz-adv-x="456" 
d="M228 32l148 402h48l-164 -434h-64l-164 434h48z" />
    <glyph glyph-name="w" unicode="w" horiz-adv-x="693" 
d="M500 32l108 402h48l-124 -434h-64l-122 400l-121 -400h-64l-124 434h48l108 -402l123 402h61z" />
    <glyph glyph-name="x" unicode="x" horiz-adv-x="428" 
d="M21 0l167 215l-164 219h51l139 -188l142 188h50l-167 -217l167 -217h-53l-141 186l-139 -186h-52z" />
    <glyph glyph-name="y" unicode="y" horiz-adv-x="454" 
d="M191 -67l25 67h-21l-164 434h48l149 -403l147 403h48l-197 -521q-19 -49 -41 -68t-73 -19h-46v36h46q34 0 48.5 15t30.5 56z" />
    <glyph glyph-name="z" unicode="z" horiz-adv-x="395" 
d="M357 434v-39l-266 -357h268v-38h-321v38l267 357h-267v39h319z" />
    <glyph glyph-name="braceleft" unicode="{" horiz-adv-x="344" 
d="M161 658v-299q0 -23 -11.5 -39t-31.5 -20q20 -4 31.5 -20t11.5 -39v-352h143v-42h-189v432h-80v42h80v379h189v-42h-143z" />
    <glyph glyph-name="bar" unicode="|" horiz-adv-x="216" 
d="M85 -93v853h46v-853h-46z" />
    <glyph glyph-name="braceright" unicode="}" horiz-adv-x="344" 
d="M183 359v299h-143v42h189v-379h80v-42h-80v-432h-189v42h143v352q0 23 11.5 39t31.5 20q-20 4 -31.5 20t-11.5 39z" />
    <glyph glyph-name="asciitilde" unicode="~" horiz-adv-x="480" 
d="M119 407q21 0 127 -32t121 -32q19 0 28.5 10.5t9.5 38.5v12h41v-14q0 -35 -18.5 -61.5t-61.5 -26.5q-20 0 -126.5 32t-121.5 32q-19 0 -28.5 -10.5t-9.5 -38.5v-12h-41v14q0 35 18.5 61.5t61.5 26.5z" />
    <glyph glyph-name="exclamdown" unicode="&#xa1;" horiz-adv-x="213" 
d="M87 211h40l6 -477h-53zM56 390q0 21 14.5 35.5t35.5 14.5t35.5 -14.5t14.5 -35.5t-14.5 -35.5t-35.5 -14.5t-35.5 14.5t-14.5 35.5z" />
    <glyph glyph-name="cent" unicode="&#xa2;" horiz-adv-x="507" 
d="M263 121h-13l-12 -121h-38l12 127q-75 17 -122.5 78t-47.5 145q0 97 62 162t153 67l12 121h38l-12 -124q55 -7 99.5 -40.5t67.5 -84.5l-38 -19q-19 42 -53.5 71t-79.5 36l-38 -380h10q55 0 97.5 30t63.5 79l38 -19q-26 -59 -79.5 -93.5t-119.5 -34.5zM85 350
q0 -68 36 -118.5t95 -66.5l37 376q-74 -4 -121 -58.5t-47 -132.5z" />
    <glyph glyph-name="sterling" unicode="&#xa3;" horiz-adv-x="520" 
d="M60 317v42h63q-33 89 -33 151q0 96 56.5 149t140.5 53q82 0 134.5 -47.5t52.5 -137.5v-6h-47q0 74 -39 113t-102 39q-74 0 -111.5 -45.5t-37.5 -117.5q0 -51 34 -151h189v-42h-175q23 -75 23 -119q0 -83 -54 -156h287v-42h-392v42h63q18 23 35.5 63t17.5 78q0 55 -27 134
h-78z" />
    <glyph glyph-name="currency" unicode="&#xa4;" horiz-adv-x="708" 
d="M87 349q0 97 64 178l-90 86l31 31l86 -86q72 64 176 64q46 0 94 -17t82 -47l86 86l31 -31l-90 -86q64 -81 64 -178t-64 -178l90 -86l-31 -31l-86 86q-34 -30 -82 -47t-94 -17q-104 0 -176 64l-86 -86l-31 31l90 86q-64 81 -64 178zM577 349q0 98 -62.5 165.5t-160.5 67.5
t-160.5 -67.5t-62.5 -165.5t62.5 -165.5t160.5 -67.5t160.5 67.5t62.5 165.5z" />
    <glyph glyph-name="yen" unicode="&#xa5;" horiz-adv-x="592" 
d="M274 292l-68 115h-135v42h112l-144 251h52l205 -365h3l205 365h51l-148 -251h109v-42h-131l-66 -115h197v-42h-197v-250h-45v250h-203v42h203z" />
    <glyph glyph-name="brokenbar" unicode="&#xa6;" horiz-adv-x="218" 
d="M133 410h-48v350h48v-350zM133 -93h-48v350h48v-350z" />
    <glyph glyph-name="section" unicode="&#xa7;" horiz-adv-x="515" 
d="M122 576q0 -71 90 -94l113 -29q77 -20 108 -52t31 -83q0 -45 -33.5 -83t-98.5 -52q107 -29 107 -119q0 -63 -54 -102t-147 -39q-114 0 -182 55l20 32q26 -20 72 -35t86 -15q83 0 122.5 28.5t39.5 72.5q0 41 -27.5 62.5t-94.5 37.5l-75 18q-143 34 -143 141q0 44 33.5 81
t95.5 51q-106 27 -106 121q0 63 52 101t139 38q57 0 106.5 -16.5t77.5 -38.5l-20 -32q-26 20 -71 35.5t-87 15.5q-78 0 -116 -29.5t-38 -70.5zM210 217l64 -15q69 7 108 38.5t39 77.5q0 39 -27.5 61t-81.5 35l-75 18q-64 -8 -101 -37.5t-37 -74.5q0 -41 28 -65.5t83 -37.5z
" />
    <glyph glyph-name="dieresis" unicode="&#xa8;" horiz-adv-x="274" 
d="M62 607q17 0 30 -13t13 -30t-13 -30t-30 -13t-30 13t-13 30t13 30t30 13zM212 607q17 0 30 -13t13 -30t-13 -30t-30 -13t-30 13t-13 30t13 30t30 13z" />
    <glyph glyph-name="copyright" unicode="&#xa9;" horiz-adv-x="830" 
d="M263 350q0 -73 43.5 -120t114.5 -47q50 0 87 25.5t51 68.5h48q-18 -60 -68 -96.5t-116 -36.5q-88 0 -146.5 58t-58.5 148t59 148.5t146 58.5q66 0 116 -36.5t68 -96.5h-48q-14 43 -51 68.5t-87 25.5q-70 0 -114 -47.5t-44 -120.5zM415 712q153 0 258.5 -102.5
t105.5 -259.5q0 -156 -105.5 -259t-258.5 -103t-258.5 103t-105.5 259q0 157 105.5 259.5t258.5 102.5zM415 675q-134 0 -227.5 -92.5t-93.5 -232.5t93.5 -232.5t227.5 -92.5t227.5 92.5t93.5 232.5t-93.5 232.5t-227.5 92.5z" />
    <glyph glyph-name="ordfeminine" unicode="&#xaa;" horiz-adv-x="412" 
d="M187 358q49 0 82 27t33 76v58q-16 -16 -51 -16h-81q-39 0 -58.5 -19.5t-19.5 -50.5q0 -28 23.5 -51.5t71.5 -23.5zM302 576v19q0 39 -25.5 60t-70.5 21q-64 0 -112 -44l-23 31q61 49 139 49q61 0 96.5 -32t35.5 -88v-259h-40v44q-16 -26 -48 -40.5t-70 -14.5
q-60 0 -97 30.5t-37 82.5q0 47 33 75.5t86 28.5h91q42 0 42 37z" />
    <glyph glyph-name="guillemotleft" unicode="&#xab;" horiz-adv-x="416" 
d="M153 87l-103 152l103 153h53l-102 -153l102 -152h-53zM303 87l-103 152l103 153h53l-102 -153l102 -152h-53z" />
    <glyph glyph-name="logicalnot" unicode="&#xac;" horiz-adv-x="480" 
d="M446 253h-44v164h-363v42h407v-206z" />
    <glyph glyph-name="uni00AD" unicode="&#xad;" horiz-adv-x="250" 
 />
    <glyph glyph-name="registered" unicode="&#xae;" horiz-adv-x="830" 
d="M523 444q0 36 -25.5 57.5t-65.5 21.5h-110v-160h110q39 0 65 22.5t26 58.5zM534 147l-103 179h-109v-179h-42v413h151q63 0 99 -32t36 -85q0 -34 -23.5 -66.5t-69.5 -44.5l109 -185h-48zM415 712q153 0 258.5 -102.5t105.5 -259.5q0 -156 -105.5 -259t-258.5 -103
t-258.5 103t-105.5 259q0 157 105.5 259.5t258.5 102.5zM415 675q-134 0 -227.5 -92.5t-93.5 -232.5t93.5 -232.5t227.5 -92.5t227.5 92.5t93.5 232.5t-93.5 232.5t-227.5 92.5z" />
    <glyph glyph-name="macron" unicode="&#xaf;" horiz-adv-x="314" 
d="M32 546v37h250v-37h-250z" />
    <glyph glyph-name="degree" unicode="&#xb0;" horiz-adv-x="380" 
d="M51 572q0 58 40.5 99t98.5 41q57 0 98 -41t41 -99q0 -57 -41 -98t-98 -41q-58 0 -98.5 41t-40.5 98zM93 572q0 -41 28.5 -71t68.5 -30q39 0 68 30t29 71q0 42 -29 72t-68 30q-40 0 -68.5 -30t-28.5 -72z" />
    <glyph glyph-name="plusminus" unicode="&#xb1;" horiz-adv-x="480" 
d="M261 559v-182h182v-42h-182v-183h-44v183h-181v42h181v182h44zM36 0v42h407v-42h-407z" />
    <glyph glyph-name="twosuperior" unicode="&#xb2;" 
d="M99 315v38l113 117q40 42 55.5 71t15.5 59t-19 50t-53 20q-30 0 -50 -17t-20 -46q0 -22 11 -44l-40 -9q-13 28 -13 54q0 42 31.5 70.5t81.5 28.5t82 -30t32 -76q0 -34 -20 -71.5t-76 -94.5l-79 -81h183v-39h-235z" />
    <glyph glyph-name="threesuperior" unicode="&#xb3;" 
d="M209 308q-52 0 -83.5 31.5t-31.5 83.5v14h43v-15q0 -34 18 -55.5t54 -21.5q37 0 55.5 23.5t18.5 62.5q0 36 -22.5 58.5t-59.5 22.5q-25 0 -37 -3v33l108 121h-163v37h207v-42l-103 -113q49 0 81.5 -32.5t32.5 -81.5q0 -54 -32 -88.5t-86 -34.5z" />
    <glyph glyph-name="acute" unicode="&#xb4;" horiz-adv-x="181" 
d="M38 523l51 153h54l-68 -153h-37z" />
    <glyph glyph-name="mu" unicode="&#xb5;" horiz-adv-x="483" 
d="M82 -174v608h43v-278q0 -61 37.5 -95t99.5 -34q61 0 98 34t37 95v278h43v-281q0 -72 -46 -118.5t-132 -46.5q-100 0 -140 68v-230h-40z" />
    <glyph glyph-name="mu" unicode="&#x3bc;" horiz-adv-x="483" 
d="M82 -174v608h43v-278q0 -61 37.5 -95t99.5 -34q61 0 98 34t37 95v278h43v-281q0 -72 -46 -118.5t-132 -46.5q-100 0 -140 68v-230h-40z" />
    <glyph glyph-name="paragraph" unicode="&#xb6;" horiz-adv-x="560" 
d="M206 700h257v-700h-43v653h-167v-653h-44v356q-73 0 -124 50.5t-51 121.5t50.5 121.5t121.5 50.5z" />
    <glyph glyph-name="periodcentered" unicode="&#xb7;" horiz-adv-x="228" 
d="M64 357q0 21 14.5 35.5t35.5 14.5t35.5 -14.5t14.5 -35.5t-14.5 -35.5t-35.5 -14.5t-35.5 14.5t-14.5 35.5z" />
    <glyph glyph-name="cedilla" unicode="&#xb8;" horiz-adv-x="157" 
d="M28 -143l59 146h42l-58 -146h-43z" />
    <glyph glyph-name="onesuperior" unicode="&#xb9;" 
d="M126 663v37h119v-348h76v-37h-195v37h76v311h-76z" />
    <glyph glyph-name="ordmasculine" unicode="&#xba;" horiz-adv-x="468" 
d="M234 712q79 0 133 -56t54 -139q0 -84 -54 -139.5t-133 -55.5t-133 55.5t-54 139.5q0 83 54 139t133 56zM234 359q64 0 105 45t41 113t-41 113.5t-105 45.5t-105.5 -45.5t-41.5 -113.5t41 -113t106 -45z" />
    <glyph glyph-name="guillemotright" unicode="&#xbb;" horiz-adv-x="416" 
d="M216 239l-103 -152h-53l102 152l-102 153h53zM366 239l-103 -152h-53l102 152l-102 153h53z" />
    <glyph glyph-name="onequarter" unicode="&#xbc;" horiz-adv-x="1080" 
d="M125 663v37h119v-348h76v-37h-195v37h76v311h-76zM849 728l29 -26l-673 -723l-29 26zM705 117v35l134 233h65v-233h60v-35h-60v-117h-41v117h-158zM861 356l-116 -204h118v204h-2z" />
    <glyph glyph-name="onehalf" unicode="&#xbd;" horiz-adv-x="1080" 
d="M125 663v37h119v-348h76v-37h-195v37h76v311h-76zM849 728l29 -26l-673 -723l-29 26zM731 0v38l113 117q40 42 55.5 71t15.5 59t-19 50t-53 20q-30 0 -50 -17t-20 -46q0 -22 11 -44l-40 -9q-13 28 -13 54q0 42 31.5 70.5t81.5 28.5t82 -30t32 -76q0 -34 -20 -71.5
t-76 -94.5l-79 -81h183v-39h-235z" />
    <glyph glyph-name="threequarters" unicode="&#xbe;" horiz-adv-x="1080" 
d="M705 117v35l134 233h65v-233h60v-35h-60v-117h-41v117h-158zM861 356l-116 -204h118v204h-2zM239 308q-52 0 -83.5 31.5t-31.5 83.5v14h43v-15q0 -34 18 -55.5t54 -21.5q37 0 55.5 23.5t18.5 62.5q0 36 -22.5 58.5t-59.5 22.5q-25 0 -37 -3v33l108 121h-163v37h207v-42
l-103 -113q49 0 81.5 -32.5t32.5 -81.5q0 -54 -32 -88.5t-86 -34.5zM849 728l29 -26l-673 -723l-29 26z" />
    <glyph glyph-name="questiondown" unicode="&#xbf;" horiz-adv-x="442" 
d="M33 -92q0 67 44 123.5t132 68.5l5 144h37l8 -176l-17 -2q-82 -9 -122.5 -52.5t-40.5 -108.5q0 -69 42 -106.5t99 -37.5q64 0 104 42t40 119v8h45v-4q0 -100 -52.5 -152t-138.5 -52q-75 0 -130 49.5t-55 136.5zM282 390q0 -21 -14.5 -35.5t-35.5 -14.5t-35.5 14.5
t-14.5 35.5t14.5 35.5t35.5 14.5t35.5 -14.5t14.5 -35.5z" />
    <glyph glyph-name="Agrave" unicode="&#xc0;" horiz-adv-x="605" 
d="M439 255h-275l-86 -255h-47l243 700h57l244 -700h-48zM298 656l-122 -361h249l-121 361h-6zM266 930l51 -153h-37l-68 153h54z" />
    <glyph glyph-name="Aacute" unicode="&#xc1;" horiz-adv-x="605" 
d="M439 255h-275l-86 -255h-47l243 700h57l244 -700h-48zM298 656l-122 -361h249l-121 361h-6zM286 777l51 153h54l-68 -153h-37z" />
    <glyph glyph-name="Acircumflex" unicode="&#xc2;" horiz-adv-x="605" 
d="M439 255h-275l-86 -255h-47l243 700h57l244 -700h-48zM298 656l-122 -361h249l-121 361h-6zM335 930l84 -153h-47l-68 119l-67 -119h-47l84 153h61z" />
    <glyph glyph-name="Atilde" unicode="&#xc3;" horiz-adv-x="605" 
d="M439 255h-275l-86 -255h-47l243 700h57l244 -700h-48zM298 656l-122 -361h249l-121 361h-6zM357 828q29 0 29 39v9h41v-10q0 -29 -15 -54t-54 -25q-23 0 -60 24t-47 24q-29 0 -29 -39v-9h-41v11q0 28 15 53t54 25q24 0 60.5 -24t46.5 -24z" />
    <glyph glyph-name="Adieresis" unicode="&#xc4;" horiz-adv-x="605" 
d="M439 255h-275l-86 -255h-47l243 700h57l244 -700h-48zM298 656l-122 -361h249l-121 361h-6zM230 861q17 0 30 -13t13 -30t-13 -30t-30 -13t-30 13t-13 30t13 30t30 13zM380 861q17 0 30 -13t13 -30t-13 -30t-30 -13t-30 13t-13 30t13 30t30 13z" />
    <glyph glyph-name="Aring" unicode="&#xc5;" horiz-adv-x="605" 
d="M439 255h-275l-86 -255h-47l243 700h57l244 -700h-48zM298 656l-122 -361h249l-121 361h-6zM305 745q-41 0 -71 28t-30 70t30 70t71 28t71 -28t30 -70t-30 -70t-71 -28zM305 781q26 0 43 18t17 44t-17 44t-43 18t-43 -18t-17 -44t17 -44t43 -18z" />
    <glyph glyph-name="AE" unicode="&#xc6;" horiz-adv-x="914" 
d="M878 700v-42h-368v-281h259v-42h-259v-293h368v-42h-413v335h-224l-194 -335h-55l416 700h470zM465 658h-36l-164 -281h200v281z" />
    <glyph glyph-name="Ccedilla" unicode="&#xc7;" horiz-adv-x="775" 
d="M336 -143l53 132q-145 5 -243.5 106.5t-98.5 254.5q0 156 103 259t251 103q116 0 207.5 -63.5t125.5 -170.5h-46q-34 91 -109.5 143t-177.5 52q-133 0 -221 -92.5t-88 -230.5t88 -230.5t221 -92.5q102 0 177.5 52t109.5 143h46q-32 -100 -114.5 -162.5t-188.5 -70.5
l-52 -132h-43z" />
    <glyph glyph-name="Egrave" unicode="&#xc8;" horiz-adv-x="576" 
d="M541 700v-42h-403v-281h259v-42h-259v-293h403v-42h-447v700h447zM284 930l51 -153h-37l-68 153h54z" />
    <glyph glyph-name="Eacute" unicode="&#xc9;" horiz-adv-x="576" 
d="M541 700v-42h-403v-281h259v-42h-259v-293h403v-42h-447v700h447zM299 777l51 153h54l-68 -153h-37z" />
    <glyph glyph-name="Ecircumflex" unicode="&#xca;" horiz-adv-x="576" 
d="M541 700v-42h-403v-281h259v-42h-259v-293h403v-42h-447v700h447zM351 930l84 -153h-47l-68 119l-67 -119h-47l84 153h61z" />
    <glyph glyph-name="Edieresis" unicode="&#xcb;" horiz-adv-x="576" 
d="M541 700v-42h-403v-281h259v-42h-259v-293h403v-42h-447v700h447zM246 861q17 0 30 -13t13 -30t-13 -30t-30 -13t-30 13t-13 30t13 30t30 13zM396 861q17 0 30 -13t13 -30t-13 -30t-30 -13t-30 13t-13 30t13 30t30 13z" />
    <glyph glyph-name="Igrave" unicode="&#xcc;" horiz-adv-x="232" 
d="M94 0v700h44v-700h-44zM79 930l51 -153h-37l-68 153h54z" />
    <glyph glyph-name="Iacute" unicode="&#xcd;" horiz-adv-x="232" 
d="M94 0v700h44v-700h-44zM103 777l51 153h54l-68 -153h-37z" />
    <glyph glyph-name="Icircumflex" unicode="&#xce;" horiz-adv-x="232" 
d="M94 0v700h44v-700h-44zM149 930l84 -153h-47l-68 119l-67 -119h-47l84 153h61z" />
    <glyph glyph-name="Idieresis" unicode="&#xcf;" horiz-adv-x="232" 
d="M94 0v700h44v-700h-44zM41 861q17 0 30 -13t13 -30t-13 -30t-30 -13t-30 13t-13 30t13 30t30 13zM191 861q17 0 30 -13t13 -30t-13 -30t-30 -13t-30 13t-13 30t13 30t30 13z" />
    <glyph glyph-name="Eth" unicode="&#xd0;" horiz-adv-x="682" 
d="M-3 336v40h101v324h157q183 0 280.5 -95t97.5 -255t-97.5 -255t-280.5 -95h-157v336h-101zM588 350q0 148 -88 228.5t-232 80.5h-126v-283h236v-40h-236v-295h126q145 0 232.5 80.5t87.5 228.5z" />
    <glyph glyph-name="Ntilde" unicode="&#xd1;" horiz-adv-x="652" 
d="M136 663v-663h-42v700h70l351 -647v647h43v-700h-62zM390 828q29 0 29 39v9h41v-10q0 -29 -15 -54t-54 -25q-23 0 -60 24t-47 24q-29 0 -29 -39v-9h-41v11q0 28 15 53t54 25q24 0 60.5 -24t46.5 -24z" />
    <glyph glyph-name="Ograve" unicode="&#xd2;" horiz-adv-x="800" 
d="M400 -12q-148 0 -250.5 103t-102.5 259t102.5 259t250.5 103t250.5 -103t102.5 -259t-102.5 -259t-250.5 -103zM400 673q-133 0 -220.5 -92.5t-87.5 -230.5t87.5 -230.5t220.5 -92.5t220.5 92.5t87.5 230.5t-87.5 230.5t-220.5 92.5zM367 930l51 -153h-37l-68 153h54z
" />
    <glyph glyph-name="Oacute" unicode="&#xd3;" horiz-adv-x="800" 
d="M400 -12q-148 0 -250.5 103t-102.5 259t102.5 259t250.5 103t250.5 -103t102.5 -259t-102.5 -259t-250.5 -103zM400 673q-133 0 -220.5 -92.5t-87.5 -230.5t87.5 -230.5t220.5 -92.5t220.5 92.5t87.5 230.5t-87.5 230.5t-220.5 92.5zM386 777l51 153h54l-68 -153h-37z
" />
    <glyph glyph-name="Ocircumflex" unicode="&#xd4;" horiz-adv-x="800" 
d="M400 -12q-148 0 -250.5 103t-102.5 259t102.5 259t250.5 103t250.5 -103t102.5 -259t-102.5 -259t-250.5 -103zM400 673q-133 0 -220.5 -92.5t-87.5 -230.5t87.5 -230.5t220.5 -92.5t220.5 92.5t87.5 230.5t-87.5 230.5t-220.5 92.5zM432 930l84 -153h-47l-68 119
l-67 -119h-47l84 153h61z" />
    <glyph glyph-name="Otilde" unicode="&#xd5;" horiz-adv-x="800" 
d="M400 -12q-148 0 -250.5 103t-102.5 259t102.5 259t250.5 103t250.5 -103t102.5 -259t-102.5 -259t-250.5 -103zM400 673q-133 0 -220.5 -92.5t-87.5 -230.5t87.5 -230.5t220.5 -92.5t220.5 92.5t87.5 230.5t-87.5 230.5t-220.5 92.5zM454 828q29 0 29 39v9h41v-10
q0 -29 -15 -54t-54 -25q-23 0 -60 24t-47 24q-29 0 -29 -39v-9h-41v11q0 28 15 53t54 25q24 0 60.5 -24t46.5 -24z" />
    <glyph glyph-name="Odieresis" unicode="&#xd6;" horiz-adv-x="800" 
d="M400 -12q-148 0 -250.5 103t-102.5 259t102.5 259t250.5 103t250.5 -103t102.5 -259t-102.5 -259t-250.5 -103zM400 673q-133 0 -220.5 -92.5t-87.5 -230.5t87.5 -230.5t220.5 -92.5t220.5 92.5t87.5 230.5t-87.5 230.5t-220.5 92.5zM327 861q17 0 30 -13t13 -30t-13 -30
t-30 -13t-30 13t-13 30t13 30t30 13zM477 861q17 0 30 -13t13 -30t-13 -30t-30 -13t-30 13t-13 30t13 30t30 13z" />
    <glyph glyph-name="multiply" unicode="&#xd7;" horiz-adv-x="480" 
d="M84 543l156 -156l157 157l31 -32l-157 -157l157 -156l-31 -31l-157 156l-156 -156l-32 31l157 157l-156 156z" />
    <glyph glyph-name="Oslash" unicode="&#xd8;" horiz-adv-x="798" 
d="M109 -13h-54l92 105q-101 104 -101 258q0 156 102.5 259t250.5 103q125 0 222 -78l68 78h54l-92 -105q101 -104 101 -257q0 -156 -102.5 -259t-250.5 -103q-126 0 -222 77zM399 673q-133 0 -220.5 -92.5t-87.5 -230.5q0 -134 83 -227l420 481q-83 69 -195 69zM707 350
q0 133 -83 226l-420 -481q82 -68 195 -68q133 0 220.5 92.5t87.5 230.5z" />
    <glyph glyph-name="Ugrave" unicode="&#xd9;" horiz-adv-x="622" 
d="M311 -12q-114 0 -169 60.5t-55 164.5v487h44v-490q0 -85 45.5 -134t134.5 -49t135 49t46 134v490h43v-485q0 -104 -55 -165.5t-169 -61.5zM276 930l51 -153h-37l-68 153h54z" />
    <glyph glyph-name="Uacute" unicode="&#xda;" horiz-adv-x="622" 
d="M311 -12q-114 0 -169 60.5t-55 164.5v487h44v-490q0 -85 45.5 -134t134.5 -49t135 49t46 134v490h43v-485q0 -104 -55 -165.5t-169 -61.5zM298 777l51 153h54l-68 -153h-37z" />
    <glyph glyph-name="Ucircumflex" unicode="&#xdb;" horiz-adv-x="622" 
d="M311 -12q-114 0 -169 60.5t-55 164.5v487h44v-490q0 -85 45.5 -134t134.5 -49t135 49t46 134v490h43v-485q0 -104 -55 -165.5t-169 -61.5zM343 930l84 -153h-47l-68 119l-67 -119h-47l84 153h61z" />
    <glyph glyph-name="Udieresis" unicode="&#xdc;" horiz-adv-x="622" 
d="M311 -12q-114 0 -169 60.5t-55 164.5v487h44v-490q0 -85 45.5 -134t134.5 -49t135 49t46 134v490h43v-485q0 -104 -55 -165.5t-169 -61.5zM238 861q17 0 30 -13t13 -30t-13 -30t-30 -13t-30 13t-13 30t13 30t30 13zM388 861q17 0 30 -13t13 -30t-13 -30t-30 -13t-30 13
t-13 30t13 30t30 13z" />
    <glyph glyph-name="Yacute" unicode="&#xdd;" horiz-adv-x="611" 
d="M283 311l-269 389h58l232 -343h4l235 343h55l-270 -389v-311h-45v311zM292 777l51 153h54l-68 -153h-37z" />
    <glyph glyph-name="Thorn" unicode="&#xde;" horiz-adv-x="539" 
d="M503 360q0 -94 -61.5 -153.5t-182.5 -59.5h-121v-147h-44v700h44v-127h121q121 0 182.5 -59.5t61.5 -153.5zM138 532v-344h137q76 0 128.5 45t52.5 127t-52.5 127t-128.5 45h-137z" />
    <glyph glyph-name="germandbls" unicode="&#xdf;" horiz-adv-x="467" 
d="M242 700q78 0 116.5 -46.5t38.5 -101.5q0 -41 -22 -82.5t-44 -76.5t-22 -60q0 -26 20 -53t44 -47t44 -52.5t20 -67.5q0 -60 -40 -92.5t-98 -32.5q-45 0 -91 18l14 36q29 -17 70 -17q43 0 73 23t30 68q0 28 -20 56.5t-44 49t-44 51t-20 60.5q0 35 44 104t44 112
q0 47 -28.5 80t-86.5 33q-53 0 -88.5 -37t-35.5 -109v-516h-43v514q0 52 16 90t42.5 58t54 29t56.5 9z" />
    <glyph glyph-name="agrave" unicode="&#xe0;" horiz-adv-x="447" 
d="M197 25q57 0 97.5 33.5t40.5 91.5v77q-15 -23 -63 -23h-95q-48 0 -72 -23.5t-24 -61.5q0 -35 28 -64.5t88 -29.5zM335 287v20q0 51 -34.5 76t-85.5 25q-74 0 -130 -48l-22 33q22 20 63 36.5t90 16.5q73 0 117.5 -37.5t44.5 -103.5v-305h-43v60q-17 -33 -56.5 -52.5
t-85.5 -19.5q-69 0 -113 35.5t-44 96.5q0 56 38 88t101 32h108q52 0 52 47zM177 676l51 -153h-37l-68 153h54z" />
    <glyph glyph-name="aacute" unicode="&#xe1;" horiz-adv-x="447" 
d="M197 25q57 0 97.5 33.5t40.5 91.5v77q-15 -23 -63 -23h-95q-48 0 -72 -23.5t-24 -61.5q0 -35 28 -64.5t88 -29.5zM335 287v20q0 51 -34.5 76t-85.5 25q-74 0 -130 -48l-22 33q22 20 63 36.5t90 16.5q73 0 117.5 -37.5t44.5 -103.5v-305h-43v60q-17 -33 -56.5 -52.5
t-85.5 -19.5q-69 0 -113 35.5t-44 96.5q0 56 38 88t101 32h108q52 0 52 47zM212 523l51 153h54l-68 -153h-37z" />
    <glyph glyph-name="acircumflex" unicode="&#xe2;" horiz-adv-x="447" 
d="M197 25q57 0 97.5 33.5t40.5 91.5v77q-15 -23 -63 -23h-95q-48 0 -72 -23.5t-24 -61.5q0 -35 28 -64.5t88 -29.5zM335 287v20q0 51 -34.5 76t-85.5 25q-74 0 -130 -48l-22 33q22 20 63 36.5t90 16.5q73 0 117.5 -37.5t44.5 -103.5v-305h-43v60q-17 -33 -56.5 -52.5
t-85.5 -19.5q-69 0 -113 35.5t-44 96.5q0 56 38 88t101 32h108q52 0 52 47zM250 676l84 -153h-47l-68 119l-67 -119h-47l84 153h61z" />
    <glyph glyph-name="atilde" unicode="&#xe3;" horiz-adv-x="447" 
d="M197 25q57 0 97.5 33.5t40.5 91.5v77q-15 -23 -63 -23h-95q-48 0 -72 -23.5t-24 -61.5q0 -35 28 -64.5t88 -29.5zM335 287v20q0 51 -34.5 76t-85.5 25q-74 0 -130 -48l-22 33q22 20 63 36.5t90 16.5q73 0 117.5 -37.5t44.5 -103.5v-305h-43v60q-17 -33 -56.5 -52.5
t-85.5 -19.5q-69 0 -113 35.5t-44 96.5q0 56 38 88t101 32h108q52 0 52 47zM272 574q29 0 29 39v9h41v-10q0 -29 -15 -54t-54 -25q-23 0 -60 24t-47 24q-29 0 -29 -39v-9h-41v11q0 28 15 53t54 25q24 0 60.5 -24t46.5 -24z" />
    <glyph glyph-name="adieresis" unicode="&#xe4;" horiz-adv-x="447" 
d="M197 25q57 0 97.5 33.5t40.5 91.5v77q-15 -23 -63 -23h-95q-48 0 -72 -23.5t-24 -61.5q0 -35 28 -64.5t88 -29.5zM335 287v20q0 51 -34.5 76t-85.5 25q-74 0 -130 -48l-22 33q22 20 63 36.5t90 16.5q73 0 117.5 -37.5t44.5 -103.5v-305h-43v60q-17 -33 -56.5 -52.5
t-85.5 -19.5q-69 0 -113 35.5t-44 96.5q0 56 38 88t101 32h108q52 0 52 47zM145 607q17 0 30 -13t13 -30t-13 -30t-30 -13t-30 13t-13 30t13 30t30 13zM295 607q17 0 30 -13t13 -30t-13 -30t-30 -13t-30 13t-13 30t13 30t30 13z" />
    <glyph glyph-name="aring" unicode="&#xe5;" horiz-adv-x="447" 
d="M197 25q57 0 97.5 33.5t40.5 91.5v77q-15 -23 -63 -23h-95q-48 0 -72 -23.5t-24 -61.5q0 -35 28 -64.5t88 -29.5zM335 287v20q0 51 -34.5 76t-85.5 25q-74 0 -130 -48l-22 33q22 20 63 36.5t90 16.5q73 0 117.5 -37.5t44.5 -103.5v-305h-43v60q-17 -33 -56.5 -52.5
t-85.5 -19.5q-69 0 -113 35.5t-44 96.5q0 56 38 88t101 32h108q52 0 52 47zM219 491q-41 0 -71 28t-30 70t30 70t71 28t71 -28t30 -70t-30 -70t-71 -28zM219 527q26 0 43 18t17 44t-17 44t-43 18t-43 -18t-17 -44t17 -44t43 -18z" />
    <glyph glyph-name="ae" unicode="&#xe6;" horiz-adv-x="770" 
d="M534 408q-70 0 -110 -46.5t-47 -121.5h312q-8 76 -46.5 122t-108.5 46zM199 26q56 0 95.5 35.5t39.5 94.5v71q-15 -23 -63 -23h-95q-48 0 -72 -23.5t-24 -61.5q0 -35 29.5 -64t89.5 -29zM215 446q61 0 102 -28.5t53 -72.5q49 101 164 101q88 0 143 -63t55 -176v-3h-356
q5 -79 47.5 -128.5t115.5 -49.5q92 0 140 96h47q-56 -134 -187 -134q-62 0 -110 32t-66 83q-18 -58 -66 -86.5t-101 -28.5q-70 0 -115.5 36t-45.5 96q0 56 38 88t101 32h108q52 0 52 47v20q0 51 -34.5 76t-85.5 25q-74 0 -130 -48l-22 33q22 20 63 36.5t90 16.5z" />
    <glyph glyph-name="ccedilla" unicode="&#xe7;" horiz-adv-x="500" 
d="M173 -143l54 134q-80 13 -132 75t-52 151q0 98 64 163.5t157 65.5q66 0 119.5 -34.5t79.5 -93.5l-38 -19q-21 49 -63.5 79t-97.5 30q-78 0 -128 -55t-50 -136t50 -136t128 -55q55 0 97.5 30t63.5 79l38 -19q-26 -58 -78.5 -92.5t-116.5 -35.5l-52 -131h-43z" />
    <glyph glyph-name="egrave" unicode="&#xe8;" horiz-adv-x="515" 
d="M480 204h-395q5 -77 53.5 -127.5t123.5 -50.5q52 0 92.5 25.5t62.5 70.5h47q-26 -62 -80 -98t-122 -36q-93 0 -156.5 65t-63.5 164q0 98 64 163.5t156 65.5q91 0 154.5 -64t63.5 -175v-3zM262 408q-72 0 -120.5 -47.5t-55.5 -120.5h351q-8 73 -55.5 120.5t-119.5 47.5z
M226 676l51 -153h-37l-68 153h54z" />
    <glyph glyph-name="eacute" unicode="&#xe9;" horiz-adv-x="515" 
d="M480 204h-395q5 -77 53.5 -127.5t123.5 -50.5q52 0 92.5 25.5t62.5 70.5h47q-26 -62 -80 -98t-122 -36q-93 0 -156.5 65t-63.5 164q0 98 64 163.5t156 65.5q91 0 154.5 -64t63.5 -175v-3zM262 408q-72 0 -120.5 -47.5t-55.5 -120.5h351q-8 73 -55.5 120.5t-119.5 47.5z
M246 523l51 153h54l-68 -153h-37z" />
    <glyph glyph-name="ecircumflex" unicode="&#xea;" horiz-adv-x="515" 
d="M480 204h-395q5 -77 53.5 -127.5t123.5 -50.5q52 0 92.5 25.5t62.5 70.5h47q-26 -62 -80 -98t-122 -36q-93 0 -156.5 65t-63.5 164q0 98 64 163.5t156 65.5q91 0 154.5 -64t63.5 -175v-3zM262 408q-72 0 -120.5 -47.5t-55.5 -120.5h351q-8 73 -55.5 120.5t-119.5 47.5z
M292 676l84 -153h-47l-68 119l-67 -119h-47l84 153h61z" />
    <glyph glyph-name="edieresis" unicode="&#xeb;" horiz-adv-x="515" 
d="M480 204h-395q5 -77 53.5 -127.5t123.5 -50.5q52 0 92.5 25.5t62.5 70.5h47q-26 -62 -80 -98t-122 -36q-93 0 -156.5 65t-63.5 164q0 98 64 163.5t156 65.5q91 0 154.5 -64t63.5 -175v-3zM262 408q-72 0 -120.5 -47.5t-55.5 -120.5h351q-8 73 -55.5 120.5t-119.5 47.5z
M187 607q17 0 30 -13t13 -30t-13 -30t-30 -13t-30 13t-13 30t13 30t30 13zM337 607q17 0 30 -13t13 -30t-13 -30t-30 -13t-30 13t-13 30t13 30t30 13z" />
    <glyph glyph-name="igrave" unicode="&#xec;" horiz-adv-x="203" 
d="M130 434v-434h-43v398h-70v36h113zM74 676l51 -153h-37l-68 153h54z" />
    <glyph glyph-name="iacute" unicode="&#xed;" horiz-adv-x="203" 
d="M130 434v-434h-43v398h-70v36h113zM94 523l51 153h54l-68 -153h-37z" />
    <glyph glyph-name="icircumflex" unicode="&#xee;" horiz-adv-x="203" 
d="M130 434v-434h-43v398h-70v36h113zM137 676l84 -153h-47l-68 119l-67 -119h-47l84 153h61z" />
    <glyph glyph-name="idieresis" unicode="&#xef;" horiz-adv-x="203" 
d="M130 434v-434h-43v398h-70v36h113zM32 607q17 0 30 -13t13 -30t-13 -30t-30 -13t-30 13t-13 30t13 30t30 13zM182 607q17 0 30 -13t13 -30t-13 -30t-30 -13t-30 13t-13 30t13 30t30 13z" />
    <glyph glyph-name="eth" unicode="&#xf0;" horiz-adv-x="526" 
d="M185 492l-20 28l91 63q-56 51 -121 91l57 5q49 -32 96 -74l99 68l19 -27l-93 -65q168 -162 168 -346q0 -110 -62 -178.5t-157 -68.5q-93 0 -156.5 65t-63.5 164q0 98 64 163.5t156 65.5q41 0 84 -19t70 -55l4 4q-43 91 -138 183zM262 26q78 0 128 55t50 136t-50 136
t-128 55t-128 -55t-50 -136t50 -136t128 -55z" />
    <glyph glyph-name="ntilde" unicode="&#xf1;" horiz-adv-x="500" 
d="M116 434v-64q30 35 72.5 55.5t83.5 20.5q70 0 114.5 -40.5t44.5 -107.5v-298h-43v281q0 62 -34.5 94t-85.5 32q-85 0 -152 -79v-328h-43v434h43zM304 574q29 0 29 39v9h41v-10q0 -29 -15 -54t-54 -25q-23 0 -60 24t-47 24q-29 0 -29 -39v-9h-41v11q0 28 15 53t54 25
q24 0 60.5 -24t46.5 -24z" />
    <glyph glyph-name="ograve" unicode="&#xf2;" horiz-adv-x="524" 
d="M262 446q92 0 156 -65.5t64 -163.5q0 -99 -63.5 -164t-156.5 -65t-156.5 65t-63.5 164q0 98 64 163.5t156 65.5zM262 26q78 0 127.5 55t49.5 136t-49.5 136t-127.5 55t-127.5 -55t-49.5 -136t49.5 -136t127.5 -55zM227 676l51 -153h-37l-68 153h54z" />
    <glyph glyph-name="oacute" unicode="&#xf3;" horiz-adv-x="524" 
d="M262 446q92 0 156 -65.5t64 -163.5q0 -99 -63.5 -164t-156.5 -65t-156.5 65t-63.5 164q0 98 64 163.5t156 65.5zM262 26q78 0 127.5 55t49.5 136t-49.5 136t-127.5 55t-127.5 -55t-49.5 -136t49.5 -136t127.5 -55zM248 523l51 153h54l-68 -153h-37z" />
    <glyph glyph-name="ocircumflex" unicode="&#xf4;" horiz-adv-x="524" 
d="M262 446q92 0 156 -65.5t64 -163.5q0 -99 -63.5 -164t-156.5 -65t-156.5 65t-63.5 164q0 98 64 163.5t156 65.5zM262 26q78 0 127.5 55t49.5 136t-49.5 136t-127.5 55t-127.5 -55t-49.5 -136t49.5 -136t127.5 -55zM292 676l84 -153h-47l-68 119l-67 -119h-47l84 153h61z
" />
    <glyph glyph-name="otilde" unicode="&#xf5;" horiz-adv-x="524" 
d="M262 446q92 0 156 -65.5t64 -163.5q0 -99 -63.5 -164t-156.5 -65t-156.5 65t-63.5 164q0 98 64 163.5t156 65.5zM262 26q78 0 127.5 55t49.5 136t-49.5 136t-127.5 55t-127.5 -55t-49.5 -136t49.5 -136t127.5 -55zM314 574q29 0 29 39v9h41v-10q0 -29 -15 -54t-54 -25
q-23 0 -60 24t-47 24q-29 0 -29 -39v-9h-41v11q0 28 15 53t54 25q24 0 60.5 -24t46.5 -24z" />
    <glyph glyph-name="odieresis" unicode="&#xf6;" horiz-adv-x="524" 
d="M262 446q92 0 156 -65.5t64 -163.5q0 -99 -63.5 -164t-156.5 -65t-156.5 65t-63.5 164q0 98 64 163.5t156 65.5zM262 26q78 0 127.5 55t49.5 136t-49.5 136t-127.5 55t-127.5 -55t-49.5 -136t49.5 -136t127.5 -55zM187 607q17 0 30 -13t13 -30t-13 -30t-30 -13t-30 13
t-13 30t13 30t30 13zM337 607q17 0 30 -13t13 -30t-13 -30t-30 -13t-30 13t-13 30t13 30t30 13z" />
    <glyph glyph-name="divide" unicode="&#xf7;" horiz-adv-x="480" 
d="M443 377v-42h-407v42h407zM189 176q0 21 14.5 35.5t35.5 14.5t35.5 -14.5t14.5 -35.5t-14.5 -35.5t-35.5 -14.5t-35.5 14.5t-14.5 35.5zM189 524q0 21 14.5 35.5t35.5 14.5t35.5 -14.5t14.5 -35.5t-14.5 -35.5t-35.5 -14.5t-35.5 14.5t-14.5 35.5z" />
    <glyph glyph-name="oslash" unicode="&#xf8;" horiz-adv-x="523" 
d="M261 446q71 0 130 -43l35 43h48l-56 -67q63 -66 63 -162q0 -99 -63.5 -164t-156.5 -65q-72 0 -130 42l-34 -42h-48l54 66q-62 67 -62 163q0 98 64 163.5t156 65.5zM84 217q0 -79 45 -132l237 288q-46 35 -105 35q-78 0 -127.5 -55t-49.5 -136zM261 26q78 0 127.5 55
t49.5 136q0 76 -45 131l-237 -288q45 -34 105 -34z" />
    <glyph glyph-name="ugrave" unicode="&#xf9;" horiz-adv-x="494" 
d="M248 -12q-87 0 -133.5 46.5t-46.5 118.5v281h43v-278q0 -61 37.5 -95t99.5 -34q61 0 98 34t37 95v278h43v-281q0 -72 -46 -118.5t-132 -46.5zM213 676l51 -153h-37l-68 153h54z" />
    <glyph glyph-name="uacute" unicode="&#xfa;" horiz-adv-x="494" 
d="M248 -12q-87 0 -133.5 46.5t-46.5 118.5v281h43v-278q0 -61 37.5 -95t99.5 -34q61 0 98 34t37 95v278h43v-281q0 -72 -46 -118.5t-132 -46.5zM234 523l51 153h54l-68 -153h-37z" />
    <glyph glyph-name="ucircumflex" unicode="&#xfb;" horiz-adv-x="494" 
d="M248 -12q-87 0 -133.5 46.5t-46.5 118.5v281h43v-278q0 -61 37.5 -95t99.5 -34q61 0 98 34t37 95v278h43v-281q0 -72 -46 -118.5t-132 -46.5zM277 676l84 -153h-47l-68 119l-67 -119h-47l84 153h61z" />
    <glyph glyph-name="udieresis" unicode="&#xfc;" horiz-adv-x="494" 
d="M248 -12q-87 0 -133.5 46.5t-46.5 118.5v281h43v-278q0 -61 37.5 -95t99.5 -34q61 0 98 34t37 95v278h43v-281q0 -72 -46 -118.5t-132 -46.5zM172 607q17 0 30 -13t13 -30t-13 -30t-30 -13t-30 13t-13 30t13 30t30 13zM322 607q17 0 30 -13t13 -30t-13 -30t-30 -13
t-30 13t-13 30t13 30t30 13z" />
    <glyph glyph-name="yacute" unicode="&#xfd;" horiz-adv-x="454" 
d="M191 -67l25 67h-21l-164 434h48l149 -403l147 403h48l-197 -521q-19 -49 -41 -68t-73 -19h-46v36h46q34 0 48.5 15t30.5 56zM214 523l51 153h54l-68 -153h-37z" />
    <glyph glyph-name="thorn" unicode="&#xfe;" horiz-adv-x="555" 
d="M297 446q92 0 154 -65t62 -164t-62 -164t-154 -65q-59 0 -108 31t-72 80v-273h-44v874h44v-366q22 49 71.5 80.5t108.5 31.5zM297 27q76 0 123.5 54t47.5 136t-47.5 136t-123.5 54q-78 0 -129 -54.5t-51 -135.5t51 -135.5t129 -54.5z" />
    <glyph glyph-name="ydieresis" unicode="&#xff;" horiz-adv-x="454" 
d="M191 -67l25 67h-21l-164 434h48l149 -403l147 403h48l-197 -521q-19 -49 -41 -68t-73 -19h-46v36h46q34 0 48.5 15t30.5 56zM152 607q17 0 30 -13t13 -30t-13 -30t-30 -13t-30 13t-13 30t13 30t30 13zM302 607q17 0 30 -13t13 -30t-13 -30t-30 -13t-30 13t-13 30t13 30
t30 13z" />
    <glyph glyph-name="Amacron" unicode="&#x100;" horiz-adv-x="605" 
d="M439 255h-275l-86 -255h-47l243 700h57l244 -700h-48zM298 656l-122 -361h249l-121 361h-6zM177 812v37h250v-37h-250z" />
    <glyph glyph-name="amacron" unicode="&#x101;" horiz-adv-x="447" 
d="M197 25q57 0 97.5 33.5t40.5 91.5v77q-15 -23 -63 -23h-95q-48 0 -72 -23.5t-24 -61.5q0 -35 28 -64.5t88 -29.5zM335 287v20q0 51 -34.5 76t-85.5 25q-74 0 -130 -48l-22 33q22 20 63 36.5t90 16.5q73 0 117.5 -37.5t44.5 -103.5v-305h-43v60q-17 -33 -56.5 -52.5
t-85.5 -19.5q-69 0 -113 35.5t-44 96.5q0 56 38 88t101 32h108q52 0 52 47zM98 546v37h250v-37h-250z" />
    <glyph glyph-name="Abreve" unicode="&#x102;" horiz-adv-x="605" 
d="M439 255h-275l-86 -255h-47l243 700h57l244 -700h-48zM298 656l-122 -361h249l-121 361h-6zM302 820q29 0 46.5 18.5t17.5 55.5v17h38v-16q0 -54 -27.5 -82.5t-74.5 -28.5q-46 0 -73.5 29t-27.5 82v16h38v-17q0 -37 17 -55.5t46 -18.5z" />
    <glyph glyph-name="abreve" unicode="&#x103;" horiz-adv-x="447" 
d="M197 25q57 0 97.5 33.5t40.5 91.5v77q-15 -23 -63 -23h-95q-48 0 -72 -23.5t-24 -61.5q0 -35 28 -64.5t88 -29.5zM335 287v20q0 51 -34.5 76t-85.5 25q-74 0 -130 -48l-22 33q22 20 63 36.5t90 16.5q73 0 117.5 -37.5t44.5 -103.5v-305h-43v60q-17 -33 -56.5 -52.5
t-85.5 -19.5q-69 0 -113 35.5t-44 96.5q0 56 38 88t101 32h108q52 0 52 47zM223 554q29 0 46.5 18.5t17.5 55.5v17h38v-16q0 -54 -27.5 -82.5t-74.5 -28.5q-46 0 -73.5 29t-27.5 82v16h38v-17q0 -37 17 -55.5t46 -18.5z" />
    <glyph glyph-name="Aogonek" unicode="&#x104;" horiz-adv-x="605" 
d="M439 255h-275l-86 -255h-47l243 700h57l244 -700h-13q-65 -51 -65 -98q0 -51 63 -51q33 0 61 13v-32q-33 -15 -71 -15q-45 0 -70.5 23t-25.5 56q0 32 20 60t52 46zM298 656l-122 -361h249l-121 361h-6z" />
    <glyph glyph-name="aogonek" unicode="&#x105;" horiz-adv-x="447" 
d="M335 287v20q0 51 -34.5 76t-85.5 25q-74 0 -130 -48l-22 33q22 20 63 36.5t90 16.5q73 0 117.5 -37.5t44.5 -103.5v-305h-5q-65 -51 -65 -98q0 -51 63 -51q33 0 61 13v-32q-33 -15 -71 -15q-45 0 -70.5 23t-25.5 56q0 31 19.5 59t50.5 46v59q-17 -33 -56.5 -52.5
t-85.5 -19.5q-69 0 -113 35.5t-44 96.5q0 56 38 88t101 32h108q52 0 52 47zM197 25q57 0 97.5 33.5t40.5 91.5v77q-15 -23 -63 -23h-95q-48 0 -72 -23.5t-24 -61.5q0 -35 28 -64.5t88 -29.5z" />
    <glyph glyph-name="Cacute" unicode="&#x106;" horiz-adv-x="774" 
d="M401 27q102 0 177.5 52t109.5 143h46q-34 -107 -125.5 -170.5t-207.5 -63.5q-149 0 -251.5 103t-102.5 259t103 259t251 103q116 0 207.5 -63.5t125.5 -170.5h-46q-34 91 -109.5 143t-177.5 52q-133 0 -221 -92.5t-88 -230.5t88 -230.5t221 -92.5zM390 789l51 153h54
l-68 -153h-37z" />
    <glyph glyph-name="cacute" unicode="&#x107;" horiz-adv-x="498" 
d="M263 -12q-93 0 -157 65t-64 164q0 98 64 163.5t157 65.5q66 0 119.5 -34.5t79.5 -93.5l-38 -19q-21 49 -63.5 79t-97.5 30q-78 0 -128 -55t-50 -136t50 -136t128 -55q55 0 97.5 30t63.5 79l38 -19q-26 -59 -79.5 -93.5t-119.5 -34.5zM248 523l51 153h54l-68 -153h-37z
" />
    <glyph glyph-name="Ccircumflex" unicode="&#x108;" horiz-adv-x="774" 
d="M401 27q102 0 177.5 52t109.5 143h46q-34 -107 -125.5 -170.5t-207.5 -63.5q-149 0 -251.5 103t-102.5 259t103 259t251 103q116 0 207.5 -63.5t125.5 -170.5h-46q-34 91 -109.5 143t-177.5 52q-133 0 -221 -92.5t-88 -230.5t88 -230.5t221 -92.5zM418 942l84 -153h-47
l-68 119l-67 -119h-47l84 153h61z" />
    <glyph glyph-name="ccircumflex" unicode="&#x109;" horiz-adv-x="498" 
d="M263 -12q-93 0 -157 65t-64 164q0 98 64 163.5t157 65.5q66 0 119.5 -34.5t79.5 -93.5l-38 -19q-21 49 -63.5 79t-97.5 30q-78 0 -128 -55t-50 -136t50 -136t128 -55q55 0 97.5 30t63.5 79l38 -19q-26 -59 -79.5 -93.5t-119.5 -34.5zM279 676l84 -153h-47l-68 119
l-67 -119h-47l84 153h61z" />
    <glyph glyph-name="Cdotaccent" unicode="&#x10a;" horiz-adv-x="774" 
d="M401 27q102 0 177.5 52t109.5 143h46q-34 -107 -125.5 -170.5t-207.5 -63.5q-149 0 -251.5 103t-102.5 259t103 259t251 103q116 0 207.5 -63.5t125.5 -170.5h-46q-34 91 -109.5 143t-177.5 52q-133 0 -221 -92.5t-88 -230.5t88 -230.5t221 -92.5zM339 849
q0 19 14.5 33.5t33.5 14.5t33.5 -14.5t14.5 -33.5t-14.5 -33.5t-33.5 -14.5t-33.5 14.5t-14.5 33.5z" />
    <glyph glyph-name="cdotaccent" unicode="&#x10b;" horiz-adv-x="498" 
d="M263 -12q-93 0 -157 65t-64 164q0 98 64 163.5t157 65.5q66 0 119.5 -34.5t79.5 -93.5l-38 -19q-21 49 -63.5 79t-97.5 30q-78 0 -128 -55t-50 -136t50 -136t128 -55q55 0 97.5 30t63.5 79l38 -19q-26 -59 -79.5 -93.5t-119.5 -34.5zM201 583q0 19 14.5 33.5t33.5 14.5
t33.5 -14.5t14.5 -33.5t-14.5 -33.5t-33.5 -14.5t-33.5 14.5t-14.5 33.5z" />
    <glyph glyph-name="Ccaron" unicode="&#x10c;" horiz-adv-x="774" 
d="M401 27q102 0 177.5 52t109.5 143h46q-34 -107 -125.5 -170.5t-207.5 -63.5q-149 0 -251.5 103t-102.5 259t103 259t251 103q116 0 207.5 -63.5t125.5 -170.5h-46q-34 91 -109.5 143t-177.5 52q-133 0 -221 -92.5t-88 -230.5t88 -230.5t221 -92.5zM502 942l-84 -153h-61
l-84 153h47l67 -119l68 119h47z" />
    <glyph glyph-name="ccaron" unicode="&#x10d;" horiz-adv-x="498" 
d="M263 -12q-93 0 -157 65t-64 164q0 98 64 163.5t157 65.5q66 0 119.5 -34.5t79.5 -93.5l-38 -19q-21 49 -63.5 79t-97.5 30q-78 0 -128 -55t-50 -136t50 -136t128 -55q55 0 97.5 30t63.5 79l38 -19q-26 -59 -79.5 -93.5t-119.5 -34.5zM363 676l-84 -153h-61l-84 153h47
l67 -119l68 119h47z" />
    <glyph glyph-name="Dcaron" unicode="&#x10e;" horiz-adv-x="678" 
d="M629 350q0 -160 -97.5 -255t-280.5 -95h-157v700h157q183 0 280.5 -95t97.5 -255zM584 350q0 148 -88 228.5t-232 80.5h-126v-618h126q145 0 232.5 80.5t87.5 228.5zM453 942l-84 -153h-61l-84 153h47l67 -119l68 119h47z" />
    <glyph glyph-name="dcaron" unicode="&#x10f;" horiz-adv-x="554" 
d="M261 446q59 0 107 -30t70 -78v362h43v-700h-43v95q-23 -48 -70.5 -77.5t-106.5 -29.5q-92 0 -155.5 65t-63.5 164q0 98 63.5 163.5t155.5 65.5zM262 26q77 0 127 55t50 136t-50 136t-127 55t-127 -55t-50 -136t50 -136t127 -55zM548 662q0 20 14.5 35t35.5 15
q20 0 34.5 -14.5t14.5 -35.5q0 -17 -8 -33l-56 -102h-41l39 86q-15 5 -24 18t-9 31z" />
    <glyph glyph-name="Dcroat" unicode="&#x110;" horiz-adv-x="682" 
d="M-3 335v42h101v323h157q183 0 280.5 -95t97.5 -255t-97.5 -255t-280.5 -95h-157v335h-101zM588 350q0 148 -88 228.5t-232 80.5h-126v-282h236v-42h-236v-294h126q145 0 232.5 80.5t87.5 228.5z" />
    <glyph glyph-name="dcroat" unicode="&#x111;" horiz-adv-x="554" 
d="M259 564v36h179v100h43v-100h73v-36h-73v-564h-43v95q-23 -48 -70.5 -77.5t-106.5 -29.5q-92 0 -155.5 65t-63.5 164q0 98 63.5 163.5t155.5 65.5q59 0 107 -30t70 -78v226h-179zM262 26q77 0 127 55t50 136t-50 136t-127 55t-127 -55t-50 -136t50 -136t127 -55z" />
    <glyph glyph-name="Emacron" unicode="&#x112;" horiz-adv-x="576" 
d="M541 700v-42h-403v-281h259v-42h-259v-293h403v-42h-447v700h447zM191 812v37h250v-37h-250z" />
    <glyph glyph-name="emacron" unicode="&#x113;" horiz-adv-x="515" 
d="M480 204h-395q5 -77 53.5 -127.5t123.5 -50.5q52 0 92.5 25.5t62.5 70.5h47q-26 -62 -80 -98t-122 -36q-93 0 -156.5 65t-63.5 164q0 98 64 163.5t156 65.5q91 0 154.5 -64t63.5 -175v-3zM262 408q-72 0 -120.5 -47.5t-55.5 -120.5h351q-8 73 -55.5 120.5t-119.5 47.5z
M132 546v37h250v-37h-250z" />
    <glyph glyph-name="Ebreve" unicode="&#x114;" horiz-adv-x="576" 
d="M541 700v-42h-403v-281h259v-42h-259v-293h403v-42h-447v700h447zM287 820q29 0 46.5 18.5t17.5 55.5v17h38v-16q0 -54 -27.5 -82.5t-74.5 -28.5q-46 0 -73.5 29t-27.5 82v16h38v-17q0 -37 17 -55.5t46 -18.5z" />
    <glyph glyph-name="ebreve" unicode="&#x115;" horiz-adv-x="515" 
d="M480 204h-395q5 -77 53.5 -127.5t123.5 -50.5q52 0 92.5 25.5t62.5 70.5h47q-26 -62 -80 -98t-122 -36q-93 0 -156.5 65t-63.5 164q0 98 64 163.5t156 65.5q91 0 154.5 -64t63.5 -175v-3zM262 408q-72 0 -120.5 -47.5t-55.5 -120.5h351q-8 73 -55.5 120.5t-119.5 47.5z
M256 554q29 0 46.5 18.5t17.5 55.5v17h38v-16q0 -54 -27.5 -82.5t-74.5 -28.5q-46 0 -73.5 29t-27.5 82v16h38v-17q0 -37 17 -55.5t46 -18.5z" />
    <glyph glyph-name="Edotaccent" unicode="&#x116;" horiz-adv-x="576" 
d="M541 700v-42h-403v-281h259v-42h-259v-293h403v-42h-447v700h447zM270 849q0 19 14 33.5t34 14.5t34 -14.5t14 -33.5t-14 -33.5t-34 -14.5t-34 14.5t-14 33.5z" />
    <glyph glyph-name="edotaccent" unicode="&#x117;" horiz-adv-x="515" 
d="M480 204h-395q5 -77 53.5 -127.5t123.5 -50.5q52 0 92.5 25.5t62.5 70.5h47q-26 -62 -80 -98t-122 -36q-93 0 -156.5 65t-63.5 164q0 98 64 163.5t156 65.5q91 0 154.5 -64t63.5 -175v-3zM262 408q-72 0 -120.5 -47.5t-55.5 -120.5h351q-8 73 -55.5 120.5t-119.5 47.5z
M209 583q0 19 14.5 33.5t33.5 14.5t33.5 -14.5t14.5 -33.5t-14.5 -33.5t-33.5 -14.5t-33.5 14.5t-14.5 33.5z" />
    <glyph glyph-name="Eogonek" unicode="&#x118;" horiz-adv-x="576" 
d="M541 700v-42h-403v-281h259v-42h-259v-293h403v-42h-59q-65 -51 -65 -98q0 -51 63 -51q33 0 61 13v-32q-33 -15 -71 -15q-45 0 -70.5 23t-25.5 56q0 31 19 58.5t49 45.5h-348v700h447z" />
    <glyph glyph-name="eogonek" unicode="&#x119;" horiz-adv-x="516" 
d="M481 204h-395q5 -77 53.5 -127.5t123.5 -50.5q52 0 92.5 25.5t62.5 70.5h47q-24 -57 -72.5 -92.5t-110.5 -40.5q-52 -45 -52 -87q0 -51 63 -51q33 0 61 13v-32q-33 -15 -71 -15q-45 0 -70.5 23t-25.5 56q0 54 52 93q-84 8 -140 72t-56 156q0 98 64 163.5t156 65.5
q91 0 154.5 -64t63.5 -175v-3zM263 408q-72 0 -120.5 -47.5t-55.5 -120.5h351q-8 73 -55.5 120.5t-119.5 47.5z" />
    <glyph glyph-name="Ecaron" unicode="&#x11a;" horiz-adv-x="576" 
d="M541 700v-42h-403v-281h259v-42h-259v-293h403v-42h-447v700h447zM402 942l-84 -153h-61l-84 153h47l67 -119l68 119h47z" />
    <glyph glyph-name="ecaron" unicode="&#x11b;" horiz-adv-x="515" 
d="M480 204h-395q5 -77 53.5 -127.5t123.5 -50.5q52 0 92.5 25.5t62.5 70.5h47q-26 -62 -80 -98t-122 -36q-93 0 -156.5 65t-63.5 164q0 98 64 163.5t156 65.5q91 0 154.5 -64t63.5 -175v-3zM262 408q-72 0 -120.5 -47.5t-55.5 -120.5h351q-8 73 -55.5 120.5t-119.5 47.5z
M371 676l-84 -153h-61l-84 153h47l67 -119l68 119h47z" />
    <glyph glyph-name="Gcircumflex" unicode="&#x11c;" horiz-adv-x="779" 
d="M399 27q64 0 115.5 21t82.5 56t48 75t19 81h-212v42h256v-302h-44v139q-36 -72 -106.5 -111.5t-165.5 -39.5q-147 0 -246 102.5t-99 259.5q0 156 103 259t251 103q116 0 208 -63.5t125 -170.5h-45q-33 91 -109 143t-179 52q-133 0 -221 -92.5t-88 -230.5q0 -139 87 -231
t220 -92zM420 942l84 -153h-47l-68 119l-67 -119h-47l84 153h61z" />
    <glyph glyph-name="gcircumflex" unicode="&#x11d;" horiz-adv-x="553" 
d="M480 434v-485q0 -123 -123 -123h-145v36h141q85 0 85 71v162q-23 -48 -70.5 -77.5t-106.5 -29.5q-92 0 -155.5 65t-63.5 164q0 98 63.5 163.5t155.5 65.5q59 0 107 -30t70 -78v96h42zM261 26q77 0 127 55t50 136t-50 136t-127 55t-127 -55t-50 -136t50 -136t127 -55z
M307 676l84 -153h-47l-68 119l-67 -119h-47l84 153h61z" />
    <glyph glyph-name="Gbreve" unicode="&#x11e;" horiz-adv-x="779" 
d="M399 27q64 0 115.5 21t82.5 56t48 75t19 81h-212v42h256v-302h-44v139q-36 -72 -106.5 -111.5t-165.5 -39.5q-147 0 -246 102.5t-99 259.5q0 156 103 259t251 103q116 0 208 -63.5t125 -170.5h-45q-33 91 -109 143t-179 52q-133 0 -221 -92.5t-88 -230.5q0 -139 87 -231
t220 -92zM389 820q29 0 46.5 18.5t17.5 55.5v17h38v-16q0 -54 -27.5 -82.5t-74.5 -28.5q-46 0 -73.5 29t-27.5 82v16h38v-17q0 -37 17 -55.5t46 -18.5z" />
    <glyph glyph-name="gbreve" unicode="&#x11f;" horiz-adv-x="553" 
d="M480 434v-485q0 -123 -123 -123h-145v36h141q85 0 85 71v162q-23 -48 -70.5 -77.5t-106.5 -29.5q-92 0 -155.5 65t-63.5 164q0 98 63.5 163.5t155.5 65.5q59 0 107 -30t70 -78v96h42zM261 26q77 0 127 55t50 136t-50 136t-127 55t-127 -55t-50 -136t50 -136t127 -55z
M276 554q29 0 46.5 18.5t17.5 55.5v17h38v-16q0 -54 -27.5 -82.5t-74.5 -28.5q-46 0 -73.5 29t-27.5 82v16h38v-17q0 -37 17 -55.5t46 -18.5z" />
    <glyph glyph-name="Gdotaccent" unicode="&#x120;" horiz-adv-x="779" 
d="M399 27q64 0 115.5 21t82.5 56t48 75t19 81h-212v42h256v-302h-44v139q-36 -72 -106.5 -111.5t-165.5 -39.5q-147 0 -246 102.5t-99 259.5q0 156 103 259t251 103q116 0 208 -63.5t125 -170.5h-45q-33 91 -109 143t-179 52q-133 0 -221 -92.5t-88 -230.5q0 -139 87 -231
t220 -92zM341 849q0 19 14.5 33.5t33.5 14.5t33.5 -14.5t14.5 -33.5t-14.5 -33.5t-33.5 -14.5t-33.5 14.5t-14.5 33.5z" />
    <glyph glyph-name="gdotaccent" unicode="&#x121;" horiz-adv-x="553" 
d="M480 434v-485q0 -123 -123 -123h-145v36h141q85 0 85 71v162q-23 -48 -70.5 -77.5t-106.5 -29.5q-92 0 -155.5 65t-63.5 164q0 98 63.5 163.5t155.5 65.5q59 0 107 -30t70 -78v96h42zM261 26q77 0 127 55t50 136t-50 136t-127 55t-127 -55t-50 -136t50 -136t127 -55z
M229 583q0 19 14.5 33.5t33.5 14.5t33.5 -14.5t14.5 -33.5t-14.5 -33.5t-33.5 -14.5t-33.5 14.5t-14.5 33.5z" />
    <glyph glyph-name="Gcommaaccent" unicode="&#x122;" horiz-adv-x="779" 
d="M399 27q64 0 115.5 21t82.5 56t48 75t19 81h-212v42h256v-302h-44v139q-36 -72 -106.5 -111.5t-165.5 -39.5q-147 0 -246 102.5t-99 259.5q0 156 103 259t251 103q116 0 208 -63.5t125 -170.5h-45q-33 91 -109 143t-179 52q-133 0 -221 -92.5t-88 -230.5q0 -139 87 -231
t220 -92zM345 -127q0 20 14.5 35t35.5 15q20 0 35 -14.5t15 -35.5q0 -16 -9 -34l-56 -101h-41l39 88q-33 10 -33 47z" />
    <glyph glyph-name="gcommaaccent" unicode="&#x123;" horiz-adv-x="553" 
d="M480 434v-485q0 -123 -123 -123h-145v36h141q85 0 85 71v162q-23 -48 -70.5 -77.5t-106.5 -29.5q-92 0 -155.5 65t-63.5 164q0 98 63.5 163.5t155.5 65.5q59 0 107 -30t70 -78v96h42zM261 26q77 0 127 55t50 136t-50 136t-127 55t-127 -55t-50 -136t50 -136t127 -55z
M324 565q0 -20 -14.5 -35t-35.5 -15q-20 0 -34.5 14.5t-14.5 35.5q0 17 8 33l56 102h41l-39 -86q15 -5 24 -18t9 -31z" />
    <glyph glyph-name="Hcircumflex" unicode="&#x124;" horiz-adv-x="652" 
d="M558 0h-44v335h-376v-335h-44v700h44v-323h376v323h44v-700zM356 942l84 -153h-47l-68 119l-67 -119h-47l84 153h61z" />
    <glyph glyph-name="hcircumflex" unicode="&#x125;" horiz-adv-x="500" 
d="M116 370q30 35 72.5 55.5t83.5 20.5q70 0 114.5 -40.5t44.5 -107.5v-298h-43v281q0 62 -34.5 94t-85.5 32q-85 0 -152 -79v-328h-43v700h43v-330zM294 942l84 -153h-47l-68 119l-67 -119h-47l84 153h61z" />
    <glyph glyph-name="Hbar" unicode="&#x126;" horiz-adv-x="658" 
d="M3 508v42h94v150h44v-150h376v150h44v-150h94v-42h-94v-508h-44v335h-376v-335h-44v508h-94zM141 377h376v131h-376v-131z" />
    <glyph glyph-name="hbar" unicode="&#x127;" horiz-adv-x="500" 
d="M0 564v36h73v100h43v-100h179v-36h-179v-194q30 35 72.5 55.5t83.5 20.5q70 0 114.5 -40.5t44.5 -107.5v-298h-43v281q0 62 -34.5 94t-85.5 32q-85 0 -152 -79v-328h-43v564h-73z" />
    <glyph glyph-name="Itilde" unicode="&#x128;" horiz-adv-x="232" 
d="M94 0v700h44v-700h-44zM169 840q29 0 29 39v9h41v-10q0 -29 -15 -54t-54 -25q-23 0 -60 24t-47 24q-29 0 -29 -39v-9h-41v11q0 28 15 53t54 25q24 0 60.5 -24t46.5 -24z" />
    <glyph glyph-name="itilde" unicode="&#x129;" horiz-adv-x="203" 
d="M130 434v-434h-43v398h-70v36h113zM154 574q29 0 29 39v9h41v-10q0 -29 -15 -54t-54 -25q-23 0 -60 24t-47 24q-29 0 -29 -39v-9h-41v11q0 28 15 53t54 25q24 0 60.5 -24t46.5 -24z" />
    <glyph glyph-name="Imacron" unicode="&#x12a;" horiz-adv-x="232" 
d="M94 0v700h44v-700h-44zM-9 812v37h250v-37h-250z" />
    <glyph glyph-name="imacron" unicode="&#x12b;" horiz-adv-x="203" 
d="M130 434v-434h-43v398h-70v36h113zM-23 546v37h250v-37h-250z" />
    <glyph glyph-name="Ibreve" unicode="&#x12c;" horiz-adv-x="232" 
d="M94 0v700h44v-700h-44zM116 820q29 0 46.5 18.5t17.5 55.5v17h38v-16q0 -54 -27.5 -82.5t-74.5 -28.5q-46 0 -73.5 29t-27.5 82v16h38v-17q0 -37 17 -55.5t46 -18.5z" />
    <glyph glyph-name="ibreve" unicode="&#x12d;" horiz-adv-x="203" 
d="M130 434v-434h-43v398h-70v36h113zM101 554q29 0 46.5 18.5t17.5 55.5v17h38v-16q0 -54 -27.5 -82.5t-74.5 -28.5q-46 0 -73.5 29t-27.5 82v16h38v-17q0 -37 17 -55.5t46 -18.5z" />
    <glyph glyph-name="Iogonek" unicode="&#x12e;" horiz-adv-x="233" 
d="M94 0v700h44v-692l6 -4v-2q-68 -54 -68 -100q0 -51 63 -51q33 0 61 13v-32q-33 -15 -71 -15q-45 0 -70.5 23t-25.5 56q0 31 19 58.5t49 45.5h-7z" />
    <glyph glyph-name="iogonek" unicode="&#x12f;" horiz-adv-x="203" 
d="M130 434v-434h-4q-65 -51 -65 -98q0 -51 63 -51q33 0 61 13v-32q-33 -15 -71 -15q-45 0 -70.5 23t-25.5 56q0 64 69 104v398h-70v36h113zM61 591q0 18 13 31t31 13t31 -13t13 -31t-13 -31t-31 -13t-31 13t-13 31z" />
    <glyph glyph-name="Idotaccent" unicode="&#x130;" horiz-adv-x="232" 
d="M94 0v700h44v-700h-44zM68 849q0 19 14 33.5t34 14.5t34 -14.5t14 -33.5t-14 -33.5t-34 -14.5t-34 14.5t-14 33.5z" />
    <glyph glyph-name="dotlessi" unicode="&#x131;" horiz-adv-x="203" 
d="M130 434v-434h-43v398h-70v36h113z" />
    <glyph glyph-name="IJ" unicode="&#x132;" horiz-adv-x="800" 
d="M94 0v700h44v-700h-44zM713 700v-487q0 -104 -55 -164.5t-169 -60.5t-169 60.5t-55 164.5v59h44v-62q0 -85 45.5 -134t134.5 -49t134.5 49t45.5 134v490h44z" />
    <glyph glyph-name="ij" unicode="&#x133;" horiz-adv-x="406" 
d="M130 434v-434h-43v398h-70v36h113zM61 591q0 18 13 31t31 13t31 -13t13 -31t-13 -31t-31 -13t-31 13t-13 31zM290 -92v490h-70v36h113v-525q0 -83 -88 -83h-45v36h38q52 0 52 46zM264 591q0 18 13 31t31 13t31 -13t13 -31t-13 -31t-31 -13t-31 13t-13 31z" />
    <glyph glyph-name="Jcircumflex" unicode="&#x134;" horiz-adv-x="568" 
d="M481 700v-487q0 -104 -55 -164.5t-169 -60.5t-169 60.5t-55 164.5v59h44v-62q0 -85 45.5 -134t134.5 -49t134.5 49t45.5 134v490h44zM292 942l84 -153h-47l-68 119l-67 -119h-47l84 153h61z" />
    <glyph glyph-name="jcircumflex" unicode="&#x135;" horiz-adv-x="203" 
d="M87 -92v490h-70v36h113v-525q0 -83 -88 -83h-45v36h38q52 0 52 46zM132 676l84 -153h-47l-68 119l-67 -119h-47l84 153h61z" />
    <glyph glyph-name="Kcommaaccent" unicode="&#x136;" horiz-adv-x="573" 
d="M138 700v-311h21l349 311h62l-376 -330l369 -370h-59l-345 347h-21v-347h-44v700h44zM241 -127q0 20 14.5 35t35.5 15q20 0 35 -14.5t15 -35.5q0 -16 -9 -34l-56 -101h-41l39 88q-33 10 -33 47z" />
    <glyph glyph-name="kcommaaccent" unicode="&#x137;" horiz-adv-x="443" 
d="M116 700v-440h71l171 174h58l-193 -190l206 -244h-56l-187 224h-70v-224h-43v700h43zM176 -127q0 20 14.5 35t35.5 15q20 0 35 -14.5t15 -35.5q0 -16 -9 -34l-56 -101h-41l39 88q-33 10 -33 47z" />
    <glyph glyph-name="kgreenlandic" unicode="&#x138;" horiz-adv-x="443" 
d="M116 434v-194h71l175 194h54l-194 -212l207 -222h-59l-188 204h-66v-204h-43v434h43z" />
    <glyph glyph-name="Lacute" unicode="&#x139;" horiz-adv-x="467" 
d="M451 0h-357v700h44v-658h313v-42zM217 789l51 153h54l-68 -153h-37z" />
    <glyph glyph-name="lacute" unicode="&#x13a;" horiz-adv-x="189" 
d="M116 700v-700h-43v700h43zM79 789l51 153h54l-68 -153h-37z" />
    <glyph glyph-name="Lcommaaccent" unicode="&#x13b;" horiz-adv-x="467" 
d="M451 0h-357v700h44v-658h313v-42zM210 -127q0 20 14.5 35t35.5 15q20 0 35 -14.5t15 -35.5q0 -16 -9 -34l-56 -101h-41l39 88q-33 10 -33 47z" />
    <glyph glyph-name="lcommaaccent" unicode="&#x13c;" horiz-adv-x="189" 
d="M116 700v-700h-43v700h43zM46 -127q0 20 14.5 35t35.5 15q20 0 35 -14.5t15 -35.5q0 -16 -9 -34l-56 -101h-41l39 88q-33 10 -33 47z" />
    <glyph glyph-name="Lcaron" unicode="&#x13d;" horiz-adv-x="467" 
d="M451 0h-357v700h44v-658h313v-42zM294 662q0 20 14.5 35t35.5 15q20 0 34.5 -14.5t14.5 -35.5q0 -17 -8 -33l-56 -102h-41l39 86q-15 5 -24 18t-9 31z" />
    <glyph glyph-name="lcaron" unicode="&#x13e;" horiz-adv-x="189" 
d="M116 700v-700h-43v700h43zM182 662q0 20 14.5 35t35.5 15q20 0 34.5 -14.5t14.5 -35.5q0 -17 -8 -33l-56 -102h-41l39 86q-15 5 -24 18t-9 31z" />
    <glyph glyph-name="Ldot" unicode="&#x13f;" horiz-adv-x="467" 
d="M451 0h-357v700h44v-658h313v-42zM285 354q0 21 14.5 35.5t35.5 14.5t35.5 -14.5t14.5 -35.5t-14.5 -35.5t-35.5 -14.5t-35.5 14.5t-14.5 35.5z" />
    <glyph glyph-name="ldot" unicode="&#x140;" horiz-adv-x="304" 
d="M116 700v-700h-43v700h43zM196 357q0 21 14.5 35.5t35.5 14.5t35.5 -14.5t14.5 -35.5t-14.5 -35.5t-35.5 -14.5t-35.5 14.5t-14.5 35.5z" />
    <glyph glyph-name="Lslash" unicode="&#x141;" horiz-adv-x="474" 
d="M38 254v40l63 22v384h44v-368l234 85v-41l-234 -84v-250h313v-42h-357v276z" />
    <glyph glyph-name="lslash" unicode="&#x142;" horiz-adv-x="205" 
d="M125 700v-327l65 38v-43l-65 -39v-329h-43v303l-65 -38v44l65 38v353h43z" />
    <glyph glyph-name="Nacute" unicode="&#x143;" horiz-adv-x="652" 
d="M136 663v-663h-42v700h70l351 -647v647h43v-700h-62zM307 789l51 153h54l-68 -153h-37z" />
    <glyph glyph-name="nacute" unicode="&#x144;" horiz-adv-x="500" 
d="M116 434v-64q30 35 72.5 55.5t83.5 20.5q70 0 114.5 -40.5t44.5 -107.5v-298h-43v281q0 62 -34.5 94t-85.5 32q-85 0 -152 -79v-328h-43v434h43zM237 523l51 153h54l-68 -153h-37z" />
    <glyph glyph-name="Ncommaaccent" unicode="&#x145;" horiz-adv-x="652" 
d="M136 663v-663h-42v700h70l351 -647v647h43v-700h-62zM282 -127q0 20 14.5 35t35.5 15q20 0 35 -14.5t15 -35.5q0 -16 -9 -34l-56 -101h-41l39 88q-33 10 -33 47z" />
    <glyph glyph-name="ncommaaccent" unicode="&#x146;" horiz-adv-x="500" 
d="M116 434v-64q30 35 72.5 55.5t83.5 20.5q70 0 114.5 -40.5t44.5 -107.5v-298h-43v281q0 62 -34.5 94t-85.5 32q-85 0 -152 -79v-328h-43v434h43zM198 -127q0 20 14.5 35t35.5 15q20 0 35 -14.5t15 -35.5q0 -16 -9 -34l-56 -101h-41l39 88q-33 10 -33 47z" />
    <glyph glyph-name="Ncaron" unicode="&#x147;" horiz-adv-x="652" 
d="M136 663v-663h-42v700h70l351 -647v647h43v-700h-62zM440 942l-84 -153h-61l-84 153h47l67 -119l68 119h47z" />
    <glyph glyph-name="ncaron" unicode="&#x148;" horiz-adv-x="500" 
d="M116 434v-64q30 35 72.5 55.5t83.5 20.5q70 0 114.5 -40.5t44.5 -107.5v-298h-43v281q0 62 -34.5 94t-85.5 32q-85 0 -152 -79v-328h-43v434h43zM364 676l-84 -153h-61l-84 153h47l67 -119l68 119h47z" />
    <glyph glyph-name="napostrophe" unicode="&#x149;" horiz-adv-x="500" 
d="M116 434v-64q30 35 72.5 55.5t83.5 20.5q70 0 114.5 -40.5t44.5 -107.5v-298h-43v281q0 62 -34.5 94t-85.5 32q-85 0 -152 -79v-328h-43v434h43zM66 662q0 20 14.5 35t35.5 15q20 0 34.5 -14.5t14.5 -35.5q0 -17 -8 -33l-56 -102h-41l39 86q-15 5 -24 18t-9 31z" />
    <glyph glyph-name="Eng" unicode="&#x14a;" horiz-adv-x="652" 
d="M136 663v-663h-42v700h70l351 -647v647h43v-744q0 -66 -29 -98t-100 -32h-34v40h31q46 0 67 20.5t21 65.5v48h-18z" />
    <glyph glyph-name="eng" unicode="&#x14b;" horiz-adv-x="500" 
d="M116 434v-64q30 35 72.5 55.5t83.5 20.5q70 0 114.5 -40.5t44.5 -107.5v-389q0 -83 -88 -83h-45v36h38q52 0 52 46v373q0 62 -34.5 94t-85.5 32q-85 0 -152 -79v-328h-43v434h43z" />
    <glyph glyph-name="Omacron" unicode="&#x14c;" horiz-adv-x="800" 
d="M400 -12q-148 0 -250.5 103t-102.5 259t102.5 259t250.5 103t250.5 -103t102.5 -259t-102.5 -259t-250.5 -103zM400 673q-133 0 -220.5 -92.5t-87.5 -230.5t87.5 -230.5t220.5 -92.5t220.5 92.5t87.5 230.5t-87.5 230.5t-220.5 92.5zM275 812v37h250v-37h-250z" />
    <glyph glyph-name="omacron" unicode="&#x14d;" horiz-adv-x="524" 
d="M262 446q92 0 156 -65.5t64 -163.5q0 -99 -63.5 -164t-156.5 -65t-156.5 65t-63.5 164q0 98 64 163.5t156 65.5zM262 26q78 0 127.5 55t49.5 136t-49.5 136t-127.5 55t-127.5 -55t-49.5 -136t49.5 -136t127.5 -55zM137 546v37h250v-37h-250z" />
    <glyph glyph-name="Obreve" unicode="&#x14e;" horiz-adv-x="800" 
d="M400 -12q-148 0 -250.5 103t-102.5 259t102.5 259t250.5 103t250.5 -103t102.5 -259t-102.5 -259t-250.5 -103zM400 673q-133 0 -220.5 -92.5t-87.5 -230.5t87.5 -230.5t220.5 -92.5t220.5 92.5t87.5 230.5t-87.5 230.5t-220.5 92.5zM399 820q29 0 46.5 18.5t17.5 55.5
v17h38v-16q0 -54 -27.5 -82.5t-74.5 -28.5q-46 0 -73.5 29t-27.5 82v16h38v-17q0 -37 17 -55.5t46 -18.5z" />
    <glyph glyph-name="obreve" unicode="&#x14f;" horiz-adv-x="524" 
d="M262 446q92 0 156 -65.5t64 -163.5q0 -99 -63.5 -164t-156.5 -65t-156.5 65t-63.5 164q0 98 64 163.5t156 65.5zM262 26q78 0 127.5 55t49.5 136t-49.5 136t-127.5 55t-127.5 -55t-49.5 -136t49.5 -136t127.5 -55zM261 554q29 0 46.5 18.5t17.5 55.5v17h38v-16
q0 -54 -27.5 -82.5t-74.5 -28.5q-46 0 -73.5 29t-27.5 82v16h38v-17q0 -37 17 -55.5t46 -18.5z" />
    <glyph glyph-name="Ohungarumlaut" unicode="&#x150;" horiz-adv-x="800" 
d="M400 -12q-148 0 -250.5 103t-102.5 259t102.5 259t250.5 103t250.5 -103t102.5 -259t-102.5 -259t-250.5 -103zM400 673q-133 0 -220.5 -92.5t-87.5 -230.5t87.5 -230.5t220.5 -92.5t220.5 92.5t87.5 230.5t-87.5 230.5t-220.5 92.5zM288 789l51 153h54l-68 -153h-37z
M408 789l51 153h54l-68 -153h-37z" />
    <glyph glyph-name="ohungarumlaut" unicode="&#x151;" horiz-adv-x="524" 
d="M262 446q92 0 156 -65.5t64 -163.5q0 -99 -63.5 -164t-156.5 -65t-156.5 65t-63.5 164q0 98 64 163.5t156 65.5zM262 26q78 0 127.5 55t49.5 136t-49.5 136t-127.5 55t-127.5 -55t-49.5 -136t49.5 -136t127.5 -55zM201 523l51 153h54l-68 -153h-37zM321 523l51 153h54
l-68 -153h-37z" />
    <glyph glyph-name="OE" unicode="&#x152;" horiz-adv-x="1022" 
d="M987 700v-42h-403v-281h259v-42h-259v-293h403v-42h-561q-181 0 -279 95t-98 255t98 255t279 95h561zM95 350q0 -148 87.5 -228t232.5 -80h125v616h-125q-144 0 -232 -80.5t-88 -227.5z" />
    <glyph glyph-name="oe" unicode="&#x153;" horiz-adv-x="913" 
d="M878 204h-395q5 -77 53.5 -127.5t123.5 -50.5q52 0 92.5 25.5t62.5 70.5h47q-26 -62 -80 -98t-122 -36q-66 0 -119.5 34.5t-79.5 93.5q-26 -59 -79.5 -93.5t-119.5 -34.5q-93 0 -156.5 65t-63.5 164q0 98 64 163.5t156 65.5q66 0 119.5 -35t79.5 -94q26 59 79.5 94
t119.5 35q91 0 154.5 -64t63.5 -175v-3zM660 408q-72 0 -120.5 -47.5t-55.5 -120.5h351q-8 73 -55.5 120.5t-119.5 47.5zM262 26q78 0 128 55t50 136t-50 136t-128 55t-127.5 -55t-49.5 -136t49.5 -136t127.5 -55z" />
    <glyph glyph-name="Racute" unicode="&#x154;" horiz-adv-x="573" 
d="M500 0l-197 310h-165v-310h-44v700h182q109 0 171 -51t62 -141q0 -28 -7.5 -55.5t-24.5 -55t-50.5 -48.5t-79.5 -31l204 -318h-51zM462 505q0 69 -46.5 111.5t-130.5 42.5h-147v-308h147q84 0 130.5 42.5t46.5 111.5zM265 789l51 153h54l-68 -153h-37z" />
    <glyph glyph-name="racute" unicode="&#x155;" horiz-adv-x="272" 
d="M250 437v-42h-26q-55 0 -82 -37.5t-27 -122.5v-235h-42v434h40v-79q22 83 115 83q14 0 22 -1zM157 523l51 153h54l-68 -153h-37z" />
    <glyph glyph-name="Rcommaaccent" unicode="&#x156;" horiz-adv-x="573" 
d="M500 0l-197 310h-165v-310h-44v700h182q109 0 171 -51t62 -141q0 -28 -7.5 -55.5t-24.5 -55t-50.5 -48.5t-79.5 -31l204 -318h-51zM462 505q0 69 -46.5 111.5t-130.5 42.5h-147v-308h147q84 0 130.5 42.5t46.5 111.5zM233 -127q0 20 14.5 35t35.5 15q20 0 35 -14.5
t15 -35.5q0 -16 -9 -34l-56 -101h-41l39 88q-33 10 -33 47z" />
    <glyph glyph-name="rcommaaccent" unicode="&#x157;" horiz-adv-x="272" 
d="M250 437v-42h-26q-55 0 -82 -37.5t-27 -122.5v-235h-42v434h40v-79q22 83 115 83q14 0 22 -1zM45 -127q0 20 14.5 35t35.5 15q20 0 35 -14.5t15 -35.5q0 -16 -9 -34l-56 -101h-41l39 88q-33 10 -33 47z" />
    <glyph glyph-name="Rcaron" unicode="&#x158;" horiz-adv-x="573" 
d="M500 0l-197 310h-165v-310h-44v700h182q109 0 171 -51t62 -141q0 -28 -7.5 -55.5t-24.5 -55t-50.5 -48.5t-79.5 -31l204 -318h-51zM462 505q0 69 -46.5 111.5t-130.5 42.5h-147v-308h147q84 0 130.5 42.5t46.5 111.5zM386 942l-84 -153h-61l-84 153h47l67 -119l68 119h47
z" />
    <glyph glyph-name="rcaron" unicode="&#x159;" horiz-adv-x="272" 
d="M250 437v-42h-26q-55 0 -82 -37.5t-27 -122.5v-235h-42v434h40v-79q22 83 115 83q14 0 22 -1zM252 676l-84 -153h-61l-84 153h47l67 -119l68 119h47z" />
    <glyph glyph-name="Sacute" unicode="&#x15a;" horiz-adv-x="493" 
d="M442 650l-24 -35q-27 23 -70.5 40.5t-84.5 17.5q-66 0 -112.5 -32.5t-46.5 -94.5q0 -81 108 -137l76 -39q87 -45 124 -90t37 -109q0 -73 -58 -128t-157 -55q-118 0 -201 74l24 35q75 -70 182 -70q74 0 119.5 41.5t45.5 98.5t-32.5 93t-111.5 77l-62 32q-70 36 -104.5 78
t-34.5 97q0 77 58 122.5t143 45.5q105 0 182 -62zM249 789l51 153h54l-68 -153h-37z" />
    <glyph glyph-name="sacute" unicode="&#x15b;" horiz-adv-x="372" 
d="M179 25q49 0 80 25t31 61q0 35 -24 56.5t-77 39.5l-42 14q-96 32 -96 110q0 51 39.5 83t100.5 32q78 0 133 -46l-21 -32q-50 41 -111 41q-42 0 -70 -20.5t-28 -53.5q0 -52 65 -75l61 -22q60 -22 86.5 -51.5t26.5 -75.5q0 -47 -40 -85t-115 -38q-38 0 -78.5 13.5
t-65.5 35.5l21 32q59 -44 124 -44zM179 523l51 153h54l-68 -153h-37z" />
    <glyph glyph-name="Scircumflex" unicode="&#x15c;" horiz-adv-x="493" 
d="M442 650l-24 -35q-27 23 -70.5 40.5t-84.5 17.5q-66 0 -112.5 -32.5t-46.5 -94.5q0 -81 108 -137l76 -39q87 -45 124 -90t37 -109q0 -73 -58 -128t-157 -55q-118 0 -201 74l24 35q75 -70 182 -70q74 0 119.5 41.5t45.5 98.5t-32.5 93t-111.5 77l-62 32q-70 36 -104.5 78
t-34.5 97q0 77 58 122.5t143 45.5q105 0 182 -62zM277 942l84 -153h-47l-68 119l-67 -119h-47l84 153h61z" />
    <glyph glyph-name="scircumflex" unicode="&#x15d;" horiz-adv-x="372" 
d="M179 25q49 0 80 25t31 61q0 35 -24 56.5t-77 39.5l-42 14q-96 32 -96 110q0 51 39.5 83t100.5 32q78 0 133 -46l-21 -32q-50 41 -111 41q-42 0 -70 -20.5t-28 -53.5q0 -52 65 -75l61 -22q60 -22 86.5 -51.5t26.5 -75.5q0 -47 -40 -85t-115 -38q-38 0 -78.5 13.5
t-65.5 35.5l21 32q59 -44 124 -44zM217 676l84 -153h-47l-68 119l-67 -119h-47l84 153h61z" />
    <glyph glyph-name="Scedilla" unicode="&#x15e;" horiz-adv-x="494" 
d="M156 -143l53 132q-104 8 -176 73l24 35q75 -70 182 -70q74 0 119.5 41.5t45.5 98.5t-32.5 93t-111.5 77l-62 32q-70 36 -104.5 78t-34.5 97q0 77 58 122.5t143 45.5q105 0 182 -62l-24 -35q-27 23 -70.5 40.5t-84.5 17.5q-66 0 -112.5 -32.5t-46.5 -94.5q0 -81 108 -137
l76 -39q87 -45 124 -90t37 -109q0 -70 -53.5 -123.5t-144.5 -58.5l-52 -132h-43z" />
    <glyph glyph-name="scedilla" unicode="&#x15f;" horiz-adv-x="373" 
d="M113 -143l53 131q-83 5 -133 49l21 32q59 -44 124 -44q49 0 80 25t31 61q0 35 -24 56.5t-77 39.5l-42 14q-96 32 -96 110q0 51 39.5 83t100.5 32q78 0 133 -46l-21 -32q-50 41 -111 41q-42 0 -70 -20.5t-28 -53.5q0 -52 65 -75l61 -22q60 -22 86.5 -51.5t26.5 -75.5
q0 -41 -32 -77t-91 -44l-53 -133h-43z" />
    <glyph glyph-name="Scaron" unicode="&#x160;" horiz-adv-x="493" 
d="M442 650l-24 -35q-27 23 -70.5 40.5t-84.5 17.5q-66 0 -112.5 -32.5t-46.5 -94.5q0 -81 108 -137l76 -39q87 -45 124 -90t37 -109q0 -73 -58 -128t-157 -55q-118 0 -201 74l24 35q75 -70 182 -70q74 0 119.5 41.5t45.5 98.5t-32.5 93t-111.5 77l-62 32q-70 36 -104.5 78
t-34.5 97q0 77 58 122.5t143 45.5q105 0 182 -62zM361 942l-84 -153h-61l-84 153h47l67 -119l68 119h47z" />
    <glyph glyph-name="scaron" unicode="&#x161;" horiz-adv-x="372" 
d="M179 25q49 0 80 25t31 61q0 35 -24 56.5t-77 39.5l-42 14q-96 32 -96 110q0 51 39.5 83t100.5 32q78 0 133 -46l-21 -32q-50 41 -111 41q-42 0 -70 -20.5t-28 -53.5q0 -52 65 -75l61 -22q60 -22 86.5 -51.5t26.5 -75.5q0 -47 -40 -85t-115 -38q-38 0 -78.5 13.5
t-65.5 35.5l21 32q59 -44 124 -44zM301 676l-84 -153h-61l-84 153h47l67 -119l68 119h47z" />
    <glyph glyph-name="Tcommaaccent" unicode="&#x162;" horiz-adv-x="512" 
d="M14 700h485v-42h-221v-658h-44v658h-220v42zM205 -127q0 20 14.5 35t35.5 15q20 0 35 -14.5t15 -35.5q0 -16 -9 -34l-56 -101h-41l39 88q-33 10 -33 47z" />
    <glyph glyph-name="tcommaaccent" unicode="&#x163;" horiz-adv-x="264" 
d="M94 619h43v-185h109v-36h-109v-319q0 -24 16.5 -36t39.5 -12l53 4v-35q-25 -4 -61 -4q-91 0 -91 94v308h-75v36h75v185zM108 -127q0 20 14.5 35t35.5 15q20 0 35 -14.5t15 -35.5q0 -16 -9 -34l-56 -101h-41l39 88q-33 10 -33 47z" />
    <glyph glyph-name="Tcaron" unicode="&#x164;" horiz-adv-x="512" 
d="M14 700h485v-42h-221v-658h-44v658h-220v42zM371 942l-84 -153h-61l-84 153h47l67 -119l68 119h47z" />
    <glyph glyph-name="tcaron" unicode="&#x165;" horiz-adv-x="264" 
d="M94 619h43v-185h109v-36h-109v-319q0 -24 16.5 -36t39.5 -12l53 4v-35q-25 -4 -61 -4q-91 0 -91 94v308h-75v36h75v185zM213 662q0 20 14.5 35t35.5 15q20 0 34.5 -14.5t14.5 -35.5q0 -17 -8 -33l-56 -102h-41l39 86q-15 5 -24 18t-9 31z" />
    <glyph glyph-name="Tbar" unicode="&#x166;" horiz-adv-x="528" 
d="M22 700h485v-42h-221v-281h146v-42h-146v-335h-44v335h-145v42h145v281h-220v42z" />
    <glyph glyph-name="tbar" unicode="&#x167;" horiz-adv-x="269" 
d="M21 263v36h75v99h-75v36h75v185h43v-185h109v-36h-109v-99h109v-36h-109v-184q0 -24 16.5 -36t39.5 -12l53 4v-35q-25 -4 -61 -4q-91 0 -91 94v173h-75z" />
    <glyph glyph-name="Utilde" unicode="&#x168;" horiz-adv-x="622" 
d="M311 -12q-114 0 -169 60.5t-55 164.5v487h44v-490q0 -85 45.5 -134t134.5 -49t135 49t46 134v490h43v-485q0 -104 -55 -165.5t-169 -61.5zM363 840q29 0 29 39v9h41v-10q0 -29 -15 -54t-54 -25q-23 0 -60 24t-47 24q-29 0 -29 -39v-9h-41v11q0 28 15 53t54 25
q24 0 60.5 -24t46.5 -24z" />
    <glyph glyph-name="utilde" unicode="&#x169;" horiz-adv-x="494" 
d="M248 -12q-87 0 -133.5 46.5t-46.5 118.5v281h43v-278q0 -61 37.5 -95t99.5 -34q61 0 98 34t37 95v278h43v-281q0 -72 -46 -118.5t-132 -46.5zM299 574q29 0 29 39v9h41v-10q0 -29 -15 -54t-54 -25q-23 0 -60 24t-47 24q-29 0 -29 -39v-9h-41v11q0 28 15 53t54 25
q24 0 60.5 -24t46.5 -24z" />
    <glyph glyph-name="Umacron" unicode="&#x16a;" horiz-adv-x="622" 
d="M311 -12q-114 0 -169 60.5t-55 164.5v487h44v-490q0 -85 45.5 -134t134.5 -49t135 49t46 134v490h43v-485q0 -104 -55 -165.5t-169 -61.5zM186 812v37h250v-37h-250z" />
    <glyph glyph-name="umacron" unicode="&#x16b;" horiz-adv-x="494" 
d="M248 -12q-87 0 -133.5 46.5t-46.5 118.5v281h43v-278q0 -61 37.5 -95t99.5 -34q61 0 98 34t37 95v278h43v-281q0 -72 -46 -118.5t-132 -46.5zM122 546v37h250v-37h-250z" />
    <glyph glyph-name="Ubreve" unicode="&#x16c;" horiz-adv-x="622" 
d="M311 -12q-114 0 -169 60.5t-55 164.5v487h44v-490q0 -85 45.5 -134t134.5 -49t135 49t46 134v490h43v-485q0 -104 -55 -165.5t-169 -61.5zM310 820q29 0 46.5 18.5t17.5 55.5v17h38v-16q0 -54 -27.5 -82.5t-74.5 -28.5q-46 0 -73.5 29t-27.5 82v16h38v-17q0 -37 17 -55.5
t46 -18.5z" />
    <glyph glyph-name="ubreve" unicode="&#x16d;" horiz-adv-x="494" 
d="M248 -12q-87 0 -133.5 46.5t-46.5 118.5v281h43v-278q0 -61 37.5 -95t99.5 -34q61 0 98 34t37 95v278h43v-281q0 -72 -46 -118.5t-132 -46.5zM246 554q29 0 46.5 18.5t17.5 55.5v17h38v-16q0 -54 -27.5 -82.5t-74.5 -28.5q-46 0 -73.5 29t-27.5 82v16h38v-17
q0 -37 17 -55.5t46 -18.5z" />
    <glyph glyph-name="Uring" unicode="&#x16e;" horiz-adv-x="622" 
d="M311 -12q-114 0 -169 60.5t-55 164.5v487h44v-490q0 -85 45.5 -134t134.5 -49t135 49t46 134v490h43v-485q0 -104 -55 -165.5t-169 -61.5zM311 757q-41 0 -71 28t-30 70t30 70t71 28t71 -28t30 -70t-30 -70t-71 -28zM311 793q26 0 43 18t17 44t-17 44t-43 18t-43 -18
t-17 -44t17 -44t43 -18z" />
    <glyph glyph-name="uring" unicode="&#x16f;" horiz-adv-x="494" 
d="M248 -12q-87 0 -133.5 46.5t-46.5 118.5v281h43v-278q0 -61 37.5 -95t99.5 -34q61 0 98 34t37 95v278h43v-281q0 -72 -46 -118.5t-132 -46.5zM247 491q-41 0 -71 28t-30 70t30 70t71 28t71 -28t30 -70t-30 -70t-71 -28zM247 527q26 0 43 18t17 44t-17 44t-43 18t-43 -18
t-17 -44t17 -44t43 -18z" />
    <glyph glyph-name="Uhungarumlaut" unicode="&#x170;" horiz-adv-x="622" 
d="M311 -12q-114 0 -169 60.5t-55 164.5v487h44v-490q0 -85 45.5 -134t134.5 -49t135 49t46 134v490h43v-485q0 -104 -55 -165.5t-169 -61.5zM237 789l51 153h54l-68 -153h-37zM357 789l51 153h54l-68 -153h-37z" />
    <glyph glyph-name="uhungarumlaut" unicode="&#x171;" horiz-adv-x="494" 
d="M248 -12q-87 0 -133.5 46.5t-46.5 118.5v281h43v-278q0 -61 37.5 -95t99.5 -34q61 0 98 34t37 95v278h43v-281q0 -72 -46 -118.5t-132 -46.5zM155 523l51 153h54l-68 -153h-37zM275 523l51 153h54l-68 -153h-37z" />
    <glyph glyph-name="Uogonek" unicode="&#x172;" horiz-adv-x="624" 
d="M536 215q0 -100 -50.5 -160.5t-154.5 -65.5q-51 -45 -51 -87q0 -51 63 -51q33 0 61 13v-32q-33 -15 -71 -15q-45 0 -70.5 23t-25.5 56q0 52 51 93q-102 7 -151 66t-49 158v487h44v-490q0 -85 45.5 -134t134.5 -49t135 49t46 134v490h43v-485z" />
    <glyph glyph-name="uogonek" unicode="&#x173;" horiz-adv-x="495" 
d="M426 153q0 -67 -40 -112t-115 -52q-52 -45 -52 -87q0 -51 63 -51q33 0 61 13v-32q-33 -15 -71 -15q-45 0 -70.5 23t-25.5 56q0 52 51 93q-77 6 -118 51t-41 113v281h43v-278q0 -61 37.5 -95t99.5 -34q61 0 98 34t37 95v278h43v-281z" />
    <glyph glyph-name="Wcircumflex" unicode="&#x174;" horiz-adv-x="925" 
d="M711 0h-73l-176 656l-175 -656h-73l-174 700h45l161 -656h11l176 656h59l177 -656h9l161 656h46zM493 942l84 -153h-47l-68 119l-67 -119h-47l84 153h61z" />
    <glyph glyph-name="wcircumflex" unicode="&#x175;" horiz-adv-x="693" 
d="M500 32l108 402h48l-124 -434h-64l-122 400l-121 -400h-64l-124 434h48l108 -402l123 402h61zM377 676l84 -153h-47l-68 119l-67 -119h-47l84 153h61z" />
    <glyph glyph-name="Ycircumflex" unicode="&#x176;" horiz-adv-x="611" 
d="M283 311l-269 389h58l232 -343h4l235 343h55l-270 -389v-311h-45v311zM336 942l84 -153h-47l-68 119l-67 -119h-47l84 153h61z" />
    <glyph glyph-name="ycircumflex" unicode="&#x177;" horiz-adv-x="454" 
d="M191 -67l25 67h-21l-164 434h48l149 -403l147 403h48l-197 -521q-19 -49 -41 -68t-73 -19h-46v36h46q34 0 48.5 15t30.5 56zM257 676l84 -153h-47l-68 119l-67 -119h-47l84 153h61z" />
    <glyph glyph-name="Ydieresis" unicode="&#x178;" horiz-adv-x="611" 
d="M283 311l-269 389h58l232 -343h4l235 343h55l-270 -389v-311h-45v311zM382 861q17 0 30 -13t13 -30t-13 -30t-30 -13t-30 13t-13 30t13 30t30 13zM232 861q17 0 30 -13t13 -30t-13 -30t-30 -13t-30 13t-13 30t13 30t30 13z" />
    <glyph glyph-name="Zacute" unicode="&#x179;" horiz-adv-x="553" 
d="M470 658h-431v42h481v-44l-440 -614h440v-42h-492v45zM267 789l51 153h54l-68 -153h-37z" />
    <glyph glyph-name="zacute" unicode="&#x17a;" horiz-adv-x="395" 
d="M357 434v-39l-266 -357h268v-38h-321v38l267 357h-267v39h319zM182 523l51 153h54l-68 -153h-37z" />
    <glyph glyph-name="Zdotaccent" unicode="&#x17b;" horiz-adv-x="553" 
d="M470 658h-431v42h481v-44l-440 -614h440v-42h-492v45zM228 849q0 19 14 33.5t34 14.5t34 -14.5t14 -33.5t-14 -33.5t-34 -14.5t-34 14.5t-14 33.5z" />
    <glyph glyph-name="zdotaccent" unicode="&#x17c;" horiz-adv-x="395" 
d="M357 434v-39l-266 -357h268v-38h-321v38l267 357h-267v39h319zM149 583q0 19 14.5 33.5t33.5 14.5t33.5 -14.5t14.5 -33.5t-14.5 -33.5t-33.5 -14.5t-33.5 14.5t-14.5 33.5z" />
    <glyph glyph-name="Zcaron" unicode="&#x17d;" horiz-adv-x="553" 
d="M470 658h-431v42h481v-44l-440 -614h440v-42h-492v45zM393 930l-84 -153h-61l-84 153h47l67 -119l68 119h47z" />
    <glyph glyph-name="zcaron" unicode="&#x17e;" horiz-adv-x="395" 
d="M357 434v-39l-266 -357h268v-38h-321v38l267 357h-267v39h319zM313 676l-84 -153h-61l-84 153h47l67 -119l68 119h47z" />
    <glyph glyph-name="longs" unicode="&#x17f;" horiz-adv-x="232" 
d="M139 602v-602h-43v398h-75v36h75v169q0 55 26.5 79t65.5 24l50 -4v-37q-30 5 -42 5q-57 0 -57 -68z" />
    <glyph glyph-name="florin" unicode="&#x192;" horiz-adv-x="314" 
d="M134 -65v382h-90v36h90v236q0 54 31 82.5t89 28.5h26v-39h-31q-72 0 -72 -73v-235h90v-36h-90v-383q0 -54 -31 -82.5t-89 -28.5h-26v39h31q72 0 72 73z" />
    <glyph glyph-name="Scommaaccent" unicode="&#x218;" horiz-adv-x="493" 
d="M442 650l-24 -35q-27 23 -70.5 40.5t-84.5 17.5q-66 0 -112.5 -32.5t-46.5 -94.5q0 -81 108 -137l76 -39q87 -45 124 -90t37 -109q0 -73 -58 -128t-157 -55q-118 0 -201 74l24 35q75 -70 182 -70q74 0 119.5 41.5t45.5 98.5t-32.5 93t-111.5 77l-62 32q-70 36 -104.5 78
t-34.5 97q0 77 58 122.5t143 45.5q105 0 182 -62zM185 -127q0 20 14.5 35t35.5 15q20 0 35 -14.5t15 -35.5q0 -16 -9 -34l-56 -101h-41l39 88q-33 10 -33 47z" />
    <glyph glyph-name="scommaaccent" unicode="&#x219;" horiz-adv-x="372" 
d="M179 25q49 0 80 25t31 61q0 35 -24 56.5t-77 39.5l-42 14q-96 32 -96 110q0 51 39.5 83t100.5 32q78 0 133 -46l-21 -32q-50 41 -111 41q-42 0 -70 -20.5t-28 -53.5q0 -52 65 -75l61 -22q60 -22 86.5 -51.5t26.5 -75.5q0 -47 -40 -85t-115 -38q-38 0 -78.5 13.5
t-65.5 35.5l21 32q59 -44 124 -44zM135 -127q0 20 14.5 35t35.5 15q20 0 35 -14.5t15 -35.5q0 -16 -9 -34l-56 -101h-41l39 88q-33 10 -33 47z" />
    <glyph glyph-name="uni021A" unicode="&#x21a;" horiz-adv-x="512" 
d="M14 700h485v-42h-221v-658h-44v658h-220v42zM205 -127q0 20 14.5 35t35.5 15q20 0 35 -14.5t15 -35.5q0 -16 -9 -34l-56 -101h-41l39 88q-33 10 -33 47z" />
    <glyph glyph-name="uni021B" unicode="&#x21b;" horiz-adv-x="264" 
d="M94 619h43v-185h109v-36h-109v-319q0 -24 16.5 -36t39.5 -12l53 4v-35q-25 -4 -61 -4q-91 0 -91 94v308h-75v36h75v185zM108 -127q0 20 14.5 35t35.5 15q20 0 35 -14.5t15 -35.5q0 -16 -9 -34l-56 -101h-41l39 88q-33 10 -33 47z" />
    <glyph glyph-name="dotlessj" unicode="&#x237;" horiz-adv-x="203" 
d="M87 -92v490h-70v36h113v-525q0 -83 -88 -83h-45v36h38q52 0 52 46z" />
    <glyph glyph-name="apostrophe" unicode="&#x2bc;" horiz-adv-x="529" 
d="M224 662q0 20 14.5 35t35.5 15q20 0 34.5 -14.5t14.5 -35.5q0 -17 -8 -33l-56 -102h-41l39 86q-15 5 -24 18t-9 31z" />
    <glyph glyph-name="circumflex" unicode="&#x2c6;" horiz-adv-x="291" 
d="M176 676l84 -153h-47l-68 119l-67 -119h-47l84 153h61z" />
    <glyph glyph-name="caron" unicode="&#x2c7;" horiz-adv-x="291" 
d="M260 676l-84 -153h-61l-84 153h47l67 -119l68 119h47z" />
    <glyph glyph-name="uni02C9" unicode="&#x2c9;" horiz-adv-x="314" 
d="M32 546v37h250v-37h-250z" />
    <glyph glyph-name="breve" unicode="&#x2d8;" horiz-adv-x="263" 
d="M131 554q29 0 46.5 18.5t17.5 55.5v17h38v-16q0 -54 -27.5 -82.5t-74.5 -28.5q-46 0 -73.5 29t-27.5 82v16h38v-17q0 -37 17 -55.5t46 -18.5z" />
    <glyph glyph-name="dotaccent" unicode="&#x2d9;" horiz-adv-x="206" 
d="M55 583q0 19 14.5 33.5t33.5 14.5t33.5 -14.5t14.5 -33.5t-14.5 -33.5t-33.5 -14.5t-33.5 14.5t-14.5 33.5z" />
    <glyph glyph-name="ring" unicode="&#x2da;" horiz-adv-x="260" 
d="M130 491q-41 0 -71 28t-30 70t30 70t71 28t71 -28t30 -70t-30 -70t-71 -28zM130 527q26 0 43 18t17 44t-17 44t-43 18t-43 -18t-17 -44t17 -44t43 -18z" />
    <glyph glyph-name="ogonek" unicode="&#x2db;" horiz-adv-x="224" 
d="M125 14l14 -10v-2q-68 -54 -68 -100q0 -51 63 -51q33 0 61 13v-32q-33 -15 -71 -15q-45 0 -70.5 23t-25.5 56q0 38 28 70t69 48z" />
    <glyph glyph-name="tilde" unicode="&#x2dc;" horiz-adv-x="309" 
d="M207 574q29 0 29 39v9h41v-10q0 -29 -15 -54t-54 -25q-23 0 -60 24t-47 24q-29 0 -29 -39v-9h-41v11q0 28 15 53t54 25q24 0 60.5 -24t46.5 -24z" />
    <glyph glyph-name="hungarumlaut" unicode="&#x2dd;" horiz-adv-x="302" 
d="M39 523l51 153h54l-68 -153h-37zM159 523l51 153h54l-68 -153h-37z" />
    <glyph glyph-name="Delta" unicode="&#x394;" horiz-adv-x="598" 
d="M32 42l239 658h55l240 -658v-42h-534v42zM82 42h434l-217 608z" />
    <glyph glyph-name="Delta" unicode="&#x2206;" horiz-adv-x="598" 
d="M32 42l239 658h55l240 -658v-42h-534v42zM82 42h434l-217 608z" />
    <glyph glyph-name="Omega" unicode="&#x3a9;" horiz-adv-x="664" 
d="M332 712q123 0 204.5 -73t81.5 -195q0 -105 -53 -166.5t-125 -85.5v-149h144v-43h-188v211q180 58 180 232q0 110 -73 170t-171 60t-171 -60t-73 -170q0 -174 180 -232v-211h-188v43h144v149q-72 24 -125 85.5t-53 166.5q0 122 81.5 195t204.5 73z" />
    <glyph glyph-name="Omega" unicode="&#x2126;" horiz-adv-x="664" 
d="M332 712q123 0 204.5 -73t81.5 -195q0 -105 -53 -166.5t-125 -85.5v-149h144v-43h-188v211q180 58 180 232q0 110 -73 170t-171 60t-171 -60t-73 -170q0 -174 180 -232v-211h-188v43h144v149q-72 24 -125 85.5t-53 166.5q0 122 81.5 195t204.5 73z" />
    <glyph glyph-name="pi" unicode="&#x3c0;" horiz-adv-x="584" 
d="M399 398h-243v-398h-43v398h-85v36h523v-36h-109v-319q0 -24 16.5 -36t39.5 -12l53 4v-35q-25 -4 -61 -4q-91 0 -91 94v308z" />
    <glyph glyph-name="pi" unicode="&#x3d6;" horiz-adv-x="584" 
d="M399 398h-243v-398h-43v398h-85v36h523v-36h-109v-319q0 -24 16.5 -36t39.5 -12l53 4v-35q-25 -4 -61 -4q-91 0 -91 94v308z" />
    <glyph glyph-name="Wgrave" unicode="&#x1e80;" horiz-adv-x="925" 
d="M711 0h-73l-176 656l-175 -656h-73l-174 700h45l161 -656h11l176 656h59l177 -656h9l161 656h46zM409 942l51 -153h-37l-68 153h54z" />
    <glyph glyph-name="wgrave" unicode="&#x1e81;" horiz-adv-x="693" 
d="M500 32l108 402h48l-124 -434h-64l-122 400l-121 -400h-64l-124 434h48l108 -402l123 402h61zM295 676l51 -153h-37l-68 153h54z" />
    <glyph glyph-name="Wacute" unicode="&#x1e82;" horiz-adv-x="925" 
d="M711 0h-73l-176 656l-175 -656h-73l-174 700h45l161 -656h11l176 656h59l177 -656h9l161 656h46zM455 789l51 153h54l-68 -153h-37z" />
    <glyph glyph-name="wacute" unicode="&#x1e83;" horiz-adv-x="693" 
d="M500 32l108 402h48l-124 -434h-64l-122 400l-121 -400h-64l-124 434h48l108 -402l123 402h61zM349 523l51 153h54l-68 -153h-37z" />
    <glyph glyph-name="Wdieresis" unicode="&#x1e84;" horiz-adv-x="925" 
d="M711 0h-73l-176 656l-175 -656h-73l-174 700h45l161 -656h11l176 656h59l177 -656h9l161 656h46zM388 873q17 0 30 -13t13 -30t-13 -30t-30 -13t-30 13t-13 30t13 30t30 13zM538 873q17 0 30 -13t13 -30t-13 -30t-30 -13t-30 13t-13 30t13 30t30 13z" />
    <glyph glyph-name="wdieresis" unicode="&#x1e85;" horiz-adv-x="693" 
d="M500 32l108 402h48l-124 -434h-64l-122 400l-121 -400h-64l-124 434h48l108 -402l123 402h61zM272 607q17 0 30 -13t13 -30t-13 -30t-30 -13t-30 13t-13 30t13 30t30 13zM422 607q17 0 30 -13t13 -30t-13 -30t-30 -13t-30 13t-13 30t13 30t30 13z" />
    <glyph glyph-name="Ygrave" unicode="&#x1ef2;" horiz-adv-x="611" 
d="M283 311l-269 389h58l232 -343h4l235 343h55l-270 -389v-311h-45v311zM272 942l51 -153h-37l-68 153h54z" />
    <glyph glyph-name="ygrave" unicode="&#x1ef3;" horiz-adv-x="454" 
d="M191 -67l25 67h-21l-164 434h48l149 -403l147 403h48l-197 -521q-19 -49 -41 -68t-73 -19h-46v36h46q34 0 48.5 15t30.5 56zM189 676l51 -153h-37l-68 153h54z" />
    <glyph glyph-name="endash" unicode="&#x2013;" horiz-adv-x="500" 
d="M40 252v36h420v-36h-420z" />
    <glyph glyph-name="emdash" unicode="&#x2014;" horiz-adv-x="1000" 
d="M40 252v36h920v-36h-920z" />
    <glyph glyph-name="quoteleft" unicode="&#x2018;" horiz-adv-x="220" 
d="M157 577q0 -21 -14.5 -36t-35.5 -15q-20 0 -34.5 14.5t-14.5 36.5q0 19 8 32l56 103h41l-39 -87q14 -5 23.5 -18t9.5 -30z" />
    <glyph glyph-name="quoteright" unicode="&#x2019;" horiz-adv-x="225" 
d="M72 661q0 21 14.5 36t35.5 15q20 0 34.5 -14.5t14.5 -36.5q0 -19 -8 -32l-56 -103h-41l39 87q-14 5 -23.5 18t-9.5 30z" />
    <glyph glyph-name="quotesinglbase" unicode="&#x201a;" horiz-adv-x="233" 
d="M67 43q0 21 14.5 36t35.5 15q20 0 34.5 -14.5t14.5 -36.5q0 -19 -8 -32l-56 -103h-41l39 87q-14 5 -23.5 18t-9.5 30z" />
    <glyph glyph-name="quotedblleft" unicode="&#x201c;" horiz-adv-x="352" 
d="M156 577q0 -21 -14 -36t-35 -15t-35.5 15t-14.5 36q0 16 8 32l56 103h42l-39 -87q32 -10 32 -48zM289 577q0 -21 -14 -36t-35 -15q-20 0 -35 15t-15 36q0 18 9 32l55 103h42l-39 -87q32 -10 32 -48z" />
    <glyph glyph-name="quotedblright" unicode="&#x201d;" horiz-adv-x="359" 
d="M206 661q0 21 14 36t35 15t35.5 -15t14.5 -36q0 -16 -8 -32l-56 -103h-42l39 87q-32 10 -32 48zM73 661q0 21 14 36t35 15q20 0 35 -15t15 -36q0 -18 -9 -32l-55 -103h-42l39 87q-32 10 -32 48z" />
    <glyph glyph-name="quotedblbase" unicode="&#x201e;" horiz-adv-x="366" 
d="M200 43q0 21 14 36t35 15t35.5 -15t14.5 -36q0 -16 -8 -32l-56 -103h-42l39 87q-32 10 -32 48zM67 43q0 21 14 36t35 15q20 0 35 -15t15 -36q0 -18 -9 -32l-55 -103h-42l39 87q-32 10 -32 48z" />
    <glyph glyph-name="dagger" unicode="&#x2020;" horiz-adv-x="480" 
d="M261 700v-251h182v-42h-182v-407h-44v407h-181v42h181v251h44z" />
    <glyph glyph-name="daggerdbl" unicode="&#x2021;" horiz-adv-x="480" 
d="M261 253v-253h-44v253h-181v42h181v122h-181v42h181v241h44v-241h182v-42h-182v-122h182v-42h-182z" />
    <glyph glyph-name="bullet" unicode="&#x2022;" horiz-adv-x="329" 
d="M88 359q0 31 23 53.5t54 22.5t53.5 -22.5t22.5 -53.5t-22.5 -54t-53.5 -23t-54 23t-23 54z" />
    <glyph glyph-name="ellipsis" unicode="&#x2026;" horiz-adv-x="764" 
d="M64 44q0 21 14.5 35.5t35.5 14.5t36 -14.5t15 -35.5t-15 -35.5t-36 -14.5t-35.5 14.5t-14.5 35.5zM332 44q0 21 14.5 35.5t35.5 14.5t35.5 -14.5t14.5 -35.5t-14.5 -35.5t-35.5 -14.5t-35.5 14.5t-14.5 35.5zM599 44q0 21 15 35.5t36 14.5t35.5 -14.5t14.5 -35.5
t-14.5 -35.5t-35.5 -14.5t-36 14.5t-15 35.5z" />
    <glyph glyph-name="perthousand" unicode="&#x2030;" horiz-adv-x="1018" 
d="M79 572q0 58 40.5 99t98.5 41q57 0 98 -41t41 -99q0 -57 -41 -98t-98 -41q-58 0 -98.5 41t-40.5 98zM121 572q0 -41 28.5 -71t68.5 -30q39 0 68 30t29 71q0 42 -29 72t-68 30q-40 0 -68.5 -30t-28.5 -72zM643 127q0 -57 -41 -98t-99 -41q-57 0 -98 41t-41 98q0 58 41 99
t98 41q58 0 99 -41t41 -99zM600 127q0 42 -28.5 72t-68.5 30t-68 -30t-28 -72q0 -41 28 -71t68 -30t68.5 30t28.5 71zM657 549l-585 -449l-25 34l585 449zM983 127q0 -57 -41 -98t-99 -41q-57 0 -98 41t-41 98q0 58 41 99t98 41q58 0 99 -41t41 -99zM940 127q0 42 -28.5 72
t-68.5 30t-68 -30t-28 -72q0 -41 28 -71t68 -30t68.5 30t28.5 71z" />
    <glyph glyph-name="guilsinglleft" unicode="&#x2039;" horiz-adv-x="266" 
d="M153 87l-103 152l103 153h53l-102 -153l102 -152h-53z" />
    <glyph glyph-name="guilsinglright" unicode="&#x203a;" horiz-adv-x="266" 
d="M216 239l-103 -152h-53l102 152l-102 153h53z" />
    <glyph glyph-name="fraction" unicode="&#x2044;" horiz-adv-x="220" 
d="M432 728l29 -26l-673 -723l-29 26z" />
    <glyph glyph-name="zerosuperior" unicode="&#x2070;" 
d="M215 707q114 0 114 -199q0 -200 -114 -200t-114 200q0 199 114 199zM143 508q0 -163 72 -163q71 0 71 163t-71 163q-72 0 -72 -163z" />
    <glyph glyph-name="foursuperior" unicode="&#x2074;" 
d="M83 432v35l134 233h65v-233h60v-35h-60v-117h-41v117h-158zM239 671l-116 -204h118v204h-2z" />
    <glyph glyph-name="fivesuperior" unicode="&#x2075;" 
d="M332 438q0 -58 -32 -94t-85 -36t-84.5 31.5t-31.5 83.5v14h43v-15q0 -34 18 -55.5t54 -21.5q37 0 56 25t19 65q0 41 -18.5 66t-55.5 25q-36 0 -59 -21h-36v195h193v-37h-156v-118h1q25 18 61 18q54 0 83.5 -34.5t29.5 -90.5z" />
    <glyph glyph-name="sixsuperior" unicode="&#x2076;" 
d="M234 700h56l-16 -17q-81 -86 -116 -156l1 -1q26 26 67 26q47 0 79 -31.5t32 -90.5q0 -55 -33 -88.5t-85 -33.5q-53 0 -86 34.5t-33 93.5q0 114 121 250zM143 430q0 -37 19.5 -61t56.5 -24q36 0 55.5 24.5t19.5 60.5q0 37 -19.5 61.5t-55.5 24.5q-37 0 -56.5 -24.5
t-19.5 -61.5z" />
    <glyph glyph-name="sevensuperior" unicode="&#x2077;" 
d="M196 315h-48l134 346h-178v39h219v-36z" />
    <glyph glyph-name="eightsuperior" unicode="&#x2078;" 
d="M215 343q36 0 57 22.5t21 53.5t-21 53t-57 22q-37 0 -57.5 -22t-20.5 -53t20.5 -53.5t57.5 -22.5zM215 707q51 0 81.5 -29.5t30.5 -77.5q0 -29 -15 -52.5t-41 -33.5q27 -12 46 -38t19 -57q0 -50 -34 -80.5t-87 -30.5t-87 30.5t-34 80.5q0 31 18.5 57t45.5 38
q-26 10 -40.5 33.5t-14.5 52.5q0 48 30.5 77.5t81.5 29.5zM215 529q34 0 52 20t18 51t-18 51t-52 20q-35 0 -53 -20t-18 -51t18 -51t53 -20z" />
    <glyph glyph-name="ninesuperior" unicode="&#x2079;" 
d="M195 315h-57l16 17q80 83 117 156l-1 1q-25 -25 -68 -25q-47 0 -79 31t-32 90q0 55 33 88.5t86 33.5t85.5 -34.5t32.5 -93.5q0 -113 -120 -250zM285 585q0 37 -19.5 61t-55.5 24q-37 0 -56.5 -24t-19.5 -61t20 -61.5t56 -24.5t55.5 24.5t19.5 61.5z" />
    <glyph glyph-name="zeroinferior" unicode="&#x2080;" 
d="M215 392q114 0 114 -199q0 -200 -114 -200t-114 200q0 199 114 199zM143 193q0 -163 72 -163q71 0 71 163t-71 163q-72 0 -72 -163z" />
    <glyph glyph-name="oneinferior" unicode="&#x2081;" 
d="M126 348v37h119v-348h76v-37h-195v37h76v311h-76z" />
    <glyph glyph-name="twoinferior" unicode="&#x2082;" 
d="M100 0v38l113 117q40 42 55.5 71t15.5 59t-19 50t-53 20q-30 0 -50 -17t-20 -46q0 -22 11 -44l-40 -9q-13 28 -13 54q0 42 31.5 70.5t81.5 28.5t82 -30t32 -76q0 -34 -20 -71.5t-76 -94.5l-79 -81h183v-39h-235z" />
    <glyph glyph-name="threeinferior" unicode="&#x2083;" 
d="M209 -7q-52 0 -83.5 31.5t-31.5 83.5v14h43v-15q0 -34 18 -55.5t54 -21.5q37 0 55.5 23.5t18.5 62.5q0 36 -22.5 58.5t-59.5 22.5q-25 0 -37 -3v33l108 121h-163v37h207v-42l-103 -113q49 0 81.5 -32t32.5 -82q0 -54 -32 -88.5t-86 -34.5z" />
    <glyph glyph-name="fourinferior" unicode="&#x2084;" 
d="M83 117v35l134 233h65v-233h60v-35h-60v-117h-41v117h-158zM239 356l-116 -204h118v204h-2z" />
    <glyph glyph-name="fiveinferior" unicode="&#x2085;" 
d="M331 123q0 -58 -32 -94t-85 -36t-84.5 31.5t-31.5 83.5v14h43v-15q0 -34 18 -55.5t54 -21.5q37 0 56 25t19 65q0 41 -18.5 66t-55.5 25q-36 0 -59 -21h-36v195h193v-37h-156v-118h1q25 18 61 18q54 0 83.5 -34.5t29.5 -90.5z" />
    <glyph glyph-name="sixinferior" unicode="&#x2086;" 
d="M235 385h56l-16 -17q-81 -86 -116 -156l1 -1q26 26 67 26q47 0 79 -31.5t32 -90.5q0 -55 -33 -88.5t-85 -33.5q-53 0 -86 34.5t-33 93.5q0 114 121 250zM144 115q0 -37 19.5 -61t56.5 -24q36 0 55.5 24t19.5 61t-19.5 61.5t-55.5 24.5q-37 0 -56.5 -24.5t-19.5 -61.5z
" />
    <glyph glyph-name="seveninferior" unicode="&#x2087;" 
d="M196 0h-48l134 346h-178v39h219v-36z" />
    <glyph glyph-name="eightinferior" unicode="&#x2088;" 
d="M215 28q36 0 57 22.5t21 53.5t-21 53t-57 22q-37 0 -57.5 -22t-20.5 -53t20.5 -53.5t57.5 -22.5zM215 392q51 0 81.5 -29.5t30.5 -77.5q0 -29 -15 -52.5t-41 -33.5q27 -12 46 -38t19 -57q0 -50 -34 -80.5t-87 -30.5t-87 30.5t-34 80.5q0 31 18.5 57t45.5 38
q-26 10 -40.5 33.5t-14.5 52.5q0 48 30.5 77.5t81.5 29.5zM215 214q34 0 52 20t18 51t-18 51t-52 20q-35 0 -53 -20t-18 -51t18 -51t53 -20z" />
    <glyph glyph-name="nineinferior" unicode="&#x2089;" 
d="M196 0h-57l16 17q80 83 117 156l-1 1q-25 -25 -68 -25q-47 0 -79 31t-32 90q0 55 33 88.5t86 33.5t85.5 -34.5t32.5 -93.5q0 -112 -120 -250zM286 270q0 37 -19.5 61t-55.5 24q-37 0 -56.5 -24t-19.5 -61t20 -61.5t56 -24.5t55.5 24.5t19.5 61.5z" />
    <glyph glyph-name="Euro" unicode="&#x20ac;" horiz-adv-x="721" 
d="M44 407v42h78q24 119 98.5 191t177.5 72q102 0 171 -51.5t96 -157.5h-43q-51 170 -224 170q-83 0 -144.5 -61.5t-83.5 -162.5h277v-42h-284q-3 -29 -3 -57q0 -31 3 -58h284v-42h-277q22 -100 83.5 -161.5t144.5 -61.5q173 0 224 170h43q-53 -209 -267 -209
q-103 0 -177.5 71.5t-98.5 190.5h-78v42h72q-3 27 -3 58q0 28 3 57h-72z" />
    <glyph glyph-name="afii61289" unicode="&#x2113;" horiz-adv-x="388" 
d="M332 588q0 -127 -137 -258v-231q0 -41 20.5 -61t48.5 -20q61 0 72 73h20q-5 -40 -28 -64.5t-44.5 -31t-44.5 -6.5q-61 0 -100.5 40t-39.5 135v86l-52 -40l-17 19q15 10 32.5 23.5l27.5 21.5l9 7v260q0 80 34 126t97 46q50 0 76 -32.5t26 -92.5zM193 620v-260
q113 111 113 234q0 37 -15.5 66.5t-46.5 29.5q-21 0 -36 -16.5t-15 -53.5z" />
    <glyph glyph-name="trademark" unicode="&#x2122;" horiz-adv-x="1002" 
d="M722 374l129 326h72v-411h-46v363l-130 -328h-53l-131 328v-363h-43v411h72zM58 700h374v-39h-165v-372h-44v372h-165v39z" />
    <glyph glyph-name="estimated" unicode="&#x212e;" horiz-adv-x="881" 
d="M199 332v-172q0 -40 45.5 -73.5t101.5 -50t100 -16.5q79 0 148.5 28.5t116.5 82.5h47q-114 -142 -312 -142q-163 0 -279 106.5t-116 257.5q0 149 115 254t280 105q178 0 287.5 -105.5t109.5 -262.5h-635q-9 0 -9 -12zM208 375h477q9 0 9 9v168q0 41 -45 72t-99.5 44.5
t-103.5 13.5q-45 0 -99.5 -13.5t-101 -44.5t-46.5 -72v-168q0 -9 9 -9z" />
    <glyph glyph-name="onethird" unicode="&#x2153;" horiz-adv-x="1080" 
d="M125 663v37h119v-348h76v-37h-195v37h76v311h-76zM849 728l29 -26l-673 -723l-29 26zM861 -7q-52 0 -83.5 31.5t-31.5 83.5v14h43v-15q0 -34 18 -55.5t54 -21.5q37 0 55.5 23.5t18.5 62.5q0 36 -22.5 58.5t-59.5 22.5q-25 0 -37 -3v33l108 121h-163v37h207v-42l-103 -113
q49 0 81.5 -32t32.5 -82q0 -54 -32 -88.5t-86 -34.5z" />
    <glyph glyph-name="twothirds" unicode="&#x2154;" horiz-adv-x="1080" 
d="M106 315v38l113 117q40 42 55.5 71t15.5 59t-19 50t-53 20q-30 0 -50 -17t-20 -46q0 -22 11 -44l-40 -9q-13 28 -13 54q0 42 31.5 70.5t81.5 28.5t82 -30t32 -76q0 -34 -20 -71.5t-76 -94.5l-79 -81h183v-39h-235zM849 728l29 -26l-673 -723l-29 26zM861 -7
q-52 0 -83.5 31.5t-31.5 83.5v14h43v-15q0 -34 18 -55.5t54 -21.5q37 0 55.5 23.5t18.5 62.5q0 36 -22.5 58.5t-59.5 22.5q-25 0 -37 -3v33l108 121h-163v37h207v-42l-103 -113q49 0 81.5 -32t32.5 -82q0 -54 -32 -88.5t-86 -34.5z" />
    <glyph glyph-name="oneeighth" unicode="&#x215b;" horiz-adv-x="1080" 
d="M125 663v37h119v-348h76v-37h-195v37h76v311h-76zM849 728l29 -26l-673 -723l-29 26zM850 28q36 0 57 22.5t21 53.5t-21 53t-57 22q-37 0 -57.5 -22t-20.5 -53t20.5 -53.5t57.5 -22.5zM850 392q51 0 81.5 -29.5t30.5 -77.5q0 -29 -15 -52.5t-41 -33.5q27 -12 46 -38
t19 -57q0 -50 -34 -80.5t-87 -30.5t-87 30.5t-34 80.5q0 31 18.5 57t45.5 38q-26 10 -40.5 33.5t-14.5 52.5q0 48 30.5 77.5t81.5 29.5zM850 214q34 0 52 20t18 51t-18 51t-52 20q-35 0 -53 -20t-18 -51t18 -51t53 -20z" />
    <glyph glyph-name="threeeighths" unicode="&#x215c;" horiz-adv-x="1080" 
d="M239 308q-52 0 -83.5 31.5t-31.5 83.5v14h43v-15q0 -34 18 -55.5t54 -21.5q37 0 55.5 23.5t18.5 62.5q0 36 -22.5 58.5t-59.5 22.5q-25 0 -37 -3v33l108 121h-163v37h207v-42l-103 -113q49 0 81.5 -32.5t32.5 -81.5q0 -54 -32 -88.5t-86 -34.5zM849 728l29 -26l-673 -723
l-29 26zM850 28q36 0 57 22.5t21 53.5t-21 53t-57 22q-37 0 -57.5 -22t-20.5 -53t20.5 -53.5t57.5 -22.5zM850 392q51 0 81.5 -29.5t30.5 -77.5q0 -29 -15 -52.5t-41 -33.5q27 -12 46 -38t19 -57q0 -50 -34 -80.5t-87 -30.5t-87 30.5t-34 80.5q0 31 18.5 57t45.5 38
q-26 10 -40.5 33.5t-14.5 52.5q0 48 30.5 77.5t81.5 29.5zM850 214q34 0 52 20t18 51t-18 51t-52 20q-35 0 -53 -20t-18 -51t18 -51t53 -20z" />
    <glyph glyph-name="fiveeighths" unicode="&#x215d;" horiz-adv-x="1080" 
d="M849 728l29 -26l-673 -723l-29 26zM850 28q36 0 57 22.5t21 53.5t-21 53t-57 22q-37 0 -57.5 -22t-20.5 -53t20.5 -53.5t57.5 -22.5zM850 392q51 0 81.5 -29.5t30.5 -77.5q0 -29 -15 -52.5t-41 -33.5q27 -12 46 -38t19 -57q0 -50 -34 -80.5t-87 -30.5t-87 30.5t-34 80.5
q0 31 18.5 57t45.5 38q-26 10 -40.5 33.5t-14.5 52.5q0 48 30.5 77.5t81.5 29.5zM850 214q34 0 52 20t18 51t-18 51t-52 20q-35 0 -53 -20t-18 -51t18 -51t53 -20zM362 438q0 -58 -32 -94t-85 -36t-84.5 31.5t-31.5 83.5v14h43v-15q0 -34 18 -55.5t54 -21.5q37 0 56 25
t19 65q0 41 -18.5 66t-55.5 25q-36 0 -59 -21h-36v195h193v-37h-156v-118h1q25 18 61 18q54 0 83.5 -34.5t29.5 -90.5z" />
    <glyph glyph-name="seveneighths" unicode="&#x215e;" horiz-adv-x="1080" 
d="M849 728l29 -26l-673 -723l-29 26zM850 28q36 0 57 22.5t21 53.5t-21 53t-57 22q-37 0 -57.5 -22t-20.5 -53t20.5 -53.5t57.5 -22.5zM850 392q51 0 81.5 -29.5t30.5 -77.5q0 -29 -15 -52.5t-41 -33.5q27 -12 46 -38t19 -57q0 -50 -34 -80.5t-87 -30.5t-87 30.5t-34 80.5
q0 31 18.5 57t45.5 38q-26 10 -40.5 33.5t-14.5 52.5q0 48 30.5 77.5t81.5 29.5zM850 214q34 0 52 20t18 51t-18 51t-52 20q-35 0 -53 -20t-18 -51t18 -51t53 -20zM250 315h-48l134 346h-178v39h219v-36z" />
    <glyph glyph-name="partialdiff" unicode="&#x2202;" horiz-adv-x="527" 
d="M262 26q78 0 128 55t50 136t-50 136t-128 55t-128 -55t-50 -136t50 -136t128 -55zM262 446q41 0 84 -19t70 -55l4 4q-41 87 -123 168.5t-162 129.5l57 5q29 -19 59.5 -42.5t74 -67.5t76 -91t56 -112t23.5 -131q0 -110 -62 -178.5t-157 -68.5q-93 0 -156.5 65t-63.5 164
q0 98 64 163.5t156 65.5z" />
    <glyph glyph-name="product" unicode="&#x220f;" horiz-adv-x="830" 
d="M336 355h110q39 0 65 23.5t26 60.5t-26 60.5t-65 23.5h-110v-168zM336 318v-171h-42v413h151q62 0 98.5 -34t36.5 -87t-36.5 -87t-98.5 -34h-109zM415 712q153 0 258.5 -102.5t105.5 -259.5q0 -156 -105.5 -259t-258.5 -103t-258.5 103t-105.5 259q0 157 105.5 259.5
t258.5 102.5zM415 675q-134 0 -227.5 -92.5t-93.5 -232.5t93.5 -232.5t227.5 -92.5t227.5 92.5t93.5 232.5t-93.5 232.5t-227.5 92.5z" />
    <glyph glyph-name="summation" unicode="&#x2211;" horiz-adv-x="574" 
d="M513 700v-45h-415l205 -287v-25l-209 -298h419v-45h-466v49l212 306l-212 297v48h466z" />
    <glyph glyph-name="minus" unicode="&#x2212;" horiz-adv-x="480" 
d="M443 377v-42h-407v42h407z" />
    <glyph glyph-name="uni2215" unicode="&#x2215;" horiz-adv-x="721" 
d="M683 728l29 -26l-673 -723l-29 26z" />
    <glyph glyph-name="radical" unicode="&#x221a;" horiz-adv-x="517" 
d="M226 32l230 668h48l-246 -700h-64l-164 434h48z" />
    <glyph glyph-name="infinity" unicode="&#x221e;" horiz-adv-x="912" 
d="M118 350q0 -82 43.5 -120.5t95.5 -38.5q58 0 101.5 34t78.5 125q-35 91 -78.5 125t-101.5 34q-52 0 -95.5 -38.5t-43.5 -120.5zM456 392q26 76 77.5 117.5t119.5 41.5q75 0 130 -54.5t55 -146.5t-55 -146.5t-130 -54.5q-68 0 -119.5 41.5t-77.5 117.5
q-26 -76 -77.5 -117.5t-119.5 -41.5q-75 0 -130 54.5t-55 146.5t55 146.5t130 54.5q68 0 119.5 -41.5t77.5 -117.5zM794 350q0 82 -43.5 120.5t-95.5 38.5q-58 0 -101.5 -34t-78.5 -125q35 -91 78.5 -125t101.5 -34q52 0 95.5 38.5t43.5 120.5z" />
    <glyph glyph-name="integral" unicode="&#x222b;" horiz-adv-x="297" 
d="M127 589q0 54 31 82.5t89 28.5h26v-39h-31q-72 0 -72 -73v-654q0 -54 -31 -82.5t-89 -28.5h-26v39h31q72 0 72 73v654z" />
    <glyph glyph-name="approxequal" unicode="&#x2248;" horiz-adv-x="480" 
d="M119 484q21 0 127 -32t121 -32q19 0 28.5 10.5t9.5 38.5v12h41v-14q0 -35 -18.5 -61.5t-61.5 -26.5q-20 0 -126.5 32t-121.5 32q-19 0 -28.5 -10.5t-9.5 -38.5v-12h-41v14q0 35 18.5 61.5t61.5 26.5zM119 323q21 0 127 -32t121 -32q19 0 28.5 10.5t9.5 38.5v12h41v-14
q0 -35 -18.5 -61.5t-61.5 -26.5q-20 0 -126.5 32t-121.5 32q-19 0 -28.5 -10.5t-9.5 -38.5v-12h-41v14q0 35 18.5 61.5t61.5 26.5z" />
    <glyph glyph-name="notequal" unicode="&#x2260;" horiz-adv-x="480" 
d="M36 417v42h181v100h44v-100h182v-42h-182v-122h182v-42h-182v-101h-44v101h-181v42h181v122h-181z" />
    <glyph glyph-name="lessequal" unicode="&#x2264;" horiz-adv-x="480" 
d="M436 212v-45l-407 151v63l407 151v-45l-379 -137zM436 0h-407v42h407v-42z" />
    <glyph glyph-name="greaterequal" unicode="&#x2265;" horiz-adv-x="480" 
d="M451 0h-407v42h407v-42zM44 167v45l379 138l-379 137v45l407 -151v-63z" />
    <glyph glyph-name="lozenge" unicode="&#x25ca;" horiz-adv-x="454" 
d="M256 0h-58l-157 350l157 350h58l157 -350zM227 660l-137 -310l137 -310l137 310z" />
    <glyph glyph-name="ff" unicode="&#xe389;" horiz-adv-x="491" 
d="M332 434v169q0 55 26.5 79t65.5 24l50 -4v-37q-30 5 -42 5q-57 0 -57 -68v-168h87v-36h-87v-398h-43v398h-193v-398h-43v398h-75v36h75v169q0 55 26.5 79t65.5 24l50 -4v-37q-30 5 -42 5q-57 0 -57 -68v-168h193z" />
    <glyph glyph-name="ffi" unicode="&#xe38a;" horiz-adv-x="682" 
d="M611 434v-434h-43v398h-193v-398h-43v398h-193v-398h-43v398h-75v36h75v169q0 55 26.5 79t65.5 24l50 -4v-37q-30 5 -42 5q-57 0 -57 -68v-168h193v169q0 55 26.5 79t65.5 24l50 -4v-37q-30 5 -42 5q-57 0 -57 -68v-168h236zM542 591q0 18 13 31t31 13t31 -13t13 -31
t-13 -31t-31 -13t-31 13t-13 31z" />
    <glyph glyph-name="ffi" unicode="&#xfb03;" horiz-adv-x="682" 
d="M611 434v-434h-43v398h-193v-398h-43v398h-193v-398h-43v398h-75v36h75v169q0 55 26.5 79t65.5 24l50 -4v-37q-30 5 -42 5q-57 0 -57 -68v-168h193v169q0 55 26.5 79t65.5 24l50 -4v-37q-30 5 -42 5q-57 0 -57 -68v-168h236zM542 591q0 18 13 31t31 13t31 -13t13 -31
t-13 -31t-31 -13t-31 13t-13 31z" />
    <glyph glyph-name="ffl" unicode="&#xe38b;" horiz-adv-x="684" 
d="M611 700v-700h-43v398h-193v-398h-43v398h-193v-398h-43v398h-75v36h75v169q0 55 26.5 79t65.5 24l50 -4v-37q-30 5 -42 5q-57 0 -57 -68v-168h193v169q0 55 26.5 79t65.5 24l50 -4v-37q-30 5 -42 5q-57 0 -57 -68v-168h193v266h43z" />
    <glyph glyph-name="ffl" unicode="&#xfb04;" horiz-adv-x="684" 
d="M611 700v-700h-43v398h-193v-398h-43v398h-193v-398h-43v398h-75v36h75v169q0 55 26.5 79t65.5 24l50 -4v-37q-30 5 -42 5q-57 0 -57 -68v-168h193v169q0 55 26.5 79t65.5 24l50 -4v-37q-30 5 -42 5q-57 0 -57 -68v-168h193v266h43z" />
    <glyph glyph-name="fi" unicode="&#xe38c;" horiz-adv-x="446" 
d="M375 434v-434h-43v398h-193v-398h-43v398h-75v36h75v169q0 55 26.5 79t65.5 24l50 -4v-37q-30 5 -42 5q-57 0 -57 -68v-168h236zM306 591q0 18 13 31t31 13t31 -13t13 -31t-13 -31t-31 -13t-31 13t-13 31z" />
    <glyph glyph-name="fi" unicode="&#xfb01;" horiz-adv-x="446" 
d="M375 434v-434h-43v398h-193v-398h-43v398h-75v36h75v169q0 55 26.5 79t65.5 24l50 -4v-37q-30 5 -42 5q-57 0 -57 -68v-168h236zM306 591q0 18 13 31t31 13t31 -13t13 -31t-13 -31t-31 -13t-31 13t-13 31z" />
    <glyph glyph-name="fl" unicode="&#xe38d;" horiz-adv-x="448" 
d="M375 700v-700h-43v398h-193v-398h-43v398h-75v36h75v169q0 55 26.5 79t65.5 24l50 -4v-37q-30 5 -42 5q-57 0 -57 -68v-168h193v266h43z" />
    <glyph glyph-name="fl" unicode="&#xfb02;" horiz-adv-x="448" 
d="M375 700v-700h-43v398h-193v-398h-43v398h-75v36h75v169q0 55 26.5 79t65.5 24l50 -4v-37q-30 5 -42 5q-57 0 -57 -68v-168h193v266h43z" />
    <glyph glyph-name="ampersand.smcp" unicode="&#xe401;" horiz-adv-x="519" 
d="M449 0l-72 76q-66 -86 -165 -86q-64 0 -110 40.5t-46 105.5q0 88 106 177q-54 66 -54 128q0 58 39 93.5t95 35.5t91 -33.5t35 -83.5q0 -34 -16 -66l-39 11q12 26 12 52q0 39 -24.5 60.5t-58.5 21.5q-38 0 -64 -24.5t-26 -65.5q0 -58 58 -122l163 -179q43 72 60 153h48
q-25 -101 -79 -183l103 -109v-2h-56zM215 29q83 0 135 77l-164 179q-45 -43 -65 -76t-20 -72q0 -50 34.5 -79t79.5 -29z" />
    <glyph glyph-name="ampersand.smcp" unicode="&#xf726;" horiz-adv-x="519" 
d="M449 0l-72 76q-66 -86 -165 -86q-64 0 -110 40.5t-46 105.5q0 88 106 177q-54 66 -54 128q0 58 39 93.5t95 35.5t91 -33.5t35 -83.5q0 -34 -16 -66l-39 11q12 26 12 52q0 39 -24.5 60.5t-58.5 21.5q-38 0 -64 -24.5t-26 -65.5q0 -58 58 -122l163 -179q43 72 60 153h48
q-25 -101 -79 -183l103 -109v-2h-56zM215 29q83 0 135 77l-164 179q-45 -43 -65 -76t-20 -72q0 -50 34.5 -79t79.5 -29z" />
    <glyph glyph-name="commaaccent" unicode="&#xe414;" horiz-adv-x="205" 
d="M56 -127q0 20 14.5 35t35.5 15q20 0 35 -14.5t15 -35.5q0 -16 -9 -34l-56 -101h-41l39 88q-33 10 -33 47z" />
    <glyph glyph-name="commaaccent" unicode="&#xf6c3;" horiz-adv-x="205" 
d="M56 -127q0 20 14.5 35t35.5 15q20 0 35 -14.5t15 -35.5q0 -16 -9 -34l-56 -101h-41l39 88q-33 10 -33 47z" />
    <glyph glyph-name="zero.smcp" unicode="&#xe43b;" horiz-adv-x="440" 
d="M220 570q155 0 155 -289q0 -291 -155 -291q-156 0 -156 291q0 289 156 289zM108 281q0 -254 112 -254q111 0 111 254q0 252 -111 252q-112 0 -112 -252z" />
    <glyph glyph-name="zero.smcp" unicode="&#xe598;" horiz-adv-x="440" 
d="M220 570q155 0 155 -289q0 -291 -155 -291q-156 0 -156 291q0 289 156 289zM108 281q0 -254 112 -254q111 0 111 254q0 252 -111 252q-112 0 -112 -252z" />
    <glyph glyph-name="one.smcp" unicode="&#xe43c;" horiz-adv-x="440" 
d="M98 521v39h156v-521h110v-39h-264v39h110v482h-112z" />
    <glyph glyph-name="one.smcp" unicode="&#xe599;" horiz-adv-x="440" 
d="M98 521v39h156v-521h110v-39h-264v39h110v482h-112z" />
    <glyph glyph-name="two.smcp" unicode="&#xe43d;" horiz-adv-x="440" 
d="M62 0v37l173 191q94 109 94 192q0 51 -32 82t-85 31q-46 0 -78.5 -27t-32.5 -73q0 -32 16 -64l-40 -11q-18 39 -18 75q0 63 46 100t110 37q68 0 112.5 -40.5t44.5 -108.5q0 -95 -116 -227l-141 -155h272v-39h-325z" />
    <glyph glyph-name="two.smcp" unicode="&#xe59a;" horiz-adv-x="440" 
d="M62 0v37l173 191q94 109 94 192q0 51 -32 82t-85 31q-46 0 -78.5 -27t-32.5 -73q0 -32 16 -64l-40 -11q-18 39 -18 75q0 63 46 100t110 37q68 0 112.5 -40.5t44.5 -108.5q0 -95 -116 -227l-141 -155h272v-39h-325z" />
    <glyph glyph-name="three.smcp" unicode="&#xe43e;" horiz-adv-x="440" 
d="M213 -10q-68 0 -111.5 41.5t-43.5 114.5v29h43v-23q1 -58 30 -91.5t81 -33.5q54 0 84.5 37.5t30.5 99.5q0 132 -136 132q-10 0 -37 -3v30l166 198h-246v39h289v-43l-155 -186q71 0 117 -44t46 -120q0 -82 -43.5 -129.5t-114.5 -47.5z" />
    <glyph glyph-name="three.smcp" unicode="&#xe59b;" horiz-adv-x="440" 
d="M213 -10q-68 0 -111.5 41.5t-43.5 114.5v29h43v-23q1 -58 30 -91.5t81 -33.5q54 0 84.5 37.5t30.5 99.5q0 132 -136 132q-10 0 -37 -3v30l166 198h-246v39h289v-43l-155 -186q71 0 117 -44t46 -120q0 -82 -43.5 -129.5t-114.5 -47.5z" />
    <glyph glyph-name="four.smcp" unicode="&#xe43f;" horiz-adv-x="440" 
d="M37 180v38l200 342h70v-342h84v-38h-84v-180h-43v180h-227zM261 529l-181 -311h184v311h-3z" />
    <glyph glyph-name="four.smcp" unicode="&#xe59c;" horiz-adv-x="440" 
d="M37 180v38l200 342h70v-342h84v-38h-84v-180h-43v180h-227zM261 529l-181 -311h184v311h-3z" />
    <glyph glyph-name="five.smcp" unicode="&#xe440;" horiz-adv-x="440" 
d="M379 177q-1 -85 -45.5 -136t-115.5 -51q-68 0 -110.5 41.5t-42.5 114.5v29h42l1 -23q1 -58 29.5 -91.5t80.5 -33.5q53 0 84.5 40.5t32.5 105.5q0 67 -29 106.5t-88 39.5q-54 0 -91 -33h-39v274h272v-39h-233v-191h2q37 28 92 28q76 0 117 -49.5t41 -131.5z" />
    <glyph glyph-name="five.smcp" unicode="&#xe59d;" horiz-adv-x="440" 
d="M379 177q-1 -85 -45.5 -136t-115.5 -51q-68 0 -110.5 41.5t-42.5 114.5v29h42l1 -23q1 -58 29.5 -91.5t80.5 -33.5q53 0 84.5 40.5t32.5 105.5q0 67 -29 106.5t-88 39.5q-54 0 -91 -33h-39v274h272v-39h-233v-191h2q37 28 92 28q76 0 117 -49.5t41 -131.5z" />
    <glyph glyph-name="six.smcp" unicode="&#xe441;" horiz-adv-x="440" 
d="M244 560h55l-21 -23q-110 -122 -156 -239h2q42 46 111 46q65 0 110 -46t45 -131q0 -79 -46.5 -128t-118.5 -49q-73 0 -118.5 50t-45.5 135q0 177 165 365zM104 166q0 -61 31 -100.5t90 -39.5t90.5 39.5t31.5 100.5t-31.5 101.5t-90.5 40.5t-90 -40t-31 -102z" />
    <glyph glyph-name="six.smcp" unicode="&#xe59e;" horiz-adv-x="440" 
d="M244 560h55l-21 -23q-110 -122 -156 -239h2q42 46 111 46q65 0 110 -46t45 -131q0 -79 -46.5 -128t-118.5 -49q-73 0 -118.5 50t-45.5 135q0 177 165 365zM104 166q0 -61 31 -100.5t90 -39.5t90.5 39.5t31.5 100.5t-31.5 101.5t-90.5 40.5t-90 -40t-31 -102z" />
    <glyph glyph-name="exclam.smcp" unicode="&#xe442;" horiz-adv-x="234" 
d="M136 178h-39l-4 382h47zM70 37q0 19 14 33t33 14t33 -14t14 -33t-14 -33t-33 -14t-33 14t-14 33z" />
    <glyph glyph-name="exclam.smcp" unicode="&#xf721;" horiz-adv-x="234" 
d="M136 178h-39l-4 382h47zM70 37q0 19 14 33t33 14t33 -14t14 -33t-14 -33t-33 -14t-33 14t-14 33z" />
    <glyph glyph-name="exclamdown.smcp" unicode="&#xe443;" horiz-adv-x="233" 
d="M97 382h39l4 -382h-47zM70 523q0 19 14 33t33 14t33 -14t14 -33t-14 -33t-33 -14t-33 14t-14 33z" />
    <glyph glyph-name="exclamdown.smcp" unicode="&#xf7a1;" horiz-adv-x="233" 
d="M97 382h39l4 -382h-47zM70 523q0 19 14 33t33 14t33 -14t14 -33t-14 -33t-33 -14t-33 14t-14 33z" />
    <glyph glyph-name="nine.smcp" unicode="&#xe444;" horiz-adv-x="440" 
d="M196 0h-55l20 23q109 117 157 239h-2q-42 -46 -112 -46q-65 0 -109.5 46t-44.5 131q0 80 46 128.5t119 48.5t118.5 -50t45.5 -135q0 -176 -166 -365zM336 394q0 61 -31 100.5t-90 39.5t-90.5 -39.5t-31.5 -100.5t31.5 -101.5t90.5 -40.5t90 40t31 102z" />
    <glyph glyph-name="nine.smcp" unicode="&#xe602;" horiz-adv-x="440" 
d="M196 0h-55l20 23q109 117 157 239h-2q-42 -46 -112 -46q-65 0 -109.5 46t-44.5 131q0 80 46 128.5t119 48.5t118.5 -50t45.5 -135q0 -176 -166 -365zM336 394q0 61 -31 100.5t-90 39.5t-90.5 -39.5t-31.5 -100.5t31.5 -101.5t90.5 -40.5t90 40t31 102z" />
    <glyph glyph-name="question.smcp" unicode="&#xe445;" horiz-adv-x="396" 
d="M343 418q0 -53 -34 -97.5t-105 -54.5l-4 -113h-36l-7 146l19 1q61 3 92 36.5t31 84.5q0 52 -31.5 81t-76.5 29q-49 0 -80 -31t-31 -88v-14h-43v7q0 80 42.5 122.5t112.5 42.5q64 0 107.5 -41t43.5 -111zM136 37q0 19 14 33t33 14t33 -14t14 -33t-14 -33t-33 -14t-33 14
t-14 33z" />
    <glyph glyph-name="question.smcp" unicode="&#xf73f;" horiz-adv-x="396" 
d="M343 418q0 -53 -34 -97.5t-105 -54.5l-4 -113h-36l-7 146l19 1q61 3 92 36.5t31 84.5q0 52 -31.5 81t-76.5 29q-49 0 -80 -31t-31 -88v-14h-43v7q0 80 42.5 122.5t112.5 42.5q64 0 107.5 -41t43.5 -111zM136 37q0 19 14 33t33 14t33 -14t14 -33t-14 -33t-33 -14t-33 14
t-14 33z" />
    <glyph glyph-name="questiondown.smcp" unicode="&#xe446;" horiz-adv-x="397" 
d="M54 142q0 53 34 97.5t105 54.5l4 113h36l7 -146l-19 -1q-61 -3 -92 -36.5t-31 -84.5q0 -52 31.5 -81t76.5 -29q49 0 80 31t31 88v14h43v-7q0 -80 -42.5 -122.5t-112.5 -42.5q-64 0 -107.5 41t-43.5 111zM261 523q0 -19 -13.5 -33t-33.5 -14t-33.5 14t-13.5 33t13.5 33
t33.5 14t33.5 -14t13.5 -33z" />
    <glyph glyph-name="questiondown.smcp" unicode="&#xf7bf;" horiz-adv-x="397" 
d="M54 142q0 53 34 97.5t105 54.5l4 113h36l7 -146l-19 -1q-61 -3 -92 -36.5t-31 -84.5q0 -52 31.5 -81t76.5 -29q49 0 80 31t31 88v14h43v-7q0 -80 -42.5 -122.5t-112.5 -42.5q-64 0 -107.5 41t-43.5 111zM261 523q0 -19 -13.5 -33t-33.5 -14t-33.5 14t-13.5 33t13.5 33
t33.5 14t33.5 -14t13.5 -33z" />
    <glyph glyph-name="slash.smcp" unicode="&#xe467;" horiz-adv-x="317" 
d="M43 0l189 560h41l-187 -560h-43z" />
    <glyph glyph-name="backslash.smcp" unicode="&#xe468;" horiz-adv-x="315" 
d="M83 560l189 -560h-41l-188 560h40z" />
    <glyph glyph-name="bar.smcp" unicode="&#xe469;" horiz-adv-x="217" 
d="M87 -74v682h43v-682h-43z" />
    <glyph glyph-name="brokenbar.smcp" unicode="&#xe46b;" horiz-adv-x="217" 
d="M130 327h-43v281h43v-281zM130 -74h-43v280h43v-280z" />
    <glyph glyph-name="J.alt" unicode="&#xe489;" horiz-adv-x="232" 
d="M-25 -71h31q47 0 67.5 20t20.5 65v686h44v-682q0 -65 -30.5 -97t-101.5 -32h-31v40z" />
    <glyph glyph-name="parenleft.cap" unicode="&#xe491;" horiz-adv-x="297" 
d="M92 343q0 -107 48.5 -219t125.5 -200v-8h-45q-84 104 -128.5 206t-44.5 221t44.5 220.5t128.5 205.5h45v-8q-78 -88 -126 -199.5t-48 -218.5z" />
    <glyph glyph-name="parenright.cap" unicode="&#xe492;" horiz-adv-x="297" 
d="M205 343q0 107 -48 218.5t-126 199.5v8h45q84 -104 128.5 -205.5t44.5 -220.5t-44.5 -221t-128.5 -206h-45v8q77 88 125.5 200t48.5 219z" />
    <glyph glyph-name="bracketleft.cap" unicode="&#xe493;" horiz-adv-x="326" 
d="M283 733h-146v-769h146v-42h-190v853h190v-42z" />
    <glyph glyph-name="bracketright.cap" unicode="&#xe494;" horiz-adv-x="326" 
d="M189 733h-146v42h190v-853h-190v42h146v769z" />
    <glyph glyph-name="braceleft.cap" unicode="&#xe495;" horiz-adv-x="348" 
d="M162 733v-299q0 -23 -11.5 -39t-31.5 -20q20 -4 31.5 -20t11.5 -39v-352h143v-42h-189v432h-80v42h80v379h189v-42h-143z" />
    <glyph glyph-name="braceright.cap" unicode="&#xe496;" horiz-adv-x="348" 
d="M186 434v299h-143v42h189v-379h80v-42h-80v-432h-189v42h143v352q0 23 11.5 39t31.5 20q-20 4 -31.5 20t-11.5 39z" />
    <glyph glyph-name="parenleft.smcp" unicode="&#xe499;" horiz-adv-x="250" 
d="M88 286q0 -89 38 -177.5t100 -157.5v-9h-43q-138 170 -138 344q0 95 35 174.5t103 163.5h43v-9q-63 -71 -100.5 -156.5t-37.5 -172.5z" />
    <glyph glyph-name="parenleft.smcp" unicode="&#xf618;" horiz-adv-x="250" 
d="M88 286q0 -89 38 -177.5t100 -157.5v-9h-43q-138 170 -138 344q0 95 35 174.5t103 163.5h43v-9q-63 -71 -100.5 -156.5t-37.5 -172.5z" />
    <glyph glyph-name="parenright.smcp" unicode="&#xe49a;" horiz-adv-x="250" 
d="M162 286q0 88 -37.5 173.5t-100.5 155.5v9h43q68 -84 103 -163.5t35 -174.5q0 -174 -138 -344h-43v9q63 69 100.5 157.5t37.5 177.5z" />
    <glyph glyph-name="parenright.smcp" unicode="&#xf619;" horiz-adv-x="250" 
d="M162 286q0 88 -37.5 173.5t-100.5 155.5v9h43q68 -84 103 -163.5t35 -174.5q0 -174 -138 -344h-43v9q63 69 100.5 157.5t37.5 177.5z" />
    <glyph glyph-name="bracketleft.smcp" unicode="&#xe49b;" horiz-adv-x="274" 
d="M246 584h-116v-602h116v-40h-159v682h159v-40z" />
    <glyph glyph-name="bracketleft.smcp" unicode="&#xf60e;" horiz-adv-x="274" 
d="M246 584h-116v-602h116v-40h-159v682h159v-40z" />
    <glyph glyph-name="bracketright.smcp" unicode="&#xe49c;" horiz-adv-x="274" 
d="M143 583h-115v41h159v-682h-159v40h115v601z" />
    <glyph glyph-name="bracketright.smcp" unicode="&#xf60f;" horiz-adv-x="274" 
d="M143 583h-115v41h159v-682h-159v40h115v601z" />
    <glyph glyph-name="braceleft.smcp" unicode="&#xe49d;" horiz-adv-x="280" 
d="M138 583v-227q0 -43 -35 -50q35 -7 35 -50v-274h114v-40h-158v343h-64v40h64v299h158v-41h-114z" />
    <glyph glyph-name="braceleft.smcp" unicode="&#xf60c;" horiz-adv-x="280" 
d="M138 583v-227q0 -43 -35 -50q35 -7 35 -50v-274h114v-40h-158v343h-64v40h64v299h158v-41h-114z" />
    <glyph glyph-name="braceright.smcp" unicode="&#xe49e;" horiz-adv-x="280" 
d="M142 356v227h-114v41h158v-299h64v-40h-64v-343h-158v40h114v274q0 43 35 50q-35 7 -35 50z" />
    <glyph glyph-name="braceright.smcp" unicode="&#xf60d;" horiz-adv-x="280" 
d="M142 356v227h-114v41h158v-299h64v-40h-64v-343h-158v40h114v274q0 43 35 50q-35 7 -35 50z" />
    <glyph glyph-name="seven.smcp" unicode="&#xe59f;" horiz-adv-x="440" 
d="M173 0h-48l192 521h-263v39h305v-38z" />
    <glyph glyph-name="eight.smcp" unicode="&#xe601;" horiz-adv-x="440" 
d="M220 26q58 0 91.5 35.5t33.5 84.5q0 50 -33.5 86.5t-91.5 36.5q-59 0 -92 -36.5t-33 -86.5q0 -49 33 -84.5t92 -35.5zM220 570q68 0 111 -42t43 -110q0 -41 -22.5 -77.5t-62.5 -52.5q44 -17 71.5 -55.5t27.5 -85.5q0 -70 -47 -113.5t-121 -43.5t-121 43t-47 114
q0 47 27.5 85.5t70.5 55.5q-40 16 -62.5 52.5t-22.5 77.5q0 68 43 110t112 42zM220 306q54 0 84 33t30 81t-30.5 81t-83.5 33q-54 0 -84.5 -33t-30.5 -81t30.5 -81t84.5 -33z" />
    <glyph glyph-name="IJ.alt" unicode="&#xe88a;" horiz-adv-x="464" 
d="M94 0v700h44v-700h-44zM207 -71h31q47 0 67.5 20t20.5 65v686h44v-682q0 -65 -30.5 -97t-101.5 -32h-31v40z" />
    <glyph glyph-name="sterling.smcp" unicode="&#xf189;" horiz-adv-x="429" 
d="M54 253v39h48q-25 71 -25 116q0 76 44.5 119t113.5 43q68 0 112 -40t44 -112v-5h-44q0 57 -30 87.5t-80 30.5q-57 0 -85 -35t-28 -88q0 -45 25 -116h148v-39h-135q17 -59 17 -96q0 -64 -40 -117h226v-40h-318v40h51q6 7 14 19.5t17 38t9 49.5q0 38 -22 106h-62z" />
    <glyph glyph-name="florin.smcp" unicode="&#xf190;" horiz-adv-x="296" 
d="M120 -49v295h-72v35h72v185q0 44 25.5 69t73.5 25h25v-37h-25q-57 0 -57 -55v-187h72v-35h-72v-285q0 -102 -100 -102h-25v37h26q57 0 57 55z" />
    <glyph glyph-name="yen.smcp" unicode="&#xf191;" horiz-adv-x="479" 
d="M219 234l-52 91h-110v39h91l-112 196h52l153 -281h2l153 281h50l-114 -196h88v-39h-108l-49 -91h157v-39h-157v-195h-44v195h-162v39h162z" />
    <glyph glyph-name="numbersign.smcp" unicode="&#xf192;" horiz-adv-x="448" 
d="M59 352v39h71v117h41v-117h106v117h40v-117h72v-39h-72v-113h72v-40h-72v-116h-40v116h-106v-116h-41v116h-71v40h71v113h-71zM171 352v-113h106v113h-106z" />
    <glyph glyph-name="percent.smcp" unicode="&#xf213;" horiz-adv-x="571" 
d="M57 454q0 48 33.5 82t81.5 34q46 0 80 -34.5t34 -81.5q0 -46 -34 -80t-80 -34q-48 0 -81.5 33.5t-33.5 80.5zM97 454q0 -32 22 -55t53 -23q30 0 52 23t22 55q0 33 -22 56t-52 23q-31 0 -53 -23t-22 -56zM519 105q0 -47 -33.5 -81t-81.5 -34q-47 0 -80.5 34t-33.5 81
t33.5 81t80.5 34q48 0 81.5 -34t33.5 -81zM479 105q0 32 -22 55.5t-53 23.5t-52.5 -23.5t-21.5 -55.5t21.5 -55.5t52.5 -23.5t53 23.5t22 55.5zM528 439l-468 -359l-23 30l468 359z" />
    <glyph glyph-name="perthousand.smcp" unicode="&#xf214;" horiz-adv-x="848" 
d="M63 454q0 48 33.5 82t81.5 34q46 0 80 -34.5t34 -81.5q0 -46 -34 -80t-80 -34q-48 0 -81.5 33.5t-33.5 80.5zM103 454q0 -32 22 -55t53 -23q30 0 52 23t22 55q0 33 -22 56t-52 23q-31 0 -53 -23t-22 -56zM525 105q0 -47 -33.5 -81t-81.5 -34q-47 0 -80.5 34t-33.5 81
t33.5 81t80.5 34q48 0 81.5 -34t33.5 -81zM485 105q0 32 -22 55.5t-53 23.5t-52.5 -23.5t-21.5 -55.5t21.5 -55.5t52.5 -23.5t53 23.5t22 55.5zM534 439l-468 -359l-23 30l468 359zM819 105q0 -47 -33.5 -81t-81.5 -34q-47 0 -80.5 34t-33.5 81t33.5 81t80.5 34
q48 0 81.5 -34t33.5 -81zM779 105q0 32 -22 55.5t-53 23.5t-52.5 -23.5t-21.5 -55.5t21.5 -55.5t52.5 -23.5t53 23.5t22 55.5z" />
    <glyph glyph-name="plusminus.smcp" unicode="&#xf231;" horiz-adv-x="424" 
d="M232 448v-145h146v-38h-146v-147h-41v147h-145v38h145v145h41zM46 0v38h332v-38h-332z" />
    <glyph glyph-name="multiply.smcp" unicode="&#xf232;" horiz-adv-x="428" 
d="M89 442l125 -125l126 126l29 -30l-126 -126l126 -125l-29 -29l-126 125l-125 -125l-30 29l126 126l-125 125z" />
    <glyph glyph-name="divide.smcp" unicode="&#xf233;" horiz-adv-x="424" 
d="M377 303v-38h-332v38h332zM163 145q0 19 13.5 33t33.5 14t33.5 -14t13.5 -33t-13.5 -33t-33.5 -14t-33.5 14t-13.5 33zM163 418q0 20 13.5 33.5t33.5 13.5t33.5 -13.5t13.5 -33.5t-13.5 -33.5t-33.5 -13.5t-33.5 13.5t-13.5 33.5z" />
    <glyph glyph-name="notequal.smcp" unicode="&#xf234;" horiz-adv-x="424" 
d="M46 329v39h145v80h41v-80h146v-39h-146v-91h146v-38h-146v-82h-41v82h-145v38h145v91h-145z" />
    <glyph glyph-name="approxequal.smcp" unicode="&#xf235;" horiz-adv-x="424" 
d="M113 389q18 0 99 -23.5t95 -23.5q17 0 24 8t7 29v9h40v-14q0 -29 -15 -51t-52 -22q-19 0 -103 24t-94 24q-28 0 -28 -37v-9h-40v14q0 28 15 50t52 22zM113 258q18 0 99 -23.5t95 -23.5q17 0 24 8t7 29v9h40v-14q0 -29 -15 -51t-52 -22q-19 0 -103 24t-94 24
q-28 0 -28 -37v-9h-40v14q0 28 15 50t52 22z" />
    <glyph glyph-name="less.smcp" unicode="&#xf236;" horiz-adv-x="497" 
d="M440 305v-39h-303l146 -143l-28 -28l-195 191l195 190l28 -28l-146 -143h303z" />
    <glyph glyph-name="greater.smcp" unicode="&#xf237;" horiz-adv-x="497" 
d="M56 266v39h303l-147 143l29 28l195 -190l-195 -191l-29 28l147 143h-303z" />
    <glyph glyph-name="lessequal.smcp" unicode="&#xf238;" horiz-adv-x="424" 
d="M372 174v-44l-332 121v53l332 121v-45l-291 -102zM372 0h-332v38h332v-38z" />
    <glyph glyph-name="greaterequal.smcp" unicode="&#xf239;" horiz-adv-x="424" 
d="M383 0h-332v38h332v-38zM51 130v44l291 104l-291 102v45l332 -121v-53z" />
    <glyph glyph-name="zero.alt" unicode="&#xf242;" horiz-adv-x="510" 
d="M255 712q189 0 189 -361q0 -177 -45 -270t-144 -93t-144 93t-45 270q0 361 189 361zM112 351q0 -326 143 -326q144 0 144 326q0 324 -144 324q-143 0 -143 -324z" />
    <glyph glyph-name="one.alt" unicode="&#xf243;" horiz-adv-x="399" 
d="M47 659v41h186v-659h139v-41h-322v41h139v618h-142z" />
    <glyph glyph-name="two.alt" unicode="&#xf244;" horiz-adv-x="504" 
d="M57 0v39q101 107 220 248q113 135 113 240q0 68 -42.5 108t-110.5 40q-59 0 -101 -34.5t-42 -95.5q0 -38 19 -79l-39 -12q-23 46 -23 92q0 79 57.5 122.5t133.5 43.5q82 0 137.5 -50t55.5 -134q0 -117 -134 -274l-189 -213h343v-41h-398z" />
    <glyph glyph-name="three.alt" unicode="&#xf245;" horiz-adv-x="493" 
d="M245 -12q-91 0 -142.5 54t-51.5 147v29h44v-19q0 -77 37 -125t112 -48q71 0 110.5 51t39.5 124q0 95 -47 134.5t-133 39.5q-12 0 -39 -3v27l210 260h-317v41h363v-44l-195 -244q91 0 147 -53.5t56 -150.5q0 -96 -51 -158t-143 -62z" />
    <glyph glyph-name="four.alt" unicode="&#xf246;" horiz-adv-x="495" 
d="M31 231v41l253 428h73v-428h105v-41h-105v-231h-45v231h-281zM310 666l-233 -394h235v394h-2z" />
    <glyph glyph-name="five.alt" unicode="&#xf247;" horiz-adv-x="490" 
d="M440 218q0 -102 -52.5 -166t-145.5 -64q-90 0 -140 53.5t-50 147.5v29h44v-19q0 -77 36 -125t111 -48q72 0 112 53t40 132q0 89 -36 143t-112 54q-63 0 -120 -44h-42v336h328v-41h-287v-252h2q50 39 121 39q93 0 142 -62.5t49 -165.5z" />
    <glyph glyph-name="six.alt" unicode="&#xf248;" horiz-adv-x="494" 
d="M276 700h54l-23 -26q-136 -154 -189 -306l2 -1q50 63 146 63q79 0 135 -57.5t56 -163.5q0 -99 -57.5 -160t-146.5 -61q-90 0 -145.5 62.5t-55.5 167.5q0 229 200 455zM97 208q0 -80 40 -132t116 -52q77 0 118 52t41 132t-41 132.5t-118 52.5q-76 0 -116 -52t-40 -133z
" />
    <glyph glyph-name="seven.alt" unicode="&#xf249;" horiz-adv-x="432" 
d="M177 0h-51l240 659h-332v41h376v-42z" />
    <glyph glyph-name="eight.alt" unicode="&#xf250;" horiz-adv-x="522" 
d="M261 24q76 0 119 47t43 111t-43 110.5t-119 46.5t-119 -46.5t-43 -110.5t43 -111t119 -47zM261 712q81 0 135 -52t54 -135q0 -52 -28.5 -99t-79.5 -66q55 -19 90 -68t35 -109q0 -88 -57.5 -141.5t-148.5 -53.5t-148.5 53.5t-57.5 141.5q0 60 35 109t90 68
q-51 19 -79.5 66t-28.5 99q0 83 54 135t135 52zM261 377q69 0 108.5 42.5t39.5 106.5t-39.5 107t-108.5 43t-108.5 -43t-39.5 -107t39.5 -106.5t108.5 -42.5z" />
    <glyph glyph-name="nine.alt" unicode="&#xf251;" horiz-adv-x="494" 
d="M218 0h-54l23 26q136 154 189 306l-2 1q-50 -63 -146 -63q-79 0 -135 57.5t-56 163.5q0 99 57.5 160t146.5 61q90 0 145.5 -62.5t55.5 -167.5q0 -229 -200 -455zM397 492q0 80 -40 132t-116 52q-77 0 -118 -52t-41 -132t41 -132.5t118 -52.5q76 0 116 52t40 133z" />
    <glyph glyph-name="zero.posf" unicode="&#xf252;" horiz-adv-x="475" 
d="M50 234q0 117 51 181.5t136 64.5t136.5 -64.5t51.5 -181.5t-51.5 -181.5t-136.5 -64.5t-136 64.5t-51 181.5zM380 234q0 95 -37 151.5t-106 56.5q-68 0 -105 -57t-37 -151t37 -151t105 -57q69 0 106 56.5t37 151.5z" />
    <glyph glyph-name="one.posf" unicode="&#xf253;" horiz-adv-x="344" 
d="M50 426v39h155v-426h109v-39h-261v39h110v387h-113z" />
    <glyph glyph-name="two.posf" unicode="&#xf254;" horiz-adv-x="458" 
d="M55 0v39l160 116q70 51 103 91.5t34 88.5q0 50 -35.5 78.5t-90.5 28.5q-59 0 -93 -30t-34 -75q0 -28 17 -61l-44 -7q-18 36 -18 72q0 59 47.5 99t127.5 40q75 0 122.5 -41t47.5 -104q0 -58 -34.5 -100t-112.5 -100l-134 -96h289v-39h-352z" />
    <glyph glyph-name="three.posf" unicode="&#xf255;" horiz-adv-x="456" 
d="M224 -152q-85 0 -133 47t-48 129v26h45v-18q0 -66 33.5 -106.5t101.5 -40.5q64 0 100.5 44t36.5 105q0 80 -42.5 112.5t-119.5 32.5q-32 0 -39 -1v30l197 218h-289v39h340v-41l-185 -206q84 -2 134 -48.5t50 -130.5t-47.5 -137.5t-134.5 -53.5z" />
    <glyph glyph-name="four.posf" unicode="&#xf256;" horiz-adv-x="459" 
d="M28 59v37l234 369h70v-369h98v-37h-98v-200h-43v200h-261zM285 430l-212 -334h216v334h-4z" />
    <glyph glyph-name="five.posf" unicode="&#xf257;" horiz-adv-x="455" 
d="M409 48q0 -90 -49 -145t-137 -55q-84 0 -130.5 46.5t-46.5 129.5v26h44v-18q0 -66 33 -106.5t101 -40.5q65 0 102 45.5t37 111.5q0 74 -33 120t-102 46q-56 0 -111 -36h-41v293h317v-39h-276v-214q51 35 113 35q88 0 133.5 -54.5t45.5 -144.5z" />
    <glyph glyph-name="six.posf" unicode="&#xf258;" horiz-adv-x="468" 
d="M123 325l2 -1q47 49 126 49q71 0 123.5 -50.5t52.5 -143.5q0 -85 -52.5 -138t-134.5 -53t-133 54t-51 145q0 193 194 407l10 11h56l-15 -16q-130 -141 -178 -264zM101 178q0 -66 35.5 -110t103.5 -44q69 0 105.5 44t36.5 110q0 70 -36.5 114.5t-105.5 44.5
q-68 0 -103.5 -44.5t-35.5 -114.5z" />
    <glyph glyph-name="seven.posf" unicode="&#xf259;" horiz-adv-x="412" 
d="M165 -141h-49l222 567h-308v39h352v-38z" />
    <glyph glyph-name="eight.posf" unicode="&#xf260;" horiz-adv-x="504" 
d="M252 24q69 0 108.5 40t39.5 93t-39.5 92.5t-108.5 39.5t-108.5 -39.5t-39.5 -92.5t39.5 -93t108.5 -40zM252 614q77 0 127 -44.5t50 -116.5q0 -47 -29.5 -88t-74.5 -56q52 -14 86 -56t34 -95q0 -77 -54 -123.5t-139 -46.5t-139 46.5t-54 123.5q0 53 34 95t86 56
q-45 15 -74.5 56t-29.5 88q0 72 50 116.5t127 44.5zM252 326q61 0 98 37t37 91q0 53 -36.5 89t-98.5 36t-98.5 -36t-36.5 -89q0 -54 37 -91t98 -37z" />
    <glyph glyph-name="nine.posf" unicode="&#xf261;" horiz-adv-x="444" 
d="M336 129l-2 1q-47 -49 -126 -49q-71 0 -123.5 50.5t-52.5 143.5q0 85 52.5 138t134.5 53t133 -54t51 -145q0 -193 -194 -407l-10 -11h-56l15 16q130 141 178 264zM358 276q0 66 -35.5 110t-103.5 44q-69 0 -105.5 -44t-36.5 -110q0 -70 36.5 -114.5t105.5 -44.5
q68 0 103.5 44.5t35.5 114.5z" />
    <glyph glyph-name="zero.sups" unicode="&#xf262;" 
d="M215 843q114 0 114 -199q0 -200 -114 -200t-114 200q0 199 114 199zM143 644q0 -163 72 -163q71 0 71 163t-71 163q-72 0 -72 -163z" />
    <glyph glyph-name="one.sups" unicode="&#xf263;" 
d="M126 799v37h119v-348h76v-37h-195v37h76v311h-76z" />
    <glyph glyph-name="two.sups" unicode="&#xf264;" 
d="M99 451v38l113 117q40 42 55.5 71t15.5 59t-19 50t-53 20q-30 0 -50 -17t-20 -46q0 -22 11 -44l-40 -9q-13 28 -13 54q0 42 31.5 70.5t81.5 28.5t82 -30t32 -76q0 -34 -20 -71.5t-76 -94.5l-79 -81h183v-39h-235z" />
    <glyph glyph-name="three.sups" unicode="&#xf265;" 
d="M209 444q-52 0 -83.5 31.5t-31.5 83.5v14h43v-15q0 -34 18 -55.5t54 -21.5q37 0 55.5 23.5t18.5 62.5q0 36 -22.5 58.5t-59.5 22.5q-25 0 -37 -3v33l108 121h-163v37h207v-42l-103 -113q49 0 81.5 -32.5t32.5 -81.5q0 -54 -32 -88.5t-86 -34.5z" />
    <glyph glyph-name="four.sups" unicode="&#xf266;" 
d="M83 570v35l134 233h65v-233h60v-35h-60v-117h-41v117h-158zM239 809l-116 -204h118v204h-2z" />
    <glyph glyph-name="five.sups" unicode="&#xf267;" 
d="M332 574q0 -58 -32 -94t-85 -36t-84.5 31.5t-31.5 83.5v14h43v-15q0 -34 18 -55.5t54 -21.5q37 0 56 25t19 65q0 41 -18.5 66t-55.5 25q-36 0 -59 -21h-36v195h193v-37h-156v-118h1q25 18 61 18q54 0 83.5 -34.5t29.5 -90.5z" />
    <glyph glyph-name="six.sups" unicode="&#xf268;" 
d="M234 836h56l-16 -17q-81 -86 -116 -156l1 -1q26 26 67 26q47 0 79 -31.5t32 -90.5q0 -55 -33 -88.5t-85 -33.5q-53 0 -86 34.5t-33 93.5q0 114 121 250zM143 566q0 -37 19.5 -61t56.5 -24q36 0 55.5 24.5t19.5 60.5q0 37 -19.5 61.5t-55.5 24.5q-37 0 -56.5 -24.5
t-19.5 -61.5z" />
    <glyph glyph-name="seven.sups" unicode="&#xf269;" 
d="M189 451h-48l134 346h-178v39h219v-36z" />
    <glyph glyph-name="eight.sups" unicode="&#xf270;" 
d="M215 479q36 0 57 22.5t21 53.5t-21 53t-57 22q-37 0 -57.5 -22t-20.5 -53t20.5 -53.5t57.5 -22.5zM215 843q51 0 81.5 -29.5t30.5 -77.5q0 -29 -15 -52.5t-41 -33.5q27 -12 46 -38t19 -57q0 -50 -34 -80.5t-87 -30.5t-87 30.5t-34 80.5q0 31 18.5 57t45.5 38
q-26 10 -40.5 33.5t-14.5 52.5q0 48 30.5 77.5t81.5 29.5zM215 665q34 0 52 20t18 51t-18 51t-52 20q-35 0 -53 -20t-18 -51t18 -51t53 -20z" />
    <glyph glyph-name="nine.sups" unicode="&#xf271;" 
d="M195 451h-57l16 17q80 83 117 156l-1 1q-25 -25 -68 -25q-47 0 -79 31t-32 90q0 55 33 88.5t86 33.5t85.5 -34.5t32.5 -93.5q0 -113 -120 -250zM285 721q0 37 -19.5 61t-55.5 24q-37 0 -56.5 -24t-19.5 -61t20 -61.5t56 -24.5t55.5 24.5t19.5 61.5z" />
    <glyph glyph-name="zero.sinf" unicode="&#xf272;" 
d="M215 244q114 0 114 -199q0 -200 -114 -200t-114 200q0 199 114 199zM143 45q0 -163 72 -163q71 0 71 163t-71 163q-72 0 -72 -163z" />
    <glyph glyph-name="one.sinf" unicode="&#xf273;" 
d="M126 200v37h119v-348h76v-37h-195v37h76v311h-76z" />
    <glyph glyph-name="two.sinf" unicode="&#xf274;" 
d="M100 -148v38l113 117q40 42 55.5 71t15.5 59t-19 50t-53 20q-30 0 -50 -17t-20 -46q0 -22 11 -44l-40 -9q-13 28 -13 54q0 42 31.5 70.5t81.5 28.5t82 -30t32 -76q0 -34 -20 -71.5t-76 -94.5l-79 -81h183v-39h-235z" />
    <glyph glyph-name="three.sinf" unicode="&#xf275;" 
d="M209 -155q-52 0 -83.5 31.5t-31.5 83.5v14h43v-15q0 -34 18 -55.5t54 -21.5q37 0 55.5 23.5t18.5 62.5q0 36 -22.5 58.5t-59.5 22.5q-25 0 -37 -3v33l108 121h-163v37h207v-42l-103 -113q49 0 81.5 -32t32.5 -82q0 -54 -32 -88.5t-86 -34.5z" />
    <glyph glyph-name="four.sinf" unicode="&#xf276;" 
d="M83 -29v35l134 233h65v-233h60v-35h-60v-117h-41v117h-158zM239 210l-116 -204h118v204h-2z" />
    <glyph glyph-name="five.sinf" unicode="&#xf277;" 
d="M331 -25q0 -58 -32 -94t-85 -36t-84.5 31.5t-31.5 83.5v14h43v-15q0 -34 18 -55.5t54 -21.5q37 0 56 25t19 65q0 41 -18.5 66t-55.5 25q-36 0 -59 -21h-36v195h193v-37h-156v-118h1q25 18 61 18q54 0 83.5 -34.5t29.5 -90.5z" />
    <glyph glyph-name="six.sinf" unicode="&#xf278;" 
d="M235 237h56l-16 -17q-81 -86 -116 -156l1 -1q26 26 67 26q47 0 79 -31.5t32 -90.5q0 -55 -33 -88.5t-85 -33.5q-53 0 -86 34.5t-33 93.5q0 114 121 250zM144 -33q0 -37 19.5 -61t56.5 -24q36 0 55.5 24t19.5 61t-19.5 61.5t-55.5 24.5q-37 0 -56.5 -24.5t-19.5 -61.5z
" />
    <glyph glyph-name="seven.sinf" unicode="&#xf279;" 
d="M189 -148h-48l134 346h-178v39h219v-36z" />
    <glyph glyph-name="eight.sinf" unicode="&#xf280;" 
d="M215 -120q36 0 57 22.5t21 53.5t-21 53t-57 22q-37 0 -57.5 -22t-20.5 -53t20.5 -53.5t57.5 -22.5zM215 244q51 0 81.5 -29.5t30.5 -77.5q0 -29 -15 -52.5t-41 -33.5q27 -12 46 -38t19 -57q0 -50 -34 -80.5t-87 -30.5t-87 30.5t-34 80.5q0 31 18.5 57t45.5 38
q-26 10 -40.5 33.5t-14.5 52.5q0 48 30.5 77.5t81.5 29.5zM215 66q34 0 52 20t18 51t-18 51t-52 20q-35 0 -53 -20t-18 -51t18 -51t53 -20z" />
    <glyph glyph-name="nine.sinf" unicode="&#xf281;" 
d="M196 -148h-57l16 17q80 83 117 156l-1 1q-25 -25 -68 -25q-47 0 -79 31t-32 90q0 55 33 88.5t86 33.5t85.5 -34.5t32.5 -93.5q0 -113 -120 -250zM286 122q0 37 -19.5 61t-55.5 24q-37 0 -56.5 -24t-19.5 -61t20 -61.5t56 -24.5t55.5 24.5t19.5 61.5z" />
    <glyph glyph-name="onefifth" unicode="&#xf282;" horiz-adv-x="1080" 
d="M125 663v37h119v-348h76v-37h-195v37h76v311h-76zM849 728l29 -26l-673 -723l-29 26zM981 123q0 -58 -32 -94t-85 -36t-84.5 31.5t-31.5 83.5v14h43v-15q0 -34 18 -55.5t54 -21.5q37 0 56 25t19 65q0 41 -18.5 66t-55.5 25q-36 0 -59 -21h-36v195h193v-37h-156v-118h1
q25 18 61 18q54 0 83.5 -34.5t29.5 -90.5z" />
    <glyph glyph-name="twofifths" unicode="&#xf283;" horiz-adv-x="1080" 
d="M849 728l29 -26l-673 -723l-29 26zM106 315v38l113 117q40 42 55.5 71t15.5 59t-19 50t-53 20q-30 0 -50 -17t-20 -46q0 -22 11 -44l-40 -9q-13 28 -13 54q0 42 31.5 70.5t81.5 28.5t82 -30t32 -76q0 -34 -20 -71.5t-76 -94.5l-79 -81h183v-39h-235zM981 123
q0 -58 -32 -94t-85 -36t-84.5 31.5t-31.5 83.5v14h43v-15q0 -34 18 -55.5t54 -21.5q37 0 56 25t19 65q0 41 -18.5 66t-55.5 25q-36 0 -59 -21h-36v195h193v-37h-156v-118h1q25 18 61 18q54 0 83.5 -34.5t29.5 -90.5z" />
    <glyph glyph-name="threefifths" unicode="&#xf284;" horiz-adv-x="1080" 
d="M239 308q-52 0 -83.5 31.5t-31.5 83.5v14h43v-15q0 -34 18 -55.5t54 -21.5q37 0 55.5 23.5t18.5 62.5q0 36 -22.5 58.5t-59.5 22.5q-25 0 -37 -3v33l108 121h-163v37h207v-42l-103 -113q49 0 81.5 -32.5t32.5 -81.5q0 -54 -32 -88.5t-86 -34.5zM849 728l29 -26l-673 -723
l-29 26zM981 123q0 -58 -32 -94t-85 -36t-84.5 31.5t-31.5 83.5v14h43v-15q0 -34 18 -55.5t54 -21.5q37 0 56 25t19 65q0 41 -18.5 66t-55.5 25q-36 0 -59 -21h-36v195h193v-37h-156v-118h1q25 18 61 18q54 0 83.5 -34.5t29.5 -90.5z" />
    <glyph glyph-name="fourfifths" unicode="&#xf285;" horiz-adv-x="1080" 
d="M849 728l29 -26l-673 -723l-29 26zM981 123q0 -58 -32 -94t-85 -36t-84.5 31.5t-31.5 83.5v14h43v-15q0 -34 18 -55.5t54 -21.5q37 0 56 25t19 65q0 41 -18.5 66t-55.5 25q-36 0 -59 -21h-36v195h193v-37h-156v-118h1q25 18 61 18q54 0 83.5 -34.5t29.5 -90.5zM129 432
v35l134 233h65v-233h60v-35h-60v-117h-41v117h-158zM285 671l-116 -204h118v204h-2z" />
    <glyph glyph-name="onesixth" unicode="&#xf286;" horiz-adv-x="1080" 
d="M125 663v37h119v-348h76v-37h-195v37h76v311h-76zM849 728l29 -26l-673 -723l-29 26zM866 385h56l-16 -17q-81 -86 -116 -156l1 -1q26 26 67 26q47 0 79 -31.5t32 -90.5q0 -55 -33 -88.5t-85 -33.5q-53 0 -86 34.5t-33 93.5q0 114 121 250zM775 115q0 -37 19.5 -61
t56.5 -24q36 0 55.5 24t19.5 61t-19.5 61.5t-55.5 24.5q-37 0 -56.5 -24.5t-19.5 -61.5z" />
    <glyph glyph-name="fivesixths" unicode="&#xf287;" horiz-adv-x="1080" 
d="M849 728l29 -26l-673 -723l-29 26zM866 385h56l-16 -17q-81 -86 -116 -156l1 -1q26 26 67 26q47 0 79 -31.5t32 -90.5q0 -55 -33 -88.5t-85 -33.5q-53 0 -86 34.5t-33 93.5q0 114 121 250zM775 115q0 -37 19.5 -61t56.5 -24q36 0 55.5 24t19.5 61t-19.5 61.5t-55.5 24.5
q-37 0 -56.5 -24.5t-19.5 -61.5zM362 438q0 -58 -32 -94t-85 -36t-84.5 31.5t-31.5 83.5v14h43v-15q0 -34 18 -55.5t54 -21.5q37 0 56 25t19 65q0 41 -18.5 66t-55.5 25q-36 0 -59 -21h-36v195h193v-37h-156v-118h1q25 18 61 18q54 0 83.5 -34.5t29.5 -90.5z" />
    <glyph glyph-name="oneseventh" unicode="&#xf288;" horiz-adv-x="1080" 
d="M125 663v37h119v-348h76v-37h-195v37h76v311h-76zM831 0h-48l134 346h-178v39h219v-36zM849 728l29 -26l-673 -723l-29 26z" />
    <glyph glyph-name="twosevenths" unicode="&#xf289;" horiz-adv-x="1080" 
d="M106 315v38l113 117q40 42 55.5 71t15.5 59t-19 50t-53 20q-30 0 -50 -17t-20 -46q0 -22 11 -44l-40 -9q-13 28 -13 54q0 42 31.5 70.5t81.5 28.5t82 -30t32 -76q0 -34 -20 -71.5t-76 -94.5l-79 -81h183v-39h-235zM849 728l29 -26l-673 -723l-29 26zM831 0h-48l134 346
h-178v39h219v-36z" />
    <glyph glyph-name="threesevenths" unicode="&#xf290;" horiz-adv-x="1080" 
d="M239 308q-52 0 -83.5 31.5t-31.5 83.5v14h43v-15q0 -34 18 -55.5t54 -21.5q37 0 55.5 23.5t18.5 62.5q0 36 -22.5 58.5t-59.5 22.5q-25 0 -37 -3v33l108 121h-163v37h207v-42l-103 -113q49 0 81.5 -32.5t32.5 -81.5q0 -54 -32 -88.5t-86 -34.5zM849 728l29 -26l-673 -723
l-29 26zM831 0h-48l134 346h-178v39h219v-36z" />
    <glyph glyph-name="foursevenths" unicode="&#xf291;" horiz-adv-x="1080" 
d="M129 432v35l134 233h65v-233h60v-35h-60v-117h-41v117h-158zM285 671l-116 -204h118v204h-2zM849 728l29 -26l-673 -723l-29 26zM831 0h-48l134 346h-178v39h219v-36z" />
    <glyph glyph-name="fivesevenths" unicode="&#xf292;" horiz-adv-x="1080" 
d="M362 438q0 -58 -32 -94t-85 -36t-84.5 31.5t-31.5 83.5v14h43v-15q0 -34 18 -55.5t54 -21.5q37 0 56 25t19 65q0 41 -18.5 66t-55.5 25q-36 0 -59 -21h-36v195h193v-37h-156v-118h1q25 18 61 18q54 0 83.5 -34.5t29.5 -90.5zM849 728l29 -26l-673 -723l-29 26zM831 0h-48
l134 346h-178v39h219v-36z" />
    <glyph glyph-name="sixsevenths" unicode="&#xf293;" horiz-adv-x="1080" 
d="M277 700h56l-16 -17q-81 -86 -116 -156l1 -1q26 26 67 26q47 0 79 -31.5t32 -90.5q0 -55 -33 -88.5t-85 -33.5q-53 0 -86 34.5t-33 93.5q0 114 121 250zM186 430q0 -37 19.5 -61t56.5 -24q36 0 55.5 24.5t19.5 60.5q0 37 -19.5 61.5t-55.5 24.5q-37 0 -56.5 -24.5
t-19.5 -61.5zM849 728l29 -26l-673 -723l-29 26zM831 0h-48l134 346h-178v39h219v-36z" />
    <glyph glyph-name="oneninth" unicode="&#xf294;" horiz-adv-x="1080" 
d="M125 663v37h119v-348h76v-37h-195v37h76v311h-76zM826 0h-57l16 17q80 83 117 156l-1 1q-25 -25 -68 -25q-47 0 -79 31t-32 90q0 55 33 88.5t86 33.5t85.5 -34.5t32.5 -93.5q0 -112 -120 -250zM916 270q0 37 -19.5 61t-55.5 24q-37 0 -56.5 -24t-19.5 -61t20 -61.5
t56 -24.5t55.5 24.5t19.5 61.5zM849 728l29 -26l-673 -723l-29 26z" />
    <glyph glyph-name="twoninths" unicode="&#xf295;" horiz-adv-x="1080" 
d="M106 315v38l113 117q40 42 55.5 71t15.5 59t-19 50t-53 20q-30 0 -50 -17t-20 -46q0 -22 11 -44l-40 -9q-13 28 -13 54q0 42 31.5 70.5t81.5 28.5t82 -30t32 -76q0 -34 -20 -71.5t-76 -94.5l-79 -81h183v-39h-235zM849 728l29 -26l-673 -723l-29 26zM826 0h-57l16 17
q80 83 117 156l-1 1q-25 -25 -68 -25q-47 0 -79 31t-32 90q0 55 33 88.5t86 33.5t85.5 -34.5t32.5 -93.5q0 -112 -120 -250zM916 270q0 37 -19.5 61t-55.5 24q-37 0 -56.5 -24t-19.5 -61t20 -61.5t56 -24.5t55.5 24.5t19.5 61.5z" />
    <glyph glyph-name="fourninths" unicode="&#xf296;" horiz-adv-x="1080" 
d="M129 432v35l134 233h65v-233h60v-35h-60v-117h-41v117h-158zM285 671l-116 -204h118v204h-2zM849 728l29 -26l-673 -723l-29 26zM826 0h-57l16 17q80 83 117 156l-1 1q-25 -25 -68 -25q-47 0 -79 31t-32 90q0 55 33 88.5t86 33.5t85.5 -34.5t32.5 -93.5q0 -112 -120 -250
zM916 270q0 37 -19.5 61t-55.5 24q-37 0 -56.5 -24t-19.5 -61t20 -61.5t56 -24.5t55.5 24.5t19.5 61.5z" />
    <glyph glyph-name="fiveninths" unicode="&#xf297;" horiz-adv-x="1080" 
d="M362 438q0 -58 -32 -94t-85 -36t-84.5 31.5t-31.5 83.5v14h43v-15q0 -34 18 -55.5t54 -21.5q37 0 56 25t19 65q0 41 -18.5 66t-55.5 25q-36 0 -59 -21h-36v195h193v-37h-156v-118h1q25 18 61 18q54 0 83.5 -34.5t29.5 -90.5zM849 728l29 -26l-673 -723l-29 26zM826 0h-57
l16 17q80 83 117 156l-1 1q-25 -25 -68 -25q-47 0 -79 31t-32 90q0 55 33 88.5t86 33.5t85.5 -34.5t32.5 -93.5q0 -112 -120 -250zM916 270q0 37 -19.5 61t-55.5 24q-37 0 -56.5 -24t-19.5 -61t20 -61.5t56 -24.5t55.5 24.5t19.5 61.5z" />
    <glyph glyph-name="sevenninths" unicode="&#xf298;" horiz-adv-x="1080" 
d="M250 315h-48l134 346h-178v39h219v-36zM849 728l29 -26l-673 -723l-29 26zM826 0h-57l16 17q80 83 117 156l-1 1q-25 -25 -68 -25q-47 0 -79 31t-32 90q0 55 33 88.5t86 33.5t85.5 -34.5t32.5 -93.5q0 -112 -120 -250zM916 270q0 37 -19.5 61t-55.5 24q-37 0 -56.5 -24
t-19.5 -61t20 -61.5t56 -24.5t55.5 24.5t19.5 61.5z" />
    <glyph glyph-name="eightninths" unicode="&#xf299;" horiz-adv-x="1080" 
d="M235 343q36 0 57 22.5t21 53.5t-21 53t-57 22q-37 0 -57.5 -22t-20.5 -53t20.5 -53.5t57.5 -22.5zM235 707q51 0 81.5 -29.5t30.5 -77.5q0 -29 -15 -52.5t-41 -33.5q27 -12 46 -38t19 -57q0 -50 -34 -80.5t-87 -30.5t-87 30.5t-34 80.5q0 31 18.5 57t45.5 38
q-26 10 -40.5 33.5t-14.5 52.5q0 48 30.5 77.5t81.5 29.5zM235 529q34 0 52 20t18 51t-18 51t-52 20q-35 0 -53 -20t-18 -51t18 -51t53 -20zM849 728l29 -26l-673 -723l-29 26zM826 0h-57l16 17q80 83 117 156l-1 1q-25 -25 -68 -25q-47 0 -79 31t-32 90q0 55 33 88.5
t86 33.5t85.5 -34.5t32.5 -93.5q0 -112 -120 -250zM916 270q0 37 -19.5 61t-55.5 24q-37 0 -56.5 -24t-19.5 -61t20 -61.5t56 -24.5t55.5 24.5t19.5 61.5z" />
    <glyph glyph-name="at.alt" unicode="&#xf300;" horiz-adv-x="875" 
d="M607 437v-197q0 -40 13.5 -61.5t49.5 -21.5q54 0 89.5 69t35.5 159q0 145 -97.5 237.5t-246.5 92.5q-150 0 -255.5 -103t-105.5 -263q0 -158 109.5 -260.5t263.5 -102.5q128 0 212 59h63q-105 -96 -272 -96q-181 0 -299.5 114t-118.5 288q0 173 116 287t296 114
q156 0 266.5 -103t110.5 -267q0 -117 -49.5 -189.5t-121.5 -72.5q-41 0 -65 21t-32 54q-17 -31 -59.5 -53t-87.5 -22q-69 0 -113 35.5t-44 96.5q0 56 38 88t101 32h108q52 0 52 47v20q0 51 -34.5 76t-85.5 25q-74 0 -130 -48l-22 33q22 20 63 36.5t90 16.5q73 0 117.5 -37.5
t44.5 -103.5zM426 157q57 0 97.5 33.5t40.5 91.5v77q-15 -23 -63 -23h-95q-48 0 -72 -23.5t-24 -61.5q0 -35 28 -64.5t88 -29.5z" />
    <glyph glyph-name="ct" unicode="&#xf303;" horiz-adv-x="768" 
d="M264 -12q-93 0 -157 65t-64 164q0 93 58 157t144 71q-34 37 -34 83q0 20 7.5 39.5t23.5 39.5t48.5 32.5t77.5 12.5h273v-218h109v-36h-109v-319q0 -24 16.5 -36t39.5 -12l53 4v-35q-25 -4 -61 -4q-91 0 -91 94v308h-75v36h75v182h-227q-55 0 -86 -24.5t-31 -64.5
q0 -49 41 -84q55 -7 100 -40.5t68 -84.5l-38 -19q-21 49 -63.5 79t-97.5 30q-78 0 -128 -55t-50 -136t50 -136t128 -55q55 0 97.5 30t63.5 79l38 -19q-26 -59 -79.5 -93.5t-119.5 -34.5z" />
    <glyph glyph-name="i.locl" unicode="&#xf304;" horiz-adv-x="203" 
d="M130 434v-434h-43v398h-70v36h113zM61 591q0 18 13 31t31 13t31 -13t13 -31t-13 -31t-31 -13t-31 13t-13 31z" />
    <glyph glyph-name="questiondown.alt" unicode="&#xf305;" horiz-adv-x="450" 
d="M37 174q0 67 44 123.5t132 68.5l5 144h37l8 -176l-17 -2q-82 -9 -122.5 -52.5t-40.5 -108.5q0 -69 42 -106.5t99 -37.5q64 0 104 42t40 119v8h45v-4q0 -100 -52.5 -152t-138.5 -52q-75 0 -130 49.5t-55 136.5zM286 656q0 -21 -14.5 -35.5t-35.5 -14.5t-35.5 14.5
t-14.5 35.5t14.5 35.5t35.5 14.5t35.5 -14.5t14.5 -35.5z" />
    <glyph glyph-name="exclamdown.alt" unicode="&#xf306;" horiz-adv-x="254" 
d="M108 477h40l6 -477h-53zM77 656q0 21 14.5 35.5t35.5 14.5t35.5 -14.5t14.5 -35.5t-14.5 -35.5t-35.5 -14.5t-35.5 14.5t-14.5 35.5z" />
    <glyph glyph-name="hyphen.alt" unicode="&#xf307;" horiz-adv-x="250" 
d="M21 335v42h207v-42h-207z" />
    <glyph glyph-name="endash.alt" unicode="&#xf308;" horiz-adv-x="500" 
d="M40 335v42h420v-42h-420z" />
    <glyph glyph-name="emdash.alt" unicode="&#xf309;" horiz-adv-x="1000" 
d="M40 335v42h920v-42h-920z" />
    <glyph glyph-name="guillemotleft.alt" unicode="&#xf310;" horiz-adv-x="460" 
d="M183 205l-103 152l103 153h53l-102 -153l102 -152h-53zM333 205l-103 152l103 153h53l-102 -153l102 -152h-53z" />
    <glyph glyph-name="guillemotright.alt" unicode="&#xf311;" horiz-adv-x="460" 
d="M230 357l-103 -152h-53l102 152l-102 153h53zM380 357l-103 -152h-53l102 152l-102 153h53z" />
    <glyph glyph-name="guilsinglleft.alt" unicode="&#xf312;" horiz-adv-x="316" 
d="M183 205l-103 152l103 153h53l-102 -153l102 -152h-53z" />
    <glyph glyph-name="guilsinglright.alt" unicode="&#xf313;" horiz-adv-x="316" 
d="M236 357l-103 -152h-53l102 152l-102 153h53z" />
    <glyph glyph-name="orn.1" unicode="&#xf314;" horiz-adv-x="860" 
d="M55 349q0 155 109.5 265t265.5 110q155 0 265 -110t110 -265q0 -156 -110 -265.5t-265 -109.5q-156 0 -265.5 109.5t-109.5 265.5zM430 183q-73 0 -73 166q0 164 73 164t73 -164q0 -166 -73 -166zM430 548q-113 0 -113 -199q0 -200 113 -200t113 200q0 199 -113 199z" />
    <glyph glyph-name="orn.2" unicode="&#xf315;" horiz-adv-x="860" 
d="M55 349q0 155 109.5 265t265.5 110q155 0 265 -110t110 -265q0 -156 -110 -265.5t-265 -109.5q-156 0 -265.5 109.5t-109.5 265.5zM335 541v-37h76v-311h-76v-37h195v37h-76v348h-119z" />
    <glyph glyph-name="orn.3" unicode="&#xf316;" horiz-adv-x="860" 
d="M55 349q0 155 109.5 265t265.5 110q155 0 265 -110t110 -265q0 -156 -110 -265.5t-265 -109.5q-156 0 -265.5 109.5t-109.5 265.5zM315 194v-38h235v39h-183l79 81q56 57 76 94.5t20 71.5q0 46 -32 76t-82 30t-81.5 -28.5t-31.5 -70.5q0 -26 13 -54l40 9q-11 22 -11 44
q0 29 20 46t50 17q34 0 53 -20t19 -50t-15.5 -59t-55.5 -71z" />
    <glyph glyph-name="orn.4" unicode="&#xf317;" horiz-adv-x="860" 
d="M55 349q0 155 109.5 265t265.5 110q155 0 265 -110t110 -265q0 -156 -110 -265.5t-265 -109.5q-156 0 -265.5 109.5t-109.5 265.5zM431 149q54 0 86 34.5t32 88.5q0 50 -32.5 82t-81.5 32l103 113v42h-207v-37h163l-108 -121v-33q12 3 37 3q37 0 59.5 -22.5t22.5 -58.5
q0 -39 -18.5 -62.5t-55.5 -23.5q-36 0 -54 21.5t-18 55.5v15h-43v-14q0 -52 31.5 -83.5t83.5 -31.5z" />
    <glyph glyph-name="orn.5" unicode="&#xf318;" horiz-adv-x="860" 
d="M55 349q0 155 109.5 265t265.5 110q155 0 265 -110t110 -265q0 -156 -110 -265.5t-265 -109.5q-156 0 -265.5 109.5t-109.5 265.5zM323 308l116 204h2v-204h-118zM283 308v-35h158v-117h41v117h60v35h-60v233h-65z" />
    <glyph glyph-name="orn.6" unicode="&#xf319;" horiz-adv-x="860" 
d="M55 349q0 155 109.5 265t265.5 110q155 0 265 -110t110 -265q0 -156 -110 -265.5t-265 -109.5q-156 0 -265.5 109.5t-109.5 265.5zM549 279q0 56 -29.5 90.5t-83.5 34.5q-36 0 -61 -18h-1v118h156v37h-193v-195h36q23 21 59 21q37 0 55.5 -25t18.5 -66q0 -40 -19 -65
t-56 -25q-36 0 -54 21.5t-18 55.5v15h-43v-14q0 -52 31.5 -83.5t84.5 -31.5t85 36t32 94z" />
    <glyph glyph-name="orn.7" unicode="&#xf320;" horiz-adv-x="860" 
d="M55 349q0 155 109.5 265t265.5 110q155 0 265 -110t110 -265q0 -156 -110 -265.5t-265 -109.5q-156 0 -265.5 109.5t-109.5 265.5zM344 281q0 37 19.5 61.5t56.5 24.5q36 0 55.5 -24.5t19.5 -61.5t-19.5 -61t-55.5 -24q-37 0 -56.5 24t-19.5 61zM491 551h-56l-13 -14
q-121 -136 -121 -250q0 -59 33 -93.5t86 -34.5q52 0 85 33.5t33 88.5q0 59 -32 90.5t-79 31.5q-41 0 -67 -26l-1 1q35 70 116 156z" />
    <glyph glyph-name="orn.8" unicode="&#xf321;" horiz-adv-x="860" 
d="M55 349q0 155 109.5 265t265.5 110q155 0 265 -110t110 -265q0 -156 -110 -265.5t-265 -109.5q-156 0 -265.5 109.5t-109.5 265.5zM361 156h48l127 349v36h-219v-39h178z" />
    <glyph glyph-name="orn.9" unicode="&#xf322;" horiz-adv-x="860" 
d="M55 349q0 155 109.5 265t265.5 110q155 0 265 -110t110 -265q0 -156 -110 -265.5t-265 -109.5q-156 0 -265.5 109.5t-109.5 265.5zM431 370q-35 0 -53 20t-18 51t18 51t53 20q34 0 52 -20t18 -51t-18 -51t-52 -20zM431 184q-37 0 -57.5 22.5t-20.5 53.5t20.5 53t57.5 22
q36 0 57 -22t21 -53t-21 -53.5t-57 -22.5zM431 548q-51 0 -81.5 -29.5t-30.5 -77.5q0 -29 14.5 -52.5t40.5 -33.5q-27 -12 -45.5 -38t-18.5 -57q0 -50 34 -80.5t87 -30.5t87 30.5t34 80.5q0 31 -19 57t-46 38q26 10 41 33.5t15 52.5q0 48 -30.5 77.5t-81.5 29.5z" />
    <glyph glyph-name="orn.10" unicode="&#xf323;" horiz-adv-x="860" 
d="M805 349q0 -155 -109.5 -265t-265.5 -110q-155 0 -265 110t-110 265q0 156 110 265.5t265 109.5q156 0 265.5 -109.5t109.5 -265.5zM506 417q0 -37 -19.5 -61.5t-56.5 -24.5q-36 0 -55.5 24.5t-19.5 61.5t19.5 61t55.5 24q37 0 56.5 -24t19.5 -61zM359 147h56l13 14
q121 136 121 250q0 59 -33 93.5t-86 34.5q-52 0 -85 -33.5t-33 -88.5q0 -59 32 -90.5t79 -31.5q41 0 67 26l1 -1q-35 -70 -116 -156z" />
    <glyph glyph-name="arrow.up" unicode="&#xf324;" horiz-adv-x="562" 
d="M302 121h-43v379l-182 -188l-32 31l236 243l235 -243l-31 -31l-183 188v-379z" />
    <glyph glyph-name="arrow.down" unicode="&#xf325;" horiz-adv-x="562" 
d="M259 586h43v-379l183 188l31 -31l-235 -243l-236 243l32 31l182 -188v379z" />
    <glyph glyph-name="arrowup.left" unicode="&#xf326;" horiz-adv-x="562" 
d="M453 204l-30 -30l-268 268l4 -262h-45l-5 338l338 -5v-44l-262 3z" />
    <glyph glyph-name="arrowup.right" unicode="&#xf327;" horiz-adv-x="562" 
d="M139 174l-30 30l268 268l-262 -3v44l338 5l-5 -338h-45l4 262z" />
    <glyph glyph-name="arrowdown.left" unicode="&#xf328;" horiz-adv-x="562" 
d="M423 518l30 -30l-268 -268l262 3v-44l-338 -5l5 338h45l-4 -262z" />
    <glyph glyph-name="arrowdown.right" unicode="&#xf329;" horiz-adv-x="562" 
d="M109 488l30 30l268 -268l-4 262h45l5 -338l-338 5v44l262 -3z" />
    <glyph glyph-name="revcommaaccent" unicode="&#xf330;" horiz-adv-x="205" 
d="M149 565q0 -20 -14.5 -35t-35.5 -15q-20 0 -34.5 14.5t-14.5 35.5q0 17 8 33l56 102h41l-39 -86q15 -5 24 -18t9 -31z" />
    <glyph glyph-name="A.smcp" unicode="&#xf331;" horiz-adv-x="512" 
d="M362 201h-215l-67 -201h-45l194 560h54l194 -560h-46zM253 517l-94 -278h190l-93 278h-3z" />
    <glyph glyph-name="B.smcp" unicode="&#xf332;" horiz-adv-x="451" 
d="M372 424q0 -47 -23.5 -79t-60.5 -46v-1q52 -13 84.5 -51.5t32.5 -91.5q0 -67 -47 -111t-133 -44h-139v560h124q77 0 119.5 -40.5t42.5 -95.5zM129 277v-239h95q58 0 97 31t39 88t-40 88.5t-94 31.5h-97zM210 521h-81v-207h81q52 0 84.5 27t32.5 77q0 51 -32.5 77
t-84.5 26z" />
    <glyph glyph-name="C.smcp" unicode="&#xf333;" horiz-adv-x="637" 
d="M91 280q0 -108 68 -180t172 -72q78 0 135 40t83 109h46q-28 -86 -99.5 -136.5t-164.5 -50.5q-119 0 -201.5 82.5t-82.5 207.5t82.5 207.5t201.5 82.5q93 0 164.5 -50.5t99.5 -136.5h-46q-26 69 -83 109t-135 40q-104 0 -172 -72t-68 -180z" />
    <glyph glyph-name="D.smcp" unicode="&#xf334;" horiz-adv-x="569" 
d="M519 280q0 -128 -77 -204t-221 -76h-135v560h135q144 0 221 -76t77 -204zM475 280q0 116 -67.5 178.5t-181.5 62.5h-97v-483h97q114 0 181.5 62.5t67.5 179.5z" />
    <glyph glyph-name="E.smcp" unicode="&#xf335;" horiz-adv-x="490" 
d="M451 560v-41h-322v-214h207v-40h-207v-225h322v-40h-365v560h365z" />
    <glyph glyph-name="F.smcp" unicode="&#xf336;" horiz-adv-x="459" 
d="M352 256h-223v-256h-43v560h348v-41h-305v-224h223v-39z" />
    <glyph glyph-name="G.smcp" unicode="&#xf337;" horiz-adv-x="644" 
d="M331 28q94 0 148 55t57 120h-161v40h204v-243h-41v105q-24 -47 -78.5 -81t-133.5 -34q-119 0 -199 82t-80 208q0 125 83 207.5t202 82.5q93 0 165.5 -50.5t99.5 -136.5h-46q-25 69 -82.5 109t-136.5 40q-104 0 -172.5 -72t-68.5 -180q0 -107 68 -179.5t172 -72.5z" />
    <glyph glyph-name="H.smcp" unicode="&#xf338;" horiz-adv-x="551" 
d="M465 0h-43v265h-293v-265h-43v560h43v-255h293v255h43v-560z" />
    <glyph glyph-name="I.smcp" unicode="&#xf339;" horiz-adv-x="215" 
d="M86 0v560h43v-560h-43z" />
    <glyph glyph-name="J.smcp" unicode="&#xf340;" horiz-adv-x="478" 
d="M34 207h43v-35q0 -65 35 -104.5t105 -39.5t105 39.5t35 104.5v388h41v-387q0 -84 -45.5 -133.5t-136.5 -49.5t-136.5 49.5t-45.5 133.5v34z" />
    <glyph glyph-name="K.smcp" unicode="&#xf341;" horiz-adv-x="489" 
d="M129 560v-246h21l267 246h58l-289 -264l283 -296h-58l-262 275h-20v-275h-43v560h43z" />
    <glyph glyph-name="L.smcp" unicode="&#xf342;" horiz-adv-x="401" 
d="M379 0h-293v560h43v-521h250v-39z" />
    <glyph glyph-name="M.smcp" unicode="&#xf343;" horiz-adv-x="682" 
d="M341 153l193 407h62v-560h-43v504l-187 -391h-52l-187 391v-504h-41v560h62z" />
    <glyph glyph-name="N.smcp" unicode="&#xf344;" horiz-adv-x="551" 
d="M127 513v-513h-41v560h61l277 -501v501h41v-560h-54z" />
    <glyph glyph-name="O.smcp" unicode="&#xf345;" horiz-adv-x="662" 
d="M331 -10q-119 0 -201.5 82.5t-82.5 207.5t82.5 207.5t201.5 82.5t201.5 -82.5t82.5 -207.5t-82.5 -207.5t-201.5 -82.5zM331 532q-105 0 -172.5 -72t-67.5 -180q0 -109 67.5 -180.5t172.5 -71.5t172.5 71.5t67.5 180.5q0 108 -67.5 180t-172.5 72z" />
    <glyph glyph-name="P.smcp" unicode="&#xf346;" horiz-adv-x="458" 
d="M421 390q0 -75 -49.5 -123.5t-143.5 -48.5h-99v-218h-43v560h142q94 0 143.5 -47.5t49.5 -122.5zM129 521v-264h107q60 0 100 35t40 98t-40 97t-100 34h-107z" />
    <glyph glyph-name="Q.smcp" unicode="&#xf347;" horiz-adv-x="662" 
d="M331 -10q-119 0 -201.5 82.5t-82.5 207.5t82.5 207.5t201.5 82.5t201.5 -82.5t82.5 -207.5q0 -86 -41.5 -154.5t-109.5 -103.5l20 -30q32 -48 71 -48l39 2v-37q-15 -3 -42 -3q-33 0 -54.5 12.5t-42.5 43.5l-29 44q-48 -16 -95 -16zM331 532q-105 0 -172.5 -72t-67.5 -180
q0 -109 67.5 -180.5t172.5 -71.5q40 0 73 10l-77 116l34 23l82 -123q59 30 93.5 90t34.5 136q0 108 -67.5 180t-172.5 72z" />
    <glyph glyph-name="R.smcp" unicode="&#xf348;" horiz-adv-x="487" 
d="M410 0l-156 247h-125v-247h-43v560h153q87 0 137 -41.5t50 -112.5q0 -50 -30 -93.5t-100 -57.5l163 -255h-49zM381 404q0 54 -36.5 85.5t-100.5 31.5h-115v-235h115q64 0 100.5 32t36.5 86z" />
    <glyph glyph-name="S.smcp" unicode="&#xf349;" horiz-adv-x="422" 
d="M371 514l-23 -33q-53 51 -127 51q-53 0 -85.5 -28.5t-32.5 -67.5q0 -33 16.5 -56t61.5 -47l66 -35q69 -37 98.5 -72.5t29.5 -88.5q0 -63 -47.5 -105t-120.5 -42q-102 0 -172 66l23 33q62 -62 149 -62q54 0 89.5 31.5t35.5 78.5q0 39 -25 68t-84 59l-57 29
q-57 29 -81.5 61t-24.5 79q0 57 45.5 97t116.5 40q42 0 82.5 -15.5t66.5 -40.5z" />
    <glyph glyph-name="T.smcp" unicode="&#xf350;" horiz-adv-x="439" 
d="M22 560h395v-41h-176v-519h-43v519h-176v41z" />
    <glyph glyph-name="U.smcp" unicode="&#xf351;" horiz-adv-x="524" 
d="M262 -10q-91 0 -136.5 49.5t-45.5 133.5v387h43v-388q0 -65 35 -104.5t105 -39.5t105 39.5t35 104.5v388h41v-387q0 -84 -45.5 -133.5t-136.5 -49.5z" />
    <glyph glyph-name="V.smcp" unicode="&#xf352;" horiz-adv-x="512" 
d="M229 0l-194 560h48l174 -517h2l174 517h44l-193 -560h-55z" />
    <glyph glyph-name="W.smcp" unicode="&#xf353;" horiz-adv-x="770" 
d="M589 0h-65l-139 516l-138 -516h-65l-140 560h45l127 -517h5l138 517h56l141 -517h4l126 517h44z" />
    <glyph glyph-name="X.smcp" unicode="&#xf354;" horiz-adv-x="483" 
d="M455 560l-189 -276l197 -284h-53l-169 251l-169 -251h-52l195 283l-187 277h52l162 -244l164 244h49z" />
    <glyph glyph-name="Y.smcp" unicode="&#xf355;" horiz-adv-x="524" 
d="M240 248l-216 312h53l184 -270h2l185 270h52l-216 -311v-249h-44v248z" />
    <glyph glyph-name="Z.smcp" unicode="&#xf356;" horiz-adv-x="474" 
d="M386 520h-342v40h391v-42l-350 -478h350v-40h-400v42z" />
    <glyph glyph-name="OE.smcp" unicode="&#xf357;" horiz-adv-x="844" 
d="M805 560v-41h-322v-214h207v-40h-207v-225h322v-40h-457q-143 0 -220.5 76t-77.5 204t77.5 204t220.5 76h457zM95 280q0 -116 67.5 -178t181.5 -62h96v480h-96q-114 0 -181.5 -62t-67.5 -178z" />
    <glyph glyph-name="AE.smcp" unicode="&#xf358;" horiz-adv-x="789" 
d="M750 560v-41h-322v-214h207v-40h-207v-225h322v-40h-365v265h-173l-152 -265h-53l331 560h412zM385 519h-26l-124 -214h150v214z" />
    <glyph glyph-name="Wacute.smcp" unicode="&#xf359;" horiz-adv-x="771" 
d="M589 0h-65l-139 516l-138 -516h-65l-140 560h45l127 -517h5l138 517h56l141 -517h4l126 517h44zM367 605l45 125h55l-60 -125h-40z" />
    <glyph glyph-name="Wdieresis.smcp" unicode="&#xf360;" horiz-adv-x="771" 
d="M589 0h-65l-139 516l-138 -516h-65l-140 560h45l127 -517h5l138 517h56l141 -517h4l126 517h44zM283 670q0 17 12.5 29.5t30.5 12.5t30.5 -12.5t12.5 -29.5t-12.5 -29.5t-30.5 -12.5t-30.5 12.5t-12.5 29.5zM401 670q0 17 12.5 29.5t30.5 12.5t30.5 -12.5t12.5 -29.5
t-12.5 -29.5t-30.5 -12.5t-30.5 12.5t-12.5 29.5z" />
    <glyph glyph-name="Wgrave.smcp" unicode="&#xf361;" horiz-adv-x="771" 
d="M589 0h-65l-139 516l-138 -516h-65l-140 560h45l127 -517h5l138 517h56l141 -517h4l126 517h44zM354 730l45 -125h-40l-60 125h55z" />
    <glyph glyph-name="Ygrave.smcp" unicode="&#xf362;" horiz-adv-x="524" 
d="M240 248l-216 312h53l184 -270h2l185 270h52l-216 -311v-249h-44v248zM239 730l45 -125h-40l-60 125h55z" />
    <glyph glyph-name="uni021A.smcp" unicode="&#xf363;" horiz-adv-x="439" 
d="M22 560h395v-41h-176v-519h-43v519h-176v41zM178 -82q0 17 12 29.5t29 12.5t29.5 -12t12.5 -30q0 -14 -10 -31l-43 -78h-35l31 70q-26 10 -26 39z" />
    <glyph glyph-name="Tcommaaccent.smcp" unicode="&#xf364;" horiz-adv-x="439" 
d="M22 560h395v-41h-176v-519h-43v519h-176v41zM178 -82q0 17 12 29.5t29 12.5t29.5 -12t12.5 -30q0 -14 -10 -31l-43 -78h-35l31 70q-26 10 -26 39z" />
    <glyph glyph-name="Amacron.smcp" unicode="&#xf365;" horiz-adv-x="512" 
d="M362 201h-215l-67 -201h-45l194 560h54l194 -560h-46zM253 517l-94 -278h190l-93 278h-3zM153 651v39h204v-39h-204z" />
    <glyph glyph-name="Aogonek.smcp" unicode="&#xf366;" horiz-adv-x="512" 
d="M362 201h-215l-67 -201h-45l194 560h54l194 -560h-14q-16 -11 -25 -18.5t-19 -23t-10 -31.5q0 -20 13 -30.5t33 -10.5q26 0 47 9v-30q-23 -11 -54 -11q-37 0 -58.5 19.5t-21.5 45.5q0 51 62 84zM253 517l-94 -278h190l-93 278h-3z" />
    <glyph glyph-name="Aring.smcp" unicode="&#xf367;" horiz-adv-x="512" 
d="M362 201h-215l-67 -201h-45l194 560h54l194 -560h-46zM253 517l-94 -278h190l-93 278h-3zM255 589q-34 0 -58 23t-24 57q0 35 24 57.5t58 22.5t58 -22.5t24 -57.5q0 -34 -24 -57t-58 -23zM255 622q19 0 31.5 13.5t12.5 33.5t-12.5 33.5t-31.5 13.5q-20 0 -32.5 -13.5
t-12.5 -33.5t12.5 -33.5t32.5 -13.5z" />
    <glyph glyph-name="Atilde.smcp" unicode="&#xf368;" horiz-adv-x="512" 
d="M362 201h-215l-67 -201h-45l194 560h54l194 -560h-46zM253 517l-94 -278h190l-93 278h-3zM302 634q-18 0 -50.5 18t-41.5 18q-20 0 -20 -27v-8h-38v10q0 64 55 64q18 0 50.5 -18t41.5 -18q20 0 20 27v8h38v-10q0 -64 -55 -64z" />
    <glyph glyph-name="Cacute.smcp" unicode="&#xf369;" horiz-adv-x="637" 
d="M91 280q0 -108 68 -180t172 -72q78 0 135 40t83 109h46q-28 -86 -99.5 -136.5t-164.5 -50.5q-119 0 -201.5 82.5t-82.5 207.5t82.5 207.5t201.5 82.5q93 0 164.5 -50.5t99.5 -136.5h-46q-26 69 -83 109t-135 40q-104 0 -172 -72t-68 -180zM315 605l45 125h55l-60 -125
h-40z" />
    <glyph glyph-name="Ccaron.smcp" unicode="&#xf370;" horiz-adv-x="637" 
d="M91 280q0 -108 68 -180t172 -72q78 0 135 40t83 109h46q-28 -86 -99.5 -136.5t-164.5 -50.5q-119 0 -201.5 82.5t-82.5 207.5t82.5 207.5t201.5 82.5q93 0 164.5 -50.5t99.5 -136.5h-46q-26 69 -83 109t-135 40q-104 0 -172 -72t-68 -180zM428 730l-72 -125h-51l-73 125
h44l54 -90l55 90h43z" />
    <glyph glyph-name="Ccedilla.smcp" unicode="&#xf371;" horiz-adv-x="638" 
d="M251 -127l43 120q-106 13 -176 92.5t-70 194.5q0 125 82.5 207.5t201.5 82.5q93 0 164.5 -50.5t99.5 -136.5h-46q-26 69 -83 109t-135 40q-104 0 -172 -72t-68 -180t68 -180t172 -72q78 0 135 40t83 109h46q-27 -83 -96 -133.5t-159 -53.5l-48 -117h-42z" />
    <glyph glyph-name="Ccircumflex.smcp" unicode="&#xf372;" horiz-adv-x="637" 
d="M91 280q0 -108 68 -180t172 -72q78 0 135 40t83 109h46q-28 -86 -99.5 -136.5t-164.5 -50.5q-119 0 -201.5 82.5t-82.5 207.5t82.5 207.5t201.5 82.5q93 0 164.5 -50.5t99.5 -136.5h-46q-26 69 -83 109t-135 40q-104 0 -172 -72t-68 -180zM357 730l72 -125h-43l-55 90
l-54 -90h-44l73 125h51z" />
    <glyph glyph-name="Cdotaccent.smcp" unicode="&#xf373;" horiz-adv-x="637" 
d="M91 280q0 -108 68 -180t172 -72q78 0 135 40t83 109h46q-28 -86 -99.5 -136.5t-164.5 -50.5q-119 0 -201.5 82.5t-82.5 207.5t82.5 207.5t201.5 82.5q93 0 164.5 -50.5t99.5 -136.5h-46q-26 69 -83 109t-135 40q-104 0 -172 -72t-68 -180zM287 670q0 17 12.5 29.5
t30.5 12.5t30.5 -12.5t12.5 -29.5t-12.5 -29.5t-30.5 -12.5t-30.5 12.5t-12.5 29.5z" />
    <glyph glyph-name="Dcaron.smcp" unicode="&#xf374;" horiz-adv-x="569" 
d="M519 280q0 -128 -77 -204t-221 -76h-135v560h135q144 0 221 -76t77 -204zM475 280q0 116 -67.5 178.5t-181.5 62.5h-97v-483h97q114 0 181.5 62.5t67.5 179.5zM383 730l-72 -125h-51l-73 125h44l54 -90l55 90h43z" />
    <glyph glyph-name="Gbreve.smcp" unicode="&#xf375;" horiz-adv-x="644" 
d="M331 28q94 0 148 55t57 120h-161v40h204v-243h-41v105q-24 -47 -78.5 -81t-133.5 -34q-119 0 -199 82t-80 208q0 125 83 207.5t202 82.5q93 0 165.5 -50.5t99.5 -136.5h-46q-25 69 -82.5 109t-136.5 40q-104 0 -172.5 -72t-68.5 -180q0 -107 68 -179.5t172 -72.5z
M317 659q51 0 51 59v12h40v-24q0 -40 -27 -62.5t-64 -22.5t-63.5 22.5t-26.5 62.5v24h40v-17q0 -27 14 -40.5t36 -13.5z" />
    <glyph glyph-name="Gcircumflex.smcp" unicode="&#xf376;" horiz-adv-x="644" 
d="M331 28q94 0 148 55t57 120h-161v40h204v-243h-41v105q-24 -47 -78.5 -81t-133.5 -34q-119 0 -199 82t-80 208q0 125 83 207.5t202 82.5q93 0 165.5 -50.5t99.5 -136.5h-46q-25 69 -82.5 109t-136.5 40q-104 0 -172.5 -72t-68.5 -180q0 -107 68 -179.5t172 -72.5z
M339 730l72 -125h-43l-55 90l-54 -90h-44l73 125h51z" />
    <glyph glyph-name="Gdotaccent.smcp" unicode="&#xf377;" horiz-adv-x="644" 
d="M331 28q94 0 148 55t57 120h-161v40h204v-243h-41v105q-24 -47 -78.5 -81t-133.5 -34q-119 0 -199 82t-80 208q0 125 83 207.5t202 82.5q93 0 165.5 -50.5t99.5 -136.5h-46q-25 69 -82.5 109t-136.5 40q-104 0 -172.5 -72t-68.5 -180q0 -107 68 -179.5t172 -72.5z
M268 670q0 17 12.5 29.5t30.5 12.5t30.5 -12.5t12.5 -29.5t-12.5 -29.5t-30.5 -12.5t-30.5 12.5t-12.5 29.5z" />
    <glyph glyph-name="Hcircumflex.smcp" unicode="&#xf378;" horiz-adv-x="551" 
d="M465 0h-43v265h-293v-265h-43v560h43v-255h293v255h43v-560zM299 730l72 -125h-43l-55 90l-54 -90h-44l73 125h51z" />
    <glyph glyph-name="Iacute.smcp" unicode="&#xf379;" horiz-adv-x="215" 
d="M86 0v560h43v-560h-43zM89 605l45 125h55l-60 -125h-40z" />
    <glyph glyph-name="Ibreve.smcp" unicode="&#xf380;" horiz-adv-x="215" 
d="M86 0v560h43v-560h-43zM108 659q51 0 51 59v12h40v-24q0 -40 -27 -62.5t-64 -22.5t-63.5 22.5t-26.5 62.5v24h40v-17q0 -27 14 -40.5t36 -13.5z" />
    <glyph glyph-name="Icircumflex.smcp" unicode="&#xf381;" horiz-adv-x="215" 
d="M86 0v560h43v-560h-43zM133 730l72 -125h-43l-55 90l-54 -90h-44l73 125h51z" />
    <glyph glyph-name="Idieresis.smcp" unicode="&#xf382;" horiz-adv-x="215" 
d="M86 0v560h43v-560h-43zM6 670q0 17 12.5 29.5t30.5 12.5t30.5 -12.5t12.5 -29.5t-12.5 -29.5t-30.5 -12.5t-30.5 12.5t-12.5 29.5zM124 670q0 17 12.5 29.5t30.5 12.5t30.5 -12.5t12.5 -29.5t-12.5 -29.5t-30.5 -12.5t-30.5 12.5t-12.5 29.5z" />
    <glyph glyph-name="Idotaccent.smcp" unicode="&#xf383;" horiz-adv-x="215" 
d="M86 0v560h43v-560h-43zM64 670q0 17 12.5 29.5t30.5 12.5t30.5 -12.5t12.5 -29.5t-12.5 -29.5t-30.5 -12.5t-30.5 12.5t-12.5 29.5z" />
    <glyph glyph-name="Igrave.smcp" unicode="&#xf384;" horiz-adv-x="215" 
d="M86 0v560h43v-560h-43zM82 730l45 -125h-40l-60 125h55z" />
    <glyph glyph-name="IJ.smcp" unicode="&#xf385;" horiz-adv-x="693" 
d="M86 0v560h43v-560h-43zM249 207h43v-35q0 -65 35 -104.5t105 -39.5t105 39.5t35 104.5v388h41v-387q0 -84 -45.5 -133.5t-136.5 -49.5t-136.5 49.5t-45.5 133.5v34z" />
    <glyph glyph-name="Iogonek.smcp" unicode="&#xf386;" horiz-adv-x="215" 
d="M129 0h-6q-16 -11 -25 -18.5t-19 -23t-10 -31.5q0 -20 13 -30.5t33 -10.5q26 0 47 9v-30q-23 -11 -54 -11q-37 0 -58.5 19.5t-21.5 45.5q0 50 58 82v559h43v-560z" />
    <glyph glyph-name="Itilde.smcp" unicode="&#xf387;" horiz-adv-x="215" 
d="M86 0v560h43v-560h-43zM155 634q-18 0 -50.5 18t-41.5 18q-20 0 -20 -27v-8h-38v10q0 64 55 64q18 0 50.5 -18t41.5 -18q20 0 20 27v8h38v-10q0 -64 -55 -64z" />
    <glyph glyph-name="Jcircumflex.smcp" unicode="&#xf388;" horiz-adv-x="478" 
d="M34 207h43v-35q0 -65 35 -104.5t105 -39.5t105 39.5t35 104.5v388h41v-387q0 -84 -45.5 -133.5t-136.5 -49.5t-136.5 49.5t-45.5 133.5v34zM247 730l72 -125h-43l-55 90l-54 -90h-44l73 125h51z" />
    <glyph glyph-name="Kcommaaccent.smcp" unicode="&#xf389;" horiz-adv-x="489" 
d="M129 560v-246h21l267 246h58l-289 -264l283 -296h-58l-262 275h-20v-275h-43v560h43zM216 -82q0 17 12 29.5t29 12.5t29.5 -12t12.5 -30q0 -14 -10 -31l-43 -78h-35l31 70q-26 10 -26 39z" />
    <glyph glyph-name="Lacute.smcp" unicode="&#xf390;" horiz-adv-x="401" 
d="M379 0h-293v560h43v-521h250v-39zM157 605l45 125h55l-60 -125h-40z" />
    <glyph glyph-name="Nacute.smcp" unicode="&#xf391;" horiz-adv-x="551" 
d="M127 513v-513h-41v560h61l277 -501v501h41v-560h-54zM254 605l45 125h55l-60 -125h-40z" />
    <glyph glyph-name="Ncaron.smcp" unicode="&#xf392;" horiz-adv-x="551" 
d="M127 513v-513h-41v560h61l277 -501v501h41v-560h-54zM380 730l-72 -125h-51l-73 125h44l54 -90l55 90h43z" />
    <glyph glyph-name="Ncommaaccent.smcp" unicode="&#xf393;" horiz-adv-x="551" 
d="M127 513v-513h-41v560h61l277 -501v501h41v-560h-54zM231 -82q0 17 12 29.5t29 12.5t29.5 -12t12.5 -30q0 -14 -10 -31l-43 -78h-35l31 70q-26 10 -26 39z" />
    <glyph glyph-name="Ntilde.smcp" unicode="&#xf394;" horiz-adv-x="551" 
d="M127 513v-513h-41v560h61l277 -501v501h41v-560h-54zM315 634q-18 0 -50.5 18t-41.5 18q-20 0 -20 -27v-8h-38v10q0 64 55 64q18 0 50.5 -18t41.5 -18q20 0 20 27v8h38v-10q0 -64 -55 -64z" />
    <glyph glyph-name="Oacute.smcp" unicode="&#xf395;" horiz-adv-x="662" 
d="M331 -10q-119 0 -201.5 82.5t-82.5 207.5t82.5 207.5t201.5 82.5t201.5 -82.5t82.5 -207.5t-82.5 -207.5t-201.5 -82.5zM331 532q-105 0 -172.5 -72t-67.5 -180q0 -109 67.5 -180.5t172.5 -71.5t172.5 71.5t67.5 180.5q0 108 -67.5 180t-172.5 72zM314 605l45 125h55
l-60 -125h-40z" />
    <glyph glyph-name="Ograve.smcp" unicode="&#xf396;" horiz-adv-x="662" 
d="M331 -10q-119 0 -201.5 82.5t-82.5 207.5t82.5 207.5t201.5 82.5t201.5 -82.5t82.5 -207.5t-82.5 -207.5t-201.5 -82.5zM331 532q-105 0 -172.5 -72t-67.5 -180q0 -109 67.5 -180.5t172.5 -71.5t172.5 71.5t67.5 180.5q0 108 -67.5 180t-172.5 72zM314 730l45 -125h-40
l-60 125h55z" />
    <glyph glyph-name="Otilde.smcp" unicode="&#xf397;" horiz-adv-x="662" 
d="M331 -10q-119 0 -201.5 82.5t-82.5 207.5t82.5 207.5t201.5 82.5t201.5 -82.5t82.5 -207.5t-82.5 -207.5t-201.5 -82.5zM331 532q-105 0 -172.5 -72t-67.5 -180q0 -109 67.5 -180.5t172.5 -71.5t172.5 71.5t67.5 180.5q0 108 -67.5 180t-172.5 72zM380 634
q-18 0 -50.5 18t-41.5 18q-20 0 -20 -27v-8h-38v10q0 64 55 64q18 0 50.5 -18t41.5 -18q20 0 20 27v8h38v-10q0 -64 -55 -64z" />
    <glyph glyph-name="Racute.smcp" unicode="&#xf398;" horiz-adv-x="487" 
d="M410 0l-156 247h-125v-247h-43v560h153q87 0 137 -41.5t50 -112.5q0 -50 -30 -93.5t-100 -57.5l163 -255h-49zM381 404q0 54 -36.5 85.5t-100.5 31.5h-115v-235h115q64 0 100.5 32t36.5 86zM219 605l45 125h55l-60 -125h-40z" />
    <glyph glyph-name="Rcaron.smcp" unicode="&#xf399;" horiz-adv-x="487" 
d="M410 0l-156 247h-125v-247h-43v560h153q87 0 137 -41.5t50 -112.5q0 -50 -30 -93.5t-100 -57.5l163 -255h-49zM381 404q0 54 -36.5 85.5t-100.5 31.5h-115v-235h115q64 0 100.5 32t36.5 86zM343 730l-72 -125h-51l-73 125h44l54 -90l55 90h43z" />
    <glyph glyph-name="Rcommaaccent.smcp" unicode="&#xf400;" horiz-adv-x="487" 
d="M410 0l-156 247h-125v-247h-43v560h153q87 0 137 -41.5t50 -112.5q0 -50 -30 -93.5t-100 -57.5l163 -255h-49zM381 404q0 54 -36.5 85.5t-100.5 31.5h-115v-235h115q64 0 100.5 32t36.5 86zM209 -82q0 17 12 29.5t29 12.5t29.5 -12t12.5 -30q0 -14 -10 -31l-43 -78h-35
l31 70q-26 10 -26 39z" />
    <glyph glyph-name="Sacute.smcp" unicode="&#xf401;" horiz-adv-x="422" 
d="M371 514l-23 -33q-53 51 -127 51q-53 0 -85.5 -28.5t-32.5 -67.5q0 -33 16.5 -56t61.5 -47l66 -35q69 -37 98.5 -72.5t29.5 -88.5q0 -63 -47.5 -105t-120.5 -42q-102 0 -172 66l23 33q62 -62 149 -62q54 0 89.5 31.5t35.5 78.5q0 39 -25 68t-84 59l-57 29
q-57 29 -81.5 61t-24.5 79q0 57 45.5 97t116.5 40q42 0 82.5 -15.5t66.5 -40.5zM174 605l45 125h55l-60 -125h-40z" />
    <glyph glyph-name="Scaron.smcp" unicode="&#xf402;" horiz-adv-x="422" 
d="M371 514l-23 -33q-53 51 -127 51q-53 0 -85.5 -28.5t-32.5 -67.5q0 -33 16.5 -56t61.5 -47l66 -35q69 -37 98.5 -72.5t29.5 -88.5q0 -63 -47.5 -105t-120.5 -42q-102 0 -172 66l23 33q62 -62 149 -62q54 0 89.5 31.5t35.5 78.5q0 39 -25 68t-84 59l-57 29
q-57 29 -81.5 61t-24.5 79q0 57 45.5 97t116.5 40q42 0 82.5 -15.5t66.5 -40.5zM290 730l-72 -125h-51l-73 125h44l54 -90l55 90h43z" />
    <glyph glyph-name="Scedilla.smcp" unicode="&#xf403;" horiz-adv-x="422" 
d="M140 -127l42 118q-87 8 -147 65l23 33q62 -62 149 -62q54 0 89.5 31.5t35.5 78.5q0 39 -25 68t-84 59l-57 29q-57 29 -81.5 61t-24.5 79q0 57 45.5 97t116.5 40q42 0 82.5 -15.5t66.5 -40.5l-23 -33q-53 51 -127 51q-53 0 -85.5 -28.5t-32.5 -67.5q0 -33 16.5 -56
t61.5 -47l66 -35q69 -37 98.5 -72.5t29.5 -88.5q0 -58 -40.5 -98t-104.5 -47l-48 -119h-42z" />
    <glyph glyph-name="Scircumflex.smcp" unicode="&#xf404;" horiz-adv-x="422" 
d="M371 514l-23 -33q-53 51 -127 51q-53 0 -85.5 -28.5t-32.5 -67.5q0 -33 16.5 -56t61.5 -47l66 -35q69 -37 98.5 -72.5t29.5 -88.5q0 -63 -47.5 -105t-120.5 -42q-102 0 -172 66l23 33q62 -62 149 -62q54 0 89.5 31.5t35.5 78.5q0 39 -25 68t-84 59l-57 29
q-57 29 -81.5 61t-24.5 79q0 57 45.5 97t116.5 40q42 0 82.5 -15.5t66.5 -40.5zM215 730l72 -125h-43l-55 90l-54 -90h-44l73 125h51z" />
    <glyph glyph-name="Scommaaccent.smcp" unicode="&#xf405;" horiz-adv-x="422" 
d="M371 514l-23 -33q-53 51 -127 51q-53 0 -85.5 -28.5t-32.5 -67.5q0 -33 16.5 -56t61.5 -47l66 -35q69 -37 98.5 -72.5t29.5 -88.5q0 -63 -47.5 -105t-120.5 -42q-102 0 -172 66l23 33q62 -62 149 -62q54 0 89.5 31.5t35.5 78.5q0 39 -25 68t-84 59l-57 29
q-57 29 -81.5 61t-24.5 79q0 57 45.5 97t116.5 40q42 0 82.5 -15.5t66.5 -40.5zM167 -82q0 17 12 29.5t29 12.5t29.5 -12t12.5 -30q0 -14 -10 -31l-43 -78h-35l31 70q-26 10 -26 39z" />
    <glyph glyph-name="Tbar.smcp" unicode="&#xf406;" horiz-adv-x="453" 
d="M29 560h395v-41h-176v-214h120v-40h-120v-265h-43v265h-120v40h120v214h-176v41z" />
    <glyph glyph-name="Tcaron.smcp" unicode="&#xf407;" horiz-adv-x="439" 
d="M22 560h395v-41h-176v-519h-43v519h-176v41zM318 730l-72 -125h-51l-73 125h44l54 -90l55 90h43z" />
    <glyph glyph-name="Thorn.smcp" unicode="&#xf408;" horiz-adv-x="462" 
d="M422 286q0 -74 -49.5 -122.5t-143.5 -48.5h-98v-115h-45v560h45v-104h98q94 0 143.5 -47.5t49.5 -122.5zM131 416v-262h106q59 0 99 34.5t40 97.5q0 62 -39.5 96t-99.5 34h-106z" />
    <glyph glyph-name="Uacute.smcp" unicode="&#xf409;" horiz-adv-x="524" 
d="M262 -10q-91 0 -136.5 49.5t-45.5 133.5v387h43v-388q0 -65 35 -104.5t105 -39.5t105 39.5t35 104.5v388h41v-387q0 -84 -45.5 -133.5t-136.5 -49.5zM238 605l45 125h55l-60 -125h-40z" />
    <glyph glyph-name="Ubreve.smcp" unicode="&#xf410;" horiz-adv-x="524" 
d="M262 -10q-91 0 -136.5 49.5t-45.5 133.5v387h43v-388q0 -65 35 -104.5t105 -39.5t105 39.5t35 104.5v388h41v-387q0 -84 -45.5 -133.5t-136.5 -49.5zM263 659q51 0 51 59v12h40v-24q0 -40 -27 -62.5t-64 -22.5t-63.5 22.5t-26.5 62.5v24h40v-17q0 -27 14 -40.5t36 -13.5z
" />
    <glyph glyph-name="Ucircumflex.smcp" unicode="&#xf411;" horiz-adv-x="524" 
d="M262 -10q-91 0 -136.5 49.5t-45.5 133.5v387h43v-388q0 -65 35 -104.5t105 -39.5t105 39.5t35 104.5v388h41v-387q0 -84 -45.5 -133.5t-136.5 -49.5zM288 730l72 -125h-43l-55 90l-54 -90h-44l73 125h51z" />
    <glyph glyph-name="Yacute.smcp" unicode="&#xf412;" horiz-adv-x="524" 
d="M240 248l-216 312h53l184 -270h2l185 270h52l-216 -311v-249h-44v248zM244 605l45 125h55l-60 -125h-40z" />
    <glyph glyph-name="Zacute.smcp" unicode="&#xf413;" horiz-adv-x="474" 
d="M386 520h-342v40h391v-42l-350 -478h350v-40h-400v42zM216 605l45 125h55l-60 -125h-40z" />
    <glyph glyph-name="Gcommaaccent.smcp" unicode="&#xf414;" horiz-adv-x="644" 
d="M331 28q94 0 148 55t57 120h-161v40h204v-243h-41v105q-24 -47 -78.5 -81t-133.5 -34q-119 0 -199 82t-80 208q0 125 83 207.5t202 82.5q93 0 165.5 -50.5t99.5 -136.5h-46q-25 69 -82.5 109t-136.5 40q-104 0 -172.5 -72t-68.5 -180q0 -107 68 -179.5t172 -72.5z
M286 -82q0 17 12 29.5t29 12.5t29.5 -12t12.5 -30q0 -14 -10 -31l-43 -78h-35l31 70q-26 10 -26 39z" />
    <glyph glyph-name="Ohungarumlaut.smcp" unicode="&#xf415;" horiz-adv-x="662" 
d="M331 -10q-119 0 -201.5 82.5t-82.5 207.5t82.5 207.5t201.5 82.5t201.5 -82.5t82.5 -207.5t-82.5 -207.5t-201.5 -82.5zM331 532q-105 0 -172.5 -72t-67.5 -180q0 -109 67.5 -180.5t172.5 -71.5t172.5 71.5t67.5 180.5q0 108 -67.5 180t-172.5 72zM254 605l45 125h52
l-60 -125h-37zM358 605l45 125h52l-60 -125h-37z" />
    <glyph glyph-name="Uhungarumlaut.smcp" unicode="&#xf416;" horiz-adv-x="524" 
d="M262 -10q-91 0 -136.5 49.5t-45.5 133.5v387h43v-388q0 -65 35 -104.5t105 -39.5t105 39.5t35 104.5v388h41v-387q0 -84 -45.5 -133.5t-136.5 -49.5zM188 605l45 125h52l-60 -125h-37zM292 605l45 125h52l-60 -125h-37z" />
    <glyph glyph-name="Eng.smcp" unicode="&#xf417;" horiz-adv-x="551" 
d="M127 513v-513h-41v560h61l277 -501v501h41v-595q0 -53 -24 -79t-81 -26h-32v39h28q36 0 51 15t15 51v35h-11z" />
    <glyph glyph-name="Lcommaaccent.smcp" unicode="&#xf418;" horiz-adv-x="401" 
d="M379 0h-293v560h43v-521h250v-39zM187 -82q0 17 12 29.5t29 12.5t29.5 -12t12.5 -30q0 -14 -10 -31l-43 -78h-35l31 70q-26 10 -26 39z" />
    <glyph glyph-name="Imacron.smcp" unicode="&#xf419;" horiz-adv-x="215" 
d="M86 0v560h43v-560h-43zM5 651v39h204v-39h-204z" />
    <glyph glyph-name="Lcaron.smcp" unicode="&#xf420;" horiz-adv-x="405" 
d="M379 0h-293v560h43v-521h250v-39zM292 528q0 17 12 29.5t29 12.5t29.5 -12t12.5 -30q0 -14 -10 -31l-43 -78h-35l31 70q-26 10 -26 39z" />
    <glyph glyph-name="Dcroat.smcp" unicode="&#xf421;" horiz-adv-x="571" 
d="M15 265v40h73v255h135q144 0 221 -76t77 -204t-77 -204t-221 -76h-135v265h-73zM477 280q0 116 -67.5 178.5t-181.5 62.5h-97v-216h191v-40h-191v-227h97q114 0 181.5 62.5t67.5 179.5z" />
    <glyph glyph-name="Eth.smcp" unicode="&#xf422;" horiz-adv-x="571" 
d="M15 266v38h73v256h135q144 0 221 -76t77 -204t-77 -204t-221 -76h-135v266h-73zM477 280q0 116 -67.5 178.5t-181.5 62.5h-97v-217h191v-38h-191v-228h97q114 0 181.5 62.5t67.5 179.5z" />
    <glyph glyph-name="Hbar.smcp" unicode="&#xf423;" horiz-adv-x="555" 
d="M15 404v40h73v116h43v-116h293v116h43v-116h74v-40h-74v-404h-43v265h-293v-265h-43v404h-73zM131 305h293v99h-293v-99z" />
    <glyph glyph-name="Oslash.smcp" unicode="&#xf424;" horiz-adv-x="661" 
d="M331 -10q-100 0 -176 59l-51 -59h-52l74 85q-79 82 -79 205q0 125 82.5 207.5t201.5 82.5q99 0 176 -60l52 60h48l-73 -84q81 -83 81 -206q0 -125 -82.5 -207.5t-201.5 -82.5zM571 280q0 103 -64 175l-326 -376q64 -51 150 -51q105 0 172.5 71.5t67.5 180.5zM331 532
q-105 0 -172.5 -72t-67.5 -180q0 -104 62 -174l328 374q-63 52 -150 52z" />
    <glyph glyph-name="Ldot.smcp" unicode="&#xf425;" horiz-adv-x="401" 
d="M379 0h-293v560h43v-521h250v-39zM242 284q0 17 12.5 29.5t30.5 12.5t30.5 -12.5t12.5 -29.5t-12.5 -29.5t-30.5 -12.5t-30.5 12.5t-12.5 29.5z" />
    <glyph glyph-name="Lslash.smcp" unicode="&#xf426;" horiz-adv-x="406" 
d="M47 201v39l44 16v304h43v-289l187 68v-40l-187 -67v-193h250v-39h-293v216z" />
    <glyph glyph-name="Aacute.smcp" unicode="&#xf427;" horiz-adv-x="512" 
d="M362 201h-215l-67 -201h-45l194 560h54l194 -560h-46zM253 517l-94 -278h190l-93 278h-3zM237 605l45 125h55l-60 -125h-40z" />
    <glyph glyph-name="Abreve.smcp" unicode="&#xf428;" horiz-adv-x="512" 
d="M362 201h-215l-67 -201h-45l194 560h54l194 -560h-46zM253 517l-94 -278h190l-93 278h-3zM255 659q51 0 51 59v12h40v-24q0 -40 -27 -62.5t-64 -22.5t-63.5 22.5t-26.5 62.5v24h40v-17q0 -27 14 -40.5t36 -13.5z" />
    <glyph glyph-name="Acircumflex.smcp" unicode="&#xf429;" horiz-adv-x="512" 
d="M362 201h-215l-67 -201h-45l194 560h54l194 -560h-46zM253 517l-94 -278h190l-93 278h-3zM281 730l72 -125h-43l-55 90l-54 -90h-44l73 125h51z" />
    <glyph glyph-name="Adieresis.smcp" unicode="&#xf430;" horiz-adv-x="512" 
d="M362 201h-215l-67 -201h-45l194 560h54l194 -560h-46zM253 517l-94 -278h190l-93 278h-3zM153 670q0 17 12.5 29.5t30.5 12.5t30.5 -12.5t12.5 -29.5t-12.5 -29.5t-30.5 -12.5t-30.5 12.5t-12.5 29.5zM271 670q0 17 12.5 29.5t30.5 12.5t30.5 -12.5t12.5 -29.5
t-12.5 -29.5t-30.5 -12.5t-30.5 12.5t-12.5 29.5z" />
    <glyph glyph-name="Agrave.smcp" unicode="&#xf431;" horiz-adv-x="512" 
d="M362 201h-215l-67 -201h-45l194 560h54l194 -560h-46zM253 517l-94 -278h190l-93 278h-3zM227 730l45 -125h-40l-60 125h55z" />
    <glyph glyph-name="Eacute.smcp" unicode="&#xf432;" horiz-adv-x="490" 
d="M451 560v-41h-322v-214h207v-40h-207v-225h322v-40h-365v560h365zM246 605l45 125h55l-60 -125h-40z" />
    <glyph glyph-name="Ebreve.smcp" unicode="&#xf433;" horiz-adv-x="490" 
d="M451 560v-41h-322v-214h207v-40h-207v-225h322v-40h-365v560h365zM269 659q51 0 51 59v12h40v-24q0 -40 -27 -62.5t-64 -22.5t-63.5 22.5t-26.5 62.5v24h40v-17q0 -27 14 -40.5t36 -13.5z" />
    <glyph glyph-name="Ecaron.smcp" unicode="&#xf434;" horiz-adv-x="490" 
d="M451 560v-41h-322v-214h207v-40h-207v-225h322v-40h-365v560h365zM368 730l-72 -125h-51l-73 125h44l54 -90l55 90h43z" />
    <glyph glyph-name="Ecircumflex.smcp" unicode="&#xf435;" horiz-adv-x="490" 
d="M451 560v-41h-322v-214h207v-40h-207v-225h322v-40h-365v560h365zM290 730l72 -125h-43l-55 90l-54 -90h-44l73 125h51z" />
    <glyph glyph-name="Edieresis.smcp" unicode="&#xf436;" horiz-adv-x="490" 
d="M451 560v-41h-322v-214h207v-40h-207v-225h322v-40h-365v560h365zM170 670q0 17 12.5 29.5t30.5 12.5t30.5 -12.5t12.5 -29.5t-12.5 -29.5t-30.5 -12.5t-30.5 12.5t-12.5 29.5zM288 670q0 17 12.5 29.5t30.5 12.5t30.5 -12.5t12.5 -29.5t-12.5 -29.5t-30.5 -12.5
t-30.5 12.5t-12.5 29.5z" />
    <glyph glyph-name="Edotaccent.smcp" unicode="&#xf437;" horiz-adv-x="490" 
d="M451 560v-41h-322v-214h207v-40h-207v-225h322v-40h-365v560h365zM232 670q0 17 12.5 29.5t30.5 12.5t30.5 -12.5t12.5 -29.5t-12.5 -29.5t-30.5 -12.5t-30.5 12.5t-12.5 29.5z" />
    <glyph glyph-name="Egrave.smcp" unicode="&#xf438;" horiz-adv-x="490" 
d="M451 560v-41h-322v-214h207v-40h-207v-225h322v-40h-365v560h365zM257 730l45 -125h-40l-60 125h55z" />
    <glyph glyph-name="Emacron.smcp" unicode="&#xf439;" horiz-adv-x="490" 
d="M451 560v-41h-322v-214h207v-40h-207v-225h322v-40h-365v560h365zM165 651v39h204v-39h-204z" />
    <glyph glyph-name="Eogonek.smcp" unicode="&#xf440;" horiz-adv-x="490" 
d="M451 560v-41h-322v-214h207v-40h-207v-225h322v-40h-55q-16 -11 -25 -18.5t-19 -23t-10 -31.5q0 -20 13 -30.5t33 -10.5q26 0 47 9v-30q-23 -11 -54 -11q-37 0 -58.5 19.5t-21.5 45.5q0 49 56 81h-271v560h365z" />
    <glyph glyph-name="Udieresis.smcp" unicode="&#xf441;" horiz-adv-x="524" 
d="M262 -10q-91 0 -136.5 49.5t-45.5 133.5v387h43v-388q0 -65 35 -104.5t105 -39.5t105 39.5t35 104.5v388h41v-387q0 -84 -45.5 -133.5t-136.5 -49.5zM160 670q0 17 12.5 29.5t30.5 12.5t30.5 -12.5t12.5 -29.5t-12.5 -29.5t-30.5 -12.5t-30.5 12.5t-12.5 29.5zM278 670
q0 17 12.5 29.5t30.5 12.5t30.5 -12.5t12.5 -29.5t-12.5 -29.5t-30.5 -12.5t-30.5 12.5t-12.5 29.5z" />
    <glyph glyph-name="Ugrave.smcp" unicode="&#xf442;" horiz-adv-x="524" 
d="M262 -10q-91 0 -136.5 49.5t-45.5 133.5v387h43v-388q0 -65 35 -104.5t105 -39.5t105 39.5t35 104.5v388h41v-387q0 -84 -45.5 -133.5t-136.5 -49.5zM241 730l45 -125h-40l-60 125h55z" />
    <glyph glyph-name="Umacron.smcp" unicode="&#xf443;" horiz-adv-x="524" 
d="M262 -10q-91 0 -136.5 49.5t-45.5 133.5v387h43v-388q0 -65 35 -104.5t105 -39.5t105 39.5t35 104.5v388h41v-387q0 -84 -45.5 -133.5t-136.5 -49.5zM161 651v39h204v-39h-204z" />
    <glyph glyph-name="Uogonek.smcp" unicode="&#xf444;" horiz-adv-x="524" 
d="M444 173q0 -79 -40.5 -128t-122.5 -54q-41 -31 -41 -64q0 -20 13 -30.5t33 -10.5q26 0 47 9v-30q-23 -11 -54 -11q-37 0 -58.5 19.5t-21.5 45.5q0 41 42 72q-81 6 -121 54.5t-40 127.5v387h43v-388q0 -65 35 -104.5t105 -39.5t105 39.5t35 104.5v388h41v-387z" />
    <glyph glyph-name="Uring.smcp" unicode="&#xf445;" horiz-adv-x="524" 
d="M262 -10q-91 0 -136.5 49.5t-45.5 133.5v387h43v-388q0 -65 35 -104.5t105 -39.5t105 39.5t35 104.5v388h41v-387q0 -84 -45.5 -133.5t-136.5 -49.5zM261 589q-34 0 -58 23t-24 57q0 35 24 57.5t58 22.5t58 -22.5t24 -57.5q0 -34 -24 -57t-58 -23zM261 622
q19 0 31.5 13.5t12.5 33.5t-12.5 33.5t-31.5 13.5q-20 0 -32.5 -13.5t-12.5 -33.5t12.5 -33.5t32.5 -13.5z" />
    <glyph glyph-name="Obreve.smcp" unicode="&#xf446;" horiz-adv-x="662" 
d="M331 -10q-119 0 -201.5 82.5t-82.5 207.5t82.5 207.5t201.5 82.5t201.5 -82.5t82.5 -207.5t-82.5 -207.5t-201.5 -82.5zM331 532q-105 0 -172.5 -72t-67.5 -180q0 -109 67.5 -180.5t172.5 -71.5t172.5 71.5t67.5 180.5q0 108 -67.5 180t-172.5 72zM331 659q51 0 51 59v12
h40v-24q0 -40 -27 -62.5t-64 -22.5t-63.5 22.5t-26.5 62.5v24h40v-17q0 -27 14 -40.5t36 -13.5z" />
    <glyph glyph-name="Ocircumflex.smcp" unicode="&#xf447;" horiz-adv-x="662" 
d="M331 -10q-119 0 -201.5 82.5t-82.5 207.5t82.5 207.5t201.5 82.5t201.5 -82.5t82.5 -207.5t-82.5 -207.5t-201.5 -82.5zM331 532q-105 0 -172.5 -72t-67.5 -180q0 -109 67.5 -180.5t172.5 -71.5t172.5 71.5t67.5 180.5q0 108 -67.5 180t-172.5 72zM356 730l72 -125h-43
l-55 90l-54 -90h-44l73 125h51z" />
    <glyph glyph-name="Odieresis.smcp" unicode="&#xf448;" horiz-adv-x="662" 
d="M331 -10q-119 0 -201.5 82.5t-82.5 207.5t82.5 207.5t201.5 82.5t201.5 -82.5t82.5 -207.5t-82.5 -207.5t-201.5 -82.5zM331 532q-105 0 -172.5 -72t-67.5 -180q0 -109 67.5 -180.5t172.5 -71.5t172.5 71.5t67.5 180.5q0 108 -67.5 180t-172.5 72zM228 670
q0 17 12.5 29.5t30.5 12.5t30.5 -12.5t12.5 -29.5t-12.5 -29.5t-30.5 -12.5t-30.5 12.5t-12.5 29.5zM346 670q0 17 12.5 29.5t30.5 12.5t30.5 -12.5t12.5 -29.5t-12.5 -29.5t-30.5 -12.5t-30.5 12.5t-12.5 29.5z" />
    <glyph glyph-name="Omacron.smcp" unicode="&#xf449;" horiz-adv-x="662" 
d="M331 -10q-119 0 -201.5 82.5t-82.5 207.5t82.5 207.5t201.5 82.5t201.5 -82.5t82.5 -207.5t-82.5 -207.5t-201.5 -82.5zM331 532q-105 0 -172.5 -72t-67.5 -180q0 -109 67.5 -180.5t172.5 -71.5t172.5 71.5t67.5 180.5q0 108 -67.5 180t-172.5 72zM230 651v39h204v-39
h-204z" />
    <glyph glyph-name="Utilde.smcp" unicode="&#xf450;" horiz-adv-x="524" 
d="M262 -10q-91 0 -136.5 49.5t-45.5 133.5v387h43v-388q0 -65 35 -104.5t105 -39.5t105 39.5t35 104.5v388h41v-387q0 -84 -45.5 -133.5t-136.5 -49.5zM311 634q-18 0 -50.5 18t-41.5 18q-20 0 -20 -27v-8h-38v10q0 64 55 64q18 0 50.5 -18t41.5 -18q20 0 20 27v8h38v-10
q0 -64 -55 -64z" />
    <glyph glyph-name="Wcircumflex.smcp" unicode="&#xf451;" horiz-adv-x="771" 
d="M589 0h-65l-139 516l-138 -516h-65l-140 560h45l127 -517h5l138 517h56l141 -517h4l126 517h44zM412 730l72 -125h-43l-55 90l-54 -90h-44l73 125h51z" />
    <glyph glyph-name="Ycircumflex.smcp" unicode="&#xf452;" horiz-adv-x="524" 
d="M240 248l-216 312h53l184 -270h2l185 270h52l-216 -311v-249h-44v248zM288 730l72 -125h-43l-55 90l-54 -90h-44l73 125h51z" />
    <glyph glyph-name="Ydieresis.smcp" unicode="&#xf453;" horiz-adv-x="524" 
d="M240 248l-216 312h53l184 -270h2l185 270h52l-216 -311v-249h-44v248zM160 670q0 17 12.5 29.5t30.5 12.5t30.5 -12.5t12.5 -29.5t-12.5 -29.5t-30.5 -12.5t-30.5 12.5t-12.5 29.5zM278 670q0 17 12.5 29.5t30.5 12.5t30.5 -12.5t12.5 -29.5t-12.5 -29.5t-30.5 -12.5
t-30.5 12.5t-12.5 29.5z" />
    <glyph glyph-name="Zdotaccent.smcp" unicode="&#xf454;" horiz-adv-x="474" 
d="M386 520h-342v40h391v-42l-350 -478h350v-40h-400v42zM208 670q0 17 12.5 29.5t30.5 12.5t30.5 -12.5t12.5 -29.5t-12.5 -29.5t-30.5 -12.5t-30.5 12.5t-12.5 29.5z" />
    <glyph glyph-name="Zcaron.smcp" unicode="&#xf455;" horiz-adv-x="474" 
d="M386 520h-342v40h391v-42l-350 -478h350v-40h-400v42zM340 730l-72 -125h-51l-73 125h44l54 -90l55 90h43z" />
    <glyph glyph-name="greater.alt" unicode="&#xf456;" horiz-adv-x="531" 
d="M79 167v45l379 138l-379 137v45l407 -151v-63z" />
    <glyph glyph-name="less.alt" unicode="&#xf457;" horiz-adv-x="531" 
d="M452 212v-45l-407 151v63l407 151v-45l-379 -137z" />
    <glyph glyph-name="guilsinglleft.smcp" unicode="&#xf610;" horiz-adv-x="269" 
d="M139 164l-82 122l82 123h49l-82 -123l82 -122h-49z" />
    <glyph glyph-name="guillemotleft.smcp" unicode="&#xf611;" horiz-adv-x="392" 
d="M139 164l-82 122l82 123h49l-82 -123l82 -122h-49zM262 164l-83 122l83 123h49l-82 -123l82 -122h-49z" />
    <glyph glyph-name="guillemotright.smcp" unicode="&#xf612;" horiz-adv-x="393" 
d="M213 286l-83 -122h-49l82 122l-82 123h49zM336 286l-83 -122h-49l82 122l-82 123h49z" />
    <glyph glyph-name="guilsinglright.smcp" unicode="&#xf613;" horiz-adv-x="270" 
d="M213 286l-83 -122h-49l82 122l-82 123h49z" />
    <glyph glyph-name="plus.smcp" unicode="&#xf615;" horiz-adv-x="424" 
d="M232 448v-145h146v-38h-146v-147h-41v147h-145v38h145v145h41z" />
    <glyph glyph-name="minus.smcp" unicode="&#xf616;" horiz-adv-x="424" 
d="M378 303v-38h-332v38h332z" />
    <glyph glyph-name="equal.smcp" unicode="&#xf617;" horiz-adv-x="424" 
d="M46 200v38h332v-38h-332zM46 329v39h332v-39h-332z" />
    <glyph glyph-name="commaaccent.smcp" unicode="&#xf668;" horiz-adv-x="300" 
d="M111 -82q0 17 12 29.5t29 12.5t29.5 -12t12.5 -30q0 -14 -10 -31l-43 -78h-35l31 70q-26 10 -26 39z" />
    <glyph glyph-name="cent.smcp" unicode="&#xf685;" horiz-adv-x="421" 
d="M224 97h-11l-10 -97h-38l10 103q-58 16 -94.5 64t-36.5 114q0 76 48 127.5t119 56.5l10 95h38l-10 -96q91 -13 133 -93l-36 -20q-31 65 -100 76l-30 -293h8q85 0 122 78l36 -20q-22 -44 -64.5 -69.5t-93.5 -25.5zM87 281q0 -50 25 -88t67 -52l29 287q-54 -6 -87.5 -47.5
t-33.5 -99.5z" />
    <glyph glyph-name="dollar.smcp" unicode="&#xf686;" horiz-adv-x="418" 
d="M370 514l-23 -33q-35 33 -87 46l-22 -225l8 -4q69 -37 98.5 -72.5t29.5 -88.5q0 -63 -47.5 -104.5t-119.5 -42.5l-6 -64h-38l6 67q-80 10 -135 63l23 33q49 -49 116 -60l24 247l-32 17q-57 29 -81.5 61t-24.5 79q0 57 45.5 97t116.5 40h5l6 54h38l-6 -58q65 -14 106 -52z
M331 137q0 37 -22.5 64.5t-75.5 56.5l-22 -231q52 1 86 32.5t34 77.5zM102 436q0 -33 16.5 -56t61.5 -47l22 -12l21 211h-3q-53 0 -85.5 -28.5t-32.5 -67.5z" />
    <glyph glyph-name="Euro.smcp" unicode="&#xf687;" horiz-adv-x="587" 
d="M37 325v39h61q20 93 80.5 149.5t144.5 56.5q83 0 139 -44t77 -128h-43q-40 133 -173 133q-67 0 -114 -45.5t-65 -121.5h223v-39h-230q-2 -30 -2 -45q0 -16 2 -46h230v-39h-223q18 -76 65 -121.5t114 -45.5q133 0 173 133h43q-21 -84 -77 -127.5t-139 -43.5q-85 0 -145 56
t-80 149h-61v39h55q-2 30 -2 46q0 15 2 45h-55z" />
    <glyph glyph-name="breve.smcp" unicode="&#xf6f4;" horiz-adv-x="300" 
d="M149 659q51 0 51 59v12h40v-24q0 -40 -27 -62.5t-64 -22.5t-63.5 22.5t-26.5 62.5v24h40v-17q0 -27 14 -40.5t36 -13.5z" />
    <glyph glyph-name="caron.smcp" unicode="&#xf6f5;" horiz-adv-x="300" 
d="M248 730l-72 -125h-51l-73 125h44l54 -90l55 90h43z" />
    <glyph glyph-name="circumflex.smcp" unicode="&#xf6f6;" horiz-adv-x="300" 
d="M176 730l72 -125h-43l-55 90l-54 -90h-44l73 125h51z" />
    <glyph glyph-name="dotaccent.smcp" unicode="&#xf6f7;" horiz-adv-x="300" 
d="M107 670q0 17 12.5 29.5t30.5 12.5t30.5 -12.5t12.5 -29.5t-12.5 -29.5t-30.5 -12.5t-30.5 12.5t-12.5 29.5z" />
    <glyph glyph-name="hungarumlaut.smcp" unicode="&#xf6f8;" horiz-adv-x="300" 
d="M49 605l45 125h52l-60 -125h-37zM153 605l45 125h52l-60 -125h-37z" />
    <glyph glyph-name="ogonek.smcp" unicode="&#xf6fb;" horiz-adv-x="219" 
d="M115 10l21 -5l1 -3q-17 -11 -27 -19t-20.5 -23.5t-10.5 -32.5q0 -20 13 -30.5t33 -10.5q26 0 47 9v-30q-23 -11 -54 -11q-37 0 -58.5 19.5t-21.5 45.5q0 31 23.5 55t53.5 36z" />
    <glyph glyph-name="ring.smcp" unicode="&#xf6fc;" horiz-adv-x="300" 
d="M150 589q-34 0 -58 23t-24 57q0 35 24 57.5t58 22.5t58 -22.5t24 -57.5q0 -34 -24 -57t-58 -23zM150 622q19 0 31.5 13.5t12.5 33.5t-12.5 33.5t-31.5 13.5q-20 0 -32.5 -13.5t-12.5 -33.5t12.5 -33.5t32.5 -13.5z" />
    <glyph glyph-name="tilde.smcp" unicode="&#xf6fe;" horiz-adv-x="300" 
d="M197 634q-18 0 -50.5 18t-41.5 18q-20 0 -20 -27v-8h-38v10q0 64 55 64q18 0 50.5 -18t41.5 -18q20 0 20 27v8h38v-10q0 -64 -55 -64z" />
    <glyph glyph-name="grave.smcp" unicode="&#xf760;" horiz-adv-x="300" 
d="M155 730l45 -125h-40l-60 125h55z" />
    <glyph glyph-name="dieresis.smcp" unicode="&#xf7a8;" horiz-adv-x="300" 
d="M48 670q0 17 12.5 29.5t30.5 12.5t30.5 -12.5t12.5 -29.5t-12.5 -29.5t-30.5 -12.5t-30.5 12.5t-12.5 29.5zM166 670q0 17 12.5 29.5t30.5 12.5t30.5 -12.5t12.5 -29.5t-12.5 -29.5t-30.5 -12.5t-30.5 12.5t-12.5 29.5z" />
    <glyph glyph-name="macron.smcp" unicode="&#xf7af;" horiz-adv-x="300" 
d="M48 651v39h204v-39h-204z" />
    <glyph glyph-name="acute.smcp" unicode="&#xf7b4;" horiz-adv-x="300" 
d="M100 605l45 125h55l-60 -125h-40z" />
    <glyph glyph-name="cedilla.smcp" unicode="&#xf7b8;" horiz-adv-x="300" 
d="M101 -127l46 127h48l-52 -127h-42z" />
    <glyph glyph-name="apple" unicode="&#xf8ff;" horiz-adv-x="1200" 
d="M1053 734q48 -49 74.5 -118t26.5 -143q0 -85 -32 -168t-84 -151.5t-121.5 -130t-141.5 -107t-146 -78.5q-31 -14 -62 0q-97 44 -187 107.5t-166.5 144.5t-122.5 181.5t-46 203.5q0 74 27 143t75 119q92 93 235 93q124 0 222 -86q94 84 217 84q141 0 232 -94zM1110 474
q0 67 -24.5 128.5t-69.5 105.5q-82 79 -198 79q-121 0 -218 -87q-102 88 -221 88q-114 0 -195 -78q-45 -44 -70 -106.5t-25 -130.5q0 -137 90 -268q67 -98 171 -180q53 -43 113.5 -80.5t87.5 -51t38 -17.5q9 -4 18 0q11 4 38 17.5t88 51t115 79.5q106 83 171 179
q91 133 91 271zM818 751q103 0 172 -69q83 -81 83 -209q0 -125 -84 -250q-62 -89 -164 -170q-108 -86 -227 -143q-116 56 -226 144q-103 82 -163 172q-83 120 -83 248t84 210q71 68 172 68t192 -77q-55 -58 -99 -135q-77 -135 -123 -319l-50 10q-7 2 -13.5 -2t-7.5 -11
q-4 -16 14 -20l135 -29q16 -4 20 13q3 17 -13 21l-48 10q39 155 100 274q52 -19 109 -19q60 0 112 20q62 -124 98 -276l-48 -10q-16 -4 -14 -20q4 -18 21 -14l135 28q17 4 13 20q-1 7 -7 11.5t-13 2.5l-49 -10v1q-1 1 -1 2q-47 186 -123 320q-43 78 -95 131q90 77 191 77z
M747 97q0 7 -5.5 12.5t-12.5 5.5h-179q34 18 57 32.5t53.5 39t46.5 54.5t16 63q0 50 -33 87t-90 37q-56 0 -93.5 -32.5t-37.5 -83.5q0 -36 24.5 -64.5t62.5 -28.5q30 0 54 19t24 54q0 23 -11.5 33.5t-24.5 10.5q-14 0 -23.5 -9.5t-9.5 -22.5q0 -17 15 -27q1 -1 0 -6.5
t-7.5 -10.5t-18.5 -5q-22 0 -34.5 18.5t-12.5 39.5q0 36 25 58t66 22q40 0 62.5 -26t22.5 -62q0 -68 -109 -139q-22 -14 -46.5 -27l-38.5 -20.5t-15 -8.5q-8 -10 -4 -20q5 -11 17 -11h241q19 0 19 18zM791 595l26 -50q11 -22 35 -30q29 -8 55 7q25 13 34.5 39.5t-2.5 49.5
l-33 67q-3 7 -11 9t-14 -1l-135 -74q-16 -9 -7 -25t25 -7zM1031 403l-40 89q-3 7 -10 10q-8 2 -14 -1l-129 -62q-16 -9 -9 -24l47 -105q7 -16 23 -9q7 3 10 10t0 13l-40 90l33 15l15 -33q7 -16 24 -9q16 7 9 24l-15 34l31 15l32 -72q7 -16 24 -9q16 7 9 24zM598 506
q-48 0 -92 14q47 82 94 130q43 -44 93 -129q-43 -15 -95 -15zM352 597l-98 -22q-18 -4 -14 -22t22 -14l104 23l9 -22q-7 -9 -7 -18q0 -10 8 -18t18 -8q11 0 17 8q13 12 4 34l-63 159q-7 17 -24 10t-10 -24zM209 362l17 50l114 -40q18 -7 23 11q3 7 -0.5 14t-10.5 9l-115 41
l15 47q5 18 -12 23q-7 2 -14 -1.5t-9 -10.5l-43 -132q-2 -7 1.5 -14t10.5 -9q18 -5 23 12zM849 561l-26 52l59 32l25 -50q5 -12 0 -24t-17 -18q-29 -13 -41 8zM566 3q0 -14 9.5 -23.5t22.5 -9.5t22.5 10t9.5 22q0 14 -9 23.5t-23 9.5t-23 -9.5t-9 -22.5zM421 655
q0 -14 9.5 -23.5t22.5 -9.5t22.5 10t9.5 22q0 14 -9 23.5t-23 9.5t-23 -9.5t-9 -22.5z" />
    <glyph glyph-name="st" unicode="&#xfb06;" horiz-adv-x="644" 
d="M179 25q49 0 80 25t31 61q0 35 -24 56.5t-77 39.5l-42 14q-96 32 -96 110q0 49 36.5 80.5t93.5 33.5q-34 37 -34 83q0 20 7.5 39.5t23.5 39.5t48.5 32.5t77.5 12.5h213v-218h109v-36h-109v-319q0 -24 16.5 -36t39.5 -12l53 4v-35q-25 -4 -61 -4q-91 0 -91 94v308h-75v36
h75v182h-167q-55 0 -86 -24.5t-31 -64.5q0 -49 44 -86q54 -11 90 -41l-21 -32q-50 41 -111 41q-42 0 -70 -20.5t-28 -53.5q0 -52 65 -75l61 -22q60 -22 86.5 -51.5t26.5 -75.5q0 -47 -40 -85t-115 -38q-38 0 -78.5 13.5t-65.5 35.5l21 32q59 -44 124 -44z" />
    </font>
</defs>
</svg>
